<svg width="24" height="24" viewBox="0 0 24 24" fill="none" xmlns="http://www.w3.org/2000/svg">
<path d="M16 8.82V15.18C16 15.64 15.64 16 15.19 16H8.82C8.37 16 8 15.64 8 15.18V8.82C8 8.37 8.37 8 8.82 8H15.19C15.64 8 16 8.37 16 8.82ZM20.5 12.5V14.5H21.5C21.78 14.5 22 14.73 22 15C22 15.27 21.78 15.5 21.5 15.5H20.5V16.5C20.5 18.71 18.71 20.5 16.5 20.5H15.5V21.5C15.5 21.78 15.28 22 15 22C14.72 22 14.5 21.78 14.5 21.5V20.5H12.5V21.5C12.5 21.78 12.28 22 12 22C11.72 22 11.5 21.78 11.5 21.5V20.5H9.5V21.5C9.5 21.78 9.28 22 9 22C8.72 22 8.5 21.78 8.5 21.5V20.5H7.5C5.3 20.5 3.5 18.71 3.5 16.5V15.5H2.5C2.23 15.5 2 15.28 2 15C2 14.72 2.23 14.5 2.5 14.5H3.5V12.5H2.5C2.23 12.5 2 12.28 2 12C2 11.72 2.23 11.5 2.5 11.5H3.5V9.5H2.5C2.23 9.5 2 9.28 2 9C2 8.72 2.23 8.5 2.5 8.5H3.5V7.5C3.5 5.29 5.3 3.5 7.5 3.5H8.5V2.5C8.5 2.23 8.73 2 9 2C9.27 2 9.5 2.23 9.5 2.5V3.5H11.5V2.5C11.5 2.23 11.73 2 12 2C12.27 2 12.5 2.23 12.5 2.5V3.5H14.5V2.5C14.5 2.23 14.73 2 15 2C15.27 2 15.5 2.23 15.5 2.5V3.5H16.5C18.71 3.5 20.5 5.29 20.5 7.5V8.5H21.5C21.78 8.5 22 8.73 22 9C22 9.27 21.78 9.5 21.5 9.5H20.5V11.5H21.5C21.78 11.5 22 11.73 22 12C22 12.27 21.78 12.5 21.5 12.5H20.5ZM17 8.82C17 7.82 16.19 7 15.19 7H8.82C7.82 7 7 7.82 7 8.82V15.18C7 16.19 7.82 17 8.82 17H15.19C16.19 17 17 16.19 17 15.18V8.82Z" fill="#1B1D30"/>
</svg>
