<svg width="24" height="24" viewBox="0 0 24 24" fill="none" xmlns="http://www.w3.org/2000/svg">
<path d="M10.24 10.28L9.35 12.88H11.15L10.24 10.28ZM10.24 10.28L9.35 12.88H11.15L10.24 10.28ZM12 2.5C6.75 2.5 2.5 6.75 2.5 12C2.5 17.25 6.75 21.5 12 21.5C17.25 21.5 21.5 17.25 21.5 12C21.5 6.75 17.25 2.5 12 2.5ZM13.21 15.5H12.42C12.2 15.5 12 15.37 11.93 15.17L11.54 14.07H8.95L8.57 15.16C8.5 15.36 8.3 15.5 8.08 15.5H7.29C7.09 15.5 6.95 15.31 7.02 15.12L9.45 8.76C9.51 8.6 9.67 8.5 9.84 8.5H10.65C10.82 8.5 10.98 8.6 11.04 8.76L13.48 15.12C13.55 15.31 13.41 15.5 13.21 15.5ZM16 15.1C16 15.32 15.82 15.5 15.6 15.5H14.9C14.68 15.5 14.5 15.32 14.5 15.1V10.9C14.5 10.68 14.68 10.5 14.9 10.5H15.6C15.82 10.5 16 10.68 16 10.9V15.1ZM16.66 8.65L16.02 9C15.9 9.06 15.81 9.15 15.75 9.27L15.4 9.91C15.33 10.03 15.17 10.03 15.1 9.91L14.75 9.27C14.69 9.15 14.59 9.06 14.48 9L13.84 8.65C13.72 8.58 13.72 8.42 13.84 8.35L14.48 8C14.59 7.94 14.69 7.85 14.75 7.73L15.1 7.09C15.17 6.97 15.33 6.97 15.4 7.09L15.75 7.73C15.81 7.85 15.9 7.94 16.02 8L16.66 8.35C16.78 8.42 16.78 8.58 16.66 8.65ZM9.35 12.88H11.15L10.24 10.28L9.35 12.88Z" fill="#282A32"/>
</svg>
