<svg width="24" height="24" viewBox="0 0 24 24" fill="none" xmlns="http://www.w3.org/2000/svg">
<path d="M21.6705 12.4605C18.3005 13.6305 15.6305 16.2905 14.4705 19.6605C14.3205 20.1005 13.6905 20.1005 13.5405 19.6605C12.3705 16.2905 9.71055 13.6205 6.34055 12.4605C5.90055 12.3105 5.90055 11.6805 6.34055 11.5305C9.71055 10.3605 12.3805 7.70055 13.5405 4.33055C13.6905 3.89055 14.3205 3.89055 14.4705 4.33055C15.6405 7.70055 18.3005 10.3705 21.6705 11.5305C22.1105 11.6805 22.1105 12.3105 21.6705 12.4605ZM8.71055 5.05055C7.50055 4.48055 6.51055 3.50055 5.95055 2.29055C5.77055 1.90055 5.23055 1.90055 5.05055 2.29055C4.48055 3.50055 3.50055 4.49055 2.29055 5.05055C1.90055 5.23055 1.90055 5.77055 2.29055 5.95055C3.50055 6.52055 4.49055 7.50055 5.05055 8.71055C5.23055 9.10055 5.77055 9.10055 5.95055 8.71055C6.52055 7.50055 7.50055 6.51055 8.71055 5.95055C9.10055 5.77055 9.10055 5.23055 8.71055 5.05055ZM9.71055 18.5505C8.73055 18.0605 7.94055 17.2705 7.45055 16.2905C7.26055 15.9105 6.74055 15.9105 6.55055 16.2905C6.06055 17.2705 5.27055 18.0605 4.29055 18.5505C3.91055 18.7405 3.91055 19.2605 4.29055 19.4505C5.27055 19.9405 6.06055 20.7305 6.55055 21.7105C6.74055 22.0905 7.26055 22.0905 7.45055 21.7105C7.94055 20.7305 8.73055 19.9405 9.71055 19.4505C10.0905 19.2605 10.0905 18.7405 9.71055 18.5505Z" fill="#292B31"/>
</svg>
