<svg width="24" height="24" viewBox="0 0 24 24" fill="none" xmlns="http://www.w3.org/2000/svg">
<path d="M13.3 11.25C13.73 11.98 13.48 12.89 12.75 13.29C12.02 13.71 11.11 13.46 10.7 12.74C10.27 12.03 10.51 11.12 11.25 10.71C11.96 10.3 12.88 10.54 13.3 11.25ZM17 12C17 12.28 17.23 12.5 17.5 12.5H20V18.5C20 19.88 18.81 21 17.34 21H16.61C15.67 21 14.85 20.44 14.38 19.62C13.9 18.8 13.02 18.25 12 18.25C10.98 18.25 10.1 18.8 9.62 19.62C9.15 20.44 8.33 21 7.39 21H6.67C5.2 21 4 19.88 4 18.5V12.5H6.5C6.78 12.5 7 12.28 7 12C7 11.72 6.78 11.5 6.5 11.5H4V5.5C4 4.12 5.2 3 6.67 3H7.37C8.33 3 9.14 3.57 9.63 4.39C10.11 5.2 10.99 5.75 12 5.75C13.01 5.75 13.9 5.2 14.37 4.39C14.86 3.57 15.67 3 16.62 3H17.34C18.81 3 20 4.12 20 5.5V11.5H17.5C17.23 11.5 17 11.73 17 12ZM15.37 11.59C15.37 11.52 15.4 11.45 15.43 11.41L15.82 10.99C16 10.8 16.05 10.51 15.94 10.26C15.89 10.13 15.81 9.99 15.74 9.86C15.66 9.73 15.57 9.59 15.49 9.47C15.33 9.26 15.04 9.15001 14.78 9.21001L14.23 9.34C14.17 9.35 14.1 9.35 14.05 9.3C13.82 9.13 13.58 8.99 13.33 8.89C13.26 8.87 13.21 8.81001 13.2 8.74001L13.03 8.22C12.95 7.95 12.71 7.77 12.45 7.74C12.15 7.71 11.85 7.7 11.55 7.74C11.28 7.77 11.04 7.95 10.96 8.22L10.79 8.75C10.78 8.81 10.73 8.87 10.66 8.89C10.55 8.95 10.41 9.01 10.3 9.06C10.17 9.13 10.06 9.22 9.95 9.3C9.9 9.34 9.83 9.36 9.76 9.34L9.21 9.21001C8.95 9.15001 8.67 9.26 8.5 9.47C8.33 9.73 8.17 9.98999 8.06 10.26C7.94 10.51 8 10.8 8.18 11.01L8.56 11.41C8.61 11.46 8.62 11.52 8.62 11.59C8.58 11.85 8.58 12.14 8.62 12.41C8.63 12.48 8.62 12.54 8.56 12.59L8.18 12.99C8 13.2 7.94 13.5 8.06 13.74C8.11 13.87 8.18 14.01 8.26 14.15C8.34 14.27 8.42 14.4 8.51 14.53C8.66 14.74 8.95 14.85 9.22 14.78L9.76 14.66C9.83 14.64 9.9 14.66 9.95 14.7C10.17 14.87 10.42 15.01 10.67 15.12C10.73 15.14 10.78 15.19 10.8 15.26L10.96 15.78C11.04 16.05 11.26 16.23 11.53 16.25C11.84 16.3 12.15 16.3 12.46 16.26C12.73 16.23 12.96 16.05 13.04 15.78L13.2 15.26C13.22 15.19 13.27 15.13 13.33 15.11C13.45 15.06 13.58 15.01 13.7 14.93C13.83 14.86 13.93 14.79 14.05 14.7C14.1 14.66 14.16 14.64 14.23 14.66L14.78 14.78C15.05 14.85 15.33 14.73 15.49 14.51C15.67 14.27 15.81 14.01 15.93 13.75C16.05 13.5 16 13.2 15.82 13.01L15.44 12.59C15.38 12.55 15.36 12.48 15.38 12.41C15.42 12.14 15.41 11.86 15.37 11.59Z" fill="#282A32"/>
</svg>
