<svg width="24" height="24" viewBox="0 0 24 24" fill="none" xmlns="http://www.w3.org/2000/svg">
<path d="M16.1 13.38C16.02 13.86 15.56 14.25 15.08 14.25H13.93L14.24 12.51H15.39C15.86 12.51 16.19 12.9 16.1 13.38ZM15.65 9.75H14.72L14.43 11.38H15.36C15.81 11.38 16.24 11.01 16.32 10.57C16.4 10.12 16.1 9.75 15.65 9.75ZM21.5 12C21.5 17.25 17.25 21.5 12 21.5C6.75 21.5 2.5 17.25 2.5 12C2.5 6.75 6.75 2.5 12 2.5C17.25 2.5 21.5 6.75 21.5 12ZM10.11 8.5H8.08C7.52 8.5 7 8.95 6.9 9.5L6.02 14.5C5.92 15.05 6.29 15.5 6.84 15.5H9.12C10.14 15.5 11.21 14.72 11.41 13.7C11.59 12.77 11.12 12.12 10.31 11.9C10.99 11.65 11.54 11.11 11.71 10.37C11.94 9.33 11.15 8.5 10.11 8.5ZM16.37 8.5H14.33C13.78 8.5 13.25 8.95 13.16 9.5L12.27 14.5C12.18 15.05 12.55 15.5 13.1 15.5H15.37C16.4 15.5 17.46 14.72 17.66 13.7C17.85 12.77 17.37 12.12 16.56 11.9C17.24 11.65 17.79 11.11 17.96 10.37C18.2 9.33 17.41 8.5 16.37 8.5ZM10.06 10.57C9.99 11.01 9.55 11.38 9.11 11.38H8.18L8.47 9.75H9.39C9.84 9.75 10.14 10.12 10.06 10.57ZM9.85 13.38C9.76 13.86 9.3 14.25 8.83 14.25H7.67L7.98 12.51H9.14C9.61 12.51 9.93 12.9 9.85 13.38Z" fill="#282A32"/>
</svg>
