<svg width="24" height="24" viewBox="0 0 24 24" fill="none" xmlns="http://www.w3.org/2000/svg">
<path d="M21.5197 13.51C21.1996 12.95 20.7694 12.5 20.2291 12.17C19.6888 11.83 19.0785 11.64 18.4081 11.61V11.53C18.9584 11.45 19.4687 11.25 19.9089 10.92C20.3491 10.6 20.7093 10.19 20.9595 9.7C21.2196 9.2 21.3497 8.65 21.3497 8.05V8.02C21.3497 7.19 21.1596 6.47 20.7894 5.87C20.4192 5.28 19.8789 4.81 19.1885 4.49C18.4882 4.16 17.6577 4 16.6872 4H13.4955C14.0258 4.36 14.456 4.81 14.7962 5.35C15.0764 5.8 15.2765 6.31 15.3965 6.87H15.6867C16.307 6.87 16.8073 7.03 17.1575 7.34C17.5176 7.66 17.6977 8.09 17.6977 8.65V8.67C17.6977 9.27 17.5076 9.73 17.1174 10.07C16.7272 10.41 16.1569 10.58 15.4065 10.58H14.7562C14.5561 10.89 14.326 11.16 14.0558 11.41C14.6761 11.82 15.1764 12.36 15.5466 13.01C15.5766 13.06 15.5966 13.1 15.6166 13.15H15.6867C16.237 13.15 16.6972 13.22 17.0674 13.37C17.4376 13.52 17.7177 13.74 17.8978 14.04C18.0879 14.33 18.178 14.69 18.178 15.11V15.13C18.178 15.78 17.9779 16.27 17.5677 16.61C17.1775 16.94 16.6372 17.11 15.9268 17.12C15.7967 17.56 15.6166 17.98 15.3865 18.36C14.9763 19.02 14.436 19.57 13.7757 20H16.8573C17.9078 20 18.8183 19.81 19.5887 19.43C20.3591 19.06 20.9494 18.53 21.3697 17.84C21.7899 17.15 22 16.34 22 15.42V15.4C22 14.7 21.8399 14.07 21.5197 13.51ZM13.3855 12.15C12.8452 11.81 12.2349 11.65 11.5645 11.61V11.53C12.1248 11.45 12.6251 11.25 13.0653 10.93C13.5055 10.61 13.8657 10.2 14.1159 9.7C14.366 9.2 14.5061 8.65 14.5061 8.05V8.03C14.5061 7.2 14.316 6.48 13.9458 5.88C13.5756 5.28 13.0353 4.82 12.3449 4.49C11.6446 4.17 10.8141 4 9.8436 4H4.87099C3.83044 4 3 4.84 3 5.87V18.12C3 19.15 3.84044 19.99 4.87099 19.99H10.0137C11.0642 19.99 11.9747 19.8 12.7451 19.42C13.5155 19.04 14.1058 18.51 14.5261 17.82C14.9463 17.13 15.1564 16.33 15.1564 15.4V15.38C15.1564 14.68 14.9963 14.05 14.6761 13.49C14.356 12.93 13.9258 12.48 13.3855 12.15ZM8.84308 6.87C9.4634 6.87 9.96367 7.03 10.3239 7.34C10.684 7.65 10.8641 8.09 10.8641 8.64V8.66C10.8641 9.26 10.664 9.73 10.2738 10.06C9.88362 10.4 9.31332 10.57 8.56293 10.57H7.23223C6.95208 10.57 6.73196 10.35 6.73196 10.07V7.37C6.73196 7.09 6.95208 6.87 7.23223 6.87H8.84308ZM11.3344 15.13C11.3344 15.77 11.1243 16.27 10.7141 16.61C10.3038 16.95 9.71353 17.13 8.94313 17.13H7.22222C6.94208 17.13 6.72196 16.91 6.72196 16.63V13.65C6.72196 13.37 6.94208 13.15 7.22222 13.15H8.83307C9.38336 13.15 9.8436 13.22 10.2138 13.37C10.584 13.52 10.8641 13.74 11.0442 14.04C11.2243 14.34 11.3244 14.69 11.3244 15.12V15.14L11.3344 15.13Z" fill="#282A32"/>
</svg>
