<svg width="24" height="24" viewBox="0 0 24 24" fill="none" xmlns="http://www.w3.org/2000/svg">
<path d="M17.5 11.5H20V5.5C20 4.12 18.81 3 17.34 3H16.62C15.67 3 14.86 3.57 14.37 4.39C13.9 5.2 13.01 5.75 12 5.75C10.99 5.75 10.11 5.2 9.63 4.39C9.14 3.57 8.33 3 7.37 3H6.67C5.2 3 4 4.12 4 5.5V11.5H6.5C6.78 11.5 7 11.73 7 12C7 12.27 6.78 12.5 6.5 12.5H4V18.5C4 19.88 5.2 21 6.67 21H7.39C8.33 21 9.15 20.44 9.62 19.62C10.1 18.8 10.99 18.25 12 18.25C13.01 18.25 13.9 18.8 14.38 19.62C14.85 20.44 15.67 21 16.61 21H17.34C18.81 21 20 19.88 20 18.5V12.5H17.5C17.23 12.5 17 12.28 17 12C17 11.72 17.23 11.5 17.5 11.5ZM16.17 8.94L12.41 14.37C12.05 14.88 11.29 14.87 10.95 14.35L8.82 11.07C8.57 10.69 9.02 10.23 9.41 10.47L11.66 11.82L15.51 8.37C15.9 8.02 16.46 8.51 16.17 8.94Z" fill="#282A32"/>
</svg>
