<svg width="24" height="24" viewBox="0 0 24 24" fill="none" xmlns="http://www.w3.org/2000/svg">
<path d="M16.2671 10.0809C16.4272 10.3442 16.4972 10.7697 16.4972 11.3369V12.7145C16.4872 13.2716 16.4072 13.6768 16.2571 13.9301C16.1071 14.1833 15.8669 14.315 15.5368 14.315C15.2066 14.315 14.9565 14.1833 14.7964 13.8997C14.6463 13.616 14.5663 13.2007 14.5663 12.6234V11.2458C14.5763 10.7089 14.6563 10.3138 14.8064 10.0606C14.9665 9.80737 15.2066 9.68581 15.5368 9.68581C15.8669 9.68581 16.1171 9.8175 16.2671 10.0809ZM22 11.9953C22 12.7753 21.6398 13.5654 20.9095 14.0415C20.5293 14.2947 20.3092 14.7202 20.3092 15.1659C20.3092 15.3178 20.3392 15.4799 20.3992 15.6419C20.5093 15.9357 20.5593 16.2294 20.5593 16.5232C20.5593 17.8603 19.4587 19.0252 18.018 18.9441H17.958C17.3577 18.9441 16.8274 19.3493 16.6773 19.9368C16.3772 21.0713 15.3767 21.75 14.3362 21.75C13.8159 21.75 13.2856 21.5778 12.8354 21.203C12.5953 21.0004 12.2951 20.8991 12.005 20.8991C11.7149 20.8991 11.4147 21.0004 11.1746 21.203C10.7144 21.5778 10.1841 21.75 9.66383 21.75C8.63332 21.75 7.63282 21.0713 7.33267 19.9368C7.18259 19.3493 6.65233 18.9441 6.04202 18.9441H5.84192C4.17109 18.9441 3.0005 17.2424 3.61081 15.6419C3.67084 15.49 3.70085 15.3279 3.70085 15.1659C3.70085 14.7202 3.48074 14.2947 3.10055 14.0415C2.37018 13.5654 2 12.7753 2 11.9953C2 11.2154 2.37018 10.4253 3.10055 9.94918C3.48074 9.70607 3.70085 9.28064 3.70085 8.83494C3.70085 8.67287 3.67084 8.5108 3.61081 8.34872C3.50075 8.05497 3.45073 7.76122 3.45073 7.46746C3.45073 6.1405 4.55128 4.97561 5.98199 5.04652H6.05203C6.65233 5.04652 7.18259 4.65147 7.33267 4.05383C7.63282 2.91933 8.62331 2.25079 9.66383 2.25079C10.1841 2.25079 10.7144 2.42299 11.1746 2.79778C11.4147 2.99024 11.7149 3.09154 12.005 3.09154C12.2951 3.09154 12.5953 2.99024 12.8354 2.79778C14.1861 1.68354 16.2271 2.35208 16.6773 4.05383C16.8274 4.65147 17.3577 5.04652 17.948 5.04652H18.1481C19.8289 5.04652 20.9995 6.74827 20.3992 8.34872C20.3392 8.5108 20.3092 8.67287 20.3092 8.83494C20.3092 9.28064 20.5293 9.70607 20.9095 9.94918C21.6398 10.4253 22 11.2154 22 11.9953ZM10.4442 11.4281C10.4342 10.5772 10.2741 9.92892 9.94397 9.50348C9.62381 9.07805 9.13357 8.86533 8.47324 8.86533C7.81291 8.86533 7.31266 9.08818 6.98249 9.52374C6.66233 9.95931 6.50225 10.6177 6.50225 11.499V12.5525C6.50225 13.4033 6.68234 14.0415 7.01251 14.477C7.34267 14.9126 7.82291 15.1253 8.48324 15.1253C9.14357 15.1253 9.63382 14.9126 9.95398 14.4669C10.2841 14.0212 10.4442 13.3527 10.4442 12.4815V11.4281ZM12.5953 14.5378C12.5953 14.3758 12.5353 14.2441 12.4352 14.1326C12.3352 14.0314 12.1951 13.9706 12.005 13.9706C11.8149 13.9706 11.6748 14.0314 11.5748 14.1326C11.4747 14.2441 11.4247 14.3758 11.4247 14.5378C11.4247 14.6999 11.4747 14.8316 11.5748 14.943C11.6848 15.0443 11.8249 15.0949 12.005 15.0949C12.1951 15.0949 12.3352 15.0443 12.4352 14.9329C12.5353 14.8316 12.5953 14.6999 12.5953 14.5378ZM12.5953 10.9824C12.5953 10.8203 12.5353 10.6886 12.4352 10.5772C12.3352 10.4759 12.1951 10.4151 12.005 10.4151C11.8149 10.4151 11.6748 10.4759 11.5748 10.5772C11.4747 10.6886 11.4247 10.8203 11.4247 10.9824C11.4247 11.1445 11.4747 11.2761 11.5748 11.3774C11.6848 11.4889 11.8249 11.5395 12.005 11.5395C12.1951 11.5395 12.3352 11.4889 12.4352 11.3774C12.5353 11.2761 12.5953 11.1445 12.5953 10.9824ZM17.5078 11.4281C17.4977 10.5772 17.3277 9.92892 17.0075 9.50348C16.6873 9.07805 16.1871 8.86533 15.5368 8.86533C14.8864 8.86533 14.3762 9.08818 14.046 9.52374C13.7259 9.95931 13.5658 10.6177 13.5658 11.499V12.5525C13.5758 13.4033 13.7459 14.0415 14.066 14.477C14.3962 14.9126 14.8864 15.1253 15.5368 15.1253C16.1871 15.1253 16.6973 14.9126 17.0175 14.4669C17.3477 14.0212 17.5078 13.3527 17.5078 12.4815V11.4281ZM9.2036 10.0809C9.36368 10.3442 9.43372 10.7697 9.43372 11.3369V12.7145C9.43372 13.2716 9.35368 13.6768 9.1936 13.9301C9.04352 14.1833 8.8034 14.315 8.48324 14.315C8.14307 14.315 7.89295 14.1833 7.73287 13.8997C7.58279 13.616 7.50275 13.2007 7.50275 12.6234V11.2458C7.50275 10.7089 7.5928 10.3138 7.74287 10.0606C7.90295 9.80737 8.14307 9.68581 8.47324 9.68581C8.8034 9.68581 9.05353 9.8175 9.2036 10.0809Z" fill="#1B1D30"/>
</svg>
