<?xml version="1.0" encoding="utf-8"?>
<!-- Generator: Adobe Illustrator 27.3.1, SVG Export Plug-In . SVG Version: 6.00 Build 0)  -->
<svg version="1.1" id="Layer_1" xmlns="http://www.w3.org/2000/svg" xmlns:xlink="http://www.w3.org/1999/xlink" x="0px" y="0px"
	 viewBox="0 0 24 25" style="enable-background:new 0 0 24 25;" xml:space="preserve">
<path d="M19.2,12H4.8C4.3,12,4,12.3,4,12.7c0,0.4,0.3,0.8,0.8,0.8h14.5c0.4,0,0.8-0.3,0.8-0.8C20,12.3,19.7,12,19.2,12z M12,3.2
	c0.4,0,0.8,0.3,0.8,0.8v4.3l2-1.9c0.3-0.3,0.8-0.3,1.1,0C15.9,6.6,16,6.7,16,6.9c0,0.2-0.1,0.4-0.2,0.5l-3.2,3.1
	c-0.3,0.3-0.8,0.3-1,0L8.2,7.5c-0.3-0.3-0.3-0.8,0-1.1c0.3-0.3,0.8-0.3,1.1,0l2,1.9V4C11.3,3.6,11.6,3.2,12,3.2L12,3.2z M12,22.2
	c-0.4,0-0.8-0.3-0.8-0.8v-4.3l-2,1.9c-0.3,0.3-0.8,0.3-1.1,0C8.1,18.9,8,18.7,8,18.5c0-0.2,0.1-0.4,0.2-0.5l3.2-3.1
	c0.3-0.3,0.8-0.3,1,0l3.2,3.1c0.3,0.3,0.3,0.8,0,1.1c-0.3,0.3-0.8,0.3-1.1,0l-2-1.9v4.3C12.7,21.9,12.4,22.2,12,22.2L12,22.2z"/>
</svg>
