<?xml version="1.0" encoding="utf-8"?>
<!-- Generator: Adobe Illustrator 27.3.1, SVG Export Plug-In . SVG Version: 6.00 Build 0)  -->
<svg version="1.1" id="Layer_1" xmlns="http://www.w3.org/2000/svg" xmlns:xlink="http://www.w3.org/1999/xlink" x="0px" y="0px"
	 viewBox="0 0 24 25" style="enable-background:new 0 0 24 25;" xml:space="preserve">
<path d="M19.2,12H4.8C4.3,12,4,12.3,4,12.7c0,0.4,0.3,0.8,0.8,0.8h14.5c0.4,0,0.8-0.3,0.8-0.8C20,12.3,19.7,12,19.2,12z M12,10.7
	c-0.4,0-0.8-0.3-0.8-0.8V5.7l-2,1.9C9,7.9,8.5,7.9,8.2,7.6C8.1,7.4,8,7.2,8,7c0-0.2,0.1-0.4,0.2-0.5l3.2-3.1c0.3-0.3,0.8-0.3,1,0
	l3.2,3.1c0.3,0.3,0.3,0.8,0,1.1c-0.3,0.3-0.8,0.3-1.1,0l-2-1.9V10C12.7,10.4,12.4,10.7,12,10.7L12,10.7z M12,14.7
	c0.4,0,0.8,0.3,0.8,0.8v4.3l2-1.9c0.3-0.3,0.8-0.3,1.1,0c0.1,0.1,0.2,0.3,0.2,0.5c0,0.2-0.1,0.4-0.2,0.5L12.5,22
	c-0.3,0.3-0.8,0.3-1,0L8.2,19c-0.3-0.3-0.3-0.8,0-1.1c0.3-0.3,0.8-0.3,1.1,0l2,1.9v-4.3C11.3,15.1,11.6,14.7,12,14.7L12,14.7z"/>
</svg>
