<?xml version="1.0" encoding="utf-8"?>
<!-- Generator: Adobe Illustrator 27.3.1, SVG Export Plug-In . SVG Version: 6.00 Build 0)  -->
<svg version="1.1" id="Layer_1" xmlns="http://www.w3.org/2000/svg" xmlns:xlink="http://www.w3.org/1999/xlink" x="0px" y="0px"
	 viewBox="0 0 20 20" style="enable-background:new 0 0 20 20;" xml:space="preserve">
<path d="M14.1,6.1c-0.8-0.9-2.1-2-2.4-4.1c0-0.3-0.4-0.5-0.6-0.3C8.5,3.4,8.3,6.7,8.3,8.6C7.3,8.2,6.9,7.2,6.7,6.4
	C6.7,6,6.3,5.9,6,6.1c-2.2,1.9-3.1,5.4-1.4,8.4c0.8,1.4,2.1,2.4,3.6,2.8c4.2,1.1,8-2.1,8-6.1C16.3,9,15.4,7.7,14.1,6.1L14.1,6.1z"/>
</svg>
