<svg width="24" height="24" viewBox="0 0 24 24" fill="none" xmlns="http://www.w3.org/2000/svg">
<path d="M17.6384 12.9V15.94C17.6384 16.25 17.3885 16.5 17.0786 16.5C16.7687 16.5 16.5187 16.25 16.5187 15.94V8.06C16.5187 7.75 16.7687 7.5 17.0786 7.5C17.3885 7.5 17.6384 7.75 17.6384 8.06V10.89C17.6384 11.17 17.8584 11.39 18.1383 11.39H20.9675C21.2674 11.39 21.4974 11.12 21.4674 10.82C20.8875 6.12 16.8686 2.5 12 2.5C7.13135 2.5 3.09247 6.13 2.52263 10.82C2.48264 11.12 2.71257 11.39 3.02249 11.39H5.98167C6.26159 11.39 6.48153 11.17 6.48153 10.89V8.06C6.48153 7.75 6.73146 7.5 7.04137 7.5C7.35129 7.5 7.60122 7.75 7.60122 8.06V15.94C7.60122 16.25 7.35129 16.5 7.04137 16.5C6.73146 16.5 6.48153 16.25 6.48153 15.94V12.9C6.48153 12.62 6.26159 12.4 5.98167 12.4H3.00249C2.70258 12.4 2.47264 12.66 2.50263 12.95C2.9825 17.75 7.04137 21.5 12 21.5C16.9586 21.5 21.0175 17.75 21.4974 12.95C21.5274 12.65 21.2974 12.4 20.9975 12.4H18.1483C17.8684 12.4 17.6484 12.62 17.6484 12.9H17.6384ZM14.9492 16.5H9.17078C8.86087 16.5 8.61094 16.25 8.61094 15.94V15.38C8.61094 15.12 8.72091 14.87 8.92085 14.7L11.8101 12.22C12.1799 11.89 12.4699 11.62 12.6598 11.4C12.8498 11.18 12.9797 10.99 13.0497 10.81C13.1197 10.64 13.1497 10.47 13.1497 10.29C13.1497 10.06 13.0997 9.88 12.9997 9.71C12.8997 9.55 12.7598 9.43 12.5798 9.33C12.3999 9.24 12.1899 9.2 11.96 9.2C11.6901 9.2 11.4502 9.25 11.2502 9.35C11.0503 9.46 10.8903 9.6 10.7803 9.79C10.7304 9.86 10.6904 9.98 10.6604 10.11C10.6004 10.33 10.4004 10.48 10.1705 10.48H8.90086C8.66093 10.48 8.47098 10.27 8.50097 10.03C8.55096 9.6 8.69092 9.23 8.92085 8.9C9.21077 8.46 9.62066 8.12 10.1605 7.87C10.6804 7.62 11.2902 7.5 11.96 7.5C12.6298 7.5 13.2497 7.61 13.7695 7.83C14.2794 8.06 14.6793 8.37 14.9692 8.76C15.2591 9.15 15.3991 9.61 15.3991 10.14C15.3991 10.53 15.3291 10.87 15.1991 11.17C15.0592 11.48 14.8492 11.79 14.5493 12.11C14.2494 12.43 13.8495 12.8 13.3396 13.23L11.7801 14.59C11.7101 14.65 11.7501 14.77 11.85 14.77H14.9592C15.2691 14.77 15.519 15.02 15.519 15.33V15.94C15.519 16.25 15.2691 16.5 14.9592 16.5H14.9492Z" fill="#1B1D30"/>
</svg>
