<svg width="24" height="24" viewBox="0 0 24 24" fill="none" xmlns="http://www.w3.org/2000/svg">
<path d="M13 2H11C8.24 2 6 4.25 6 7V8.41C6.32 8.28 6.65 8.17 7 8.1V7C7 4.79 8.79 3 11 3H13C15.21 3 17 4.79 17 7V8.1C17.35 8.17 17.68 8.28 18 8.41V7C18 4.25 15.76 2 13 2ZM16 9H8C5.79 9 4 10.79 4 13V17C4 19.21 5.79 21 8 21H16C18.21 21 20 19.21 20 17V13C20 10.79 18.21 9 16 9ZM12.5 15.41V17C12.5 17.28 12.28 17.5 12 17.5C11.72 17.5 11.5 17.28 11.5 17V15.41C10.92 15.21 10.5 14.65 10.5 14C10.5 13.17 11.17 12.5 12 12.5C12.83 12.5 13.5 13.17 13.5 14C13.5 14.65 13.08 15.21 12.5 15.41Z" fill="#1B1D30"/>
</svg>
