<svg width="24" height="24" viewBox="0 0 24 24" fill="none" xmlns="http://www.w3.org/2000/svg">
<path d="M17.5 11.5H20V5.5C20 4.12 18.81 3 17.34 3H16.62C15.67 3 14.86 3.57 14.37 4.39C13.9 5.2 13.01 5.75 12 5.75C10.99 5.75 10.11 5.2 9.63 4.39C9.14 3.57 8.33 3 7.37 3H6.67C5.2 3 4 4.12 4 5.5V11.5H6.5C6.78 11.5 7 11.73 7 12C7 12.27 6.78 12.5 6.5 12.5H4V18.5C4 19.88 5.2 21 6.67 21H7.39C8.33 21 9.15 20.44 9.62 19.62C10.1 18.8 10.99 18.25 12 18.25C13.01 18.25 13.9 18.8 14.38 19.62C14.85 20.44 15.67 21 16.61 21H17.34C18.81 21 20 19.88 20 18.5V12.5H17.5C17.23 12.5 17 12.28 17 12C17 11.72 17.23 11.5 17.5 11.5ZM15.15 12.05L12.14 16.13C11.86 16.52 11.25 16.31 11.25 15.83V12.76H9.24C8.83 12.76 8.61 12.29 8.84 11.95L11.86 7.87C12.13 7.48 12.75 7.69 12.75 8.17V11.24H14.75C15.16 11.24 15.4 11.71 15.15 12.05Z" fill="#282A32"/>
</svg>
