<svg width="24" height="24" viewBox="0 0 24 24" fill="none" xmlns="http://www.w3.org/2000/svg">
<path d="M21.594 6.48059C21.0142 5.85059 20.0345 5.84059 19.4347 6.44059C19.0548 6.82059 18.9349 7.35059 19.0548 7.83059C19.0948 8.02059 18.9949 8.26059 18.8349 8.36059L17.0055 9.52059C16.8356 9.62059 16.6556 9.67059 16.4757 9.67059C16.1758 9.67059 15.8759 9.53059 15.676 9.28059L13.2668 6.15059C13.1168 5.95059 13.1368 5.65059 13.3267 5.48059C13.8466 5.02059 14.1265 4.30059 13.9465 3.51059C13.7866 2.87059 13.1668 2.23059 12.537 2.07059C11.1975 1.72059 9.99786 2.72059 9.99786 4.00059C9.99786 4.59059 10.2578 5.12059 10.6676 5.48059C10.8576 5.65059 10.8876 5.95059 10.7276 6.15059L8.31843 9.28059C8.12849 9.53059 7.82859 9.67059 7.52869 9.67059C7.34875 9.67059 7.15882 9.62059 6.99887 9.52059L5.16948 8.36059C4.99954 8.26059 4.89957 8.02059 4.94956 7.83059C5.05952 7.35059 4.94956 6.82059 4.55969 6.44059C3.97988 5.85059 3.0302 5.85059 2.4404 6.44059C1.8506 7.03059 1.8506 7.97059 2.4404 8.56059C2.64033 8.76059 2.89025 8.89059 3.16016 8.95059C3.35009 9.00059 3.50004 9.15059 3.54003 9.34059L5.28944 16.9006C5.69931 18.7106 7.31876 20.0006 9.17814 20.0006H14.8162C16.6756 20.0006 18.2951 18.7106 18.7149 16.9006L20.4644 9.33059C20.5043 9.14059 20.6643 9.00059 20.8542 8.95059C21.1441 8.88059 21.424 8.73059 21.644 8.47059C22.1338 7.90059 22.1138 7.03059 21.594 6.48059ZM15.466 13.1606L14.2764 14.3606C14.1565 14.4506 14.1365 14.5906 14.1365 14.7106L14.4264 16.3906C14.5064 16.8006 14.0465 17.1506 13.6566 16.9306L12.1971 16.1506C12.0672 16.1006 11.9372 16.1006 11.7873 16.1506L10.3278 16.9306C9.93788 17.1506 9.47804 16.8006 9.55801 16.3906L9.86791 14.7106C9.86791 14.5906 9.82792 14.4506 9.70796 14.3606L8.52836 13.1606C8.20847 12.8606 8.37841 12.3606 8.79827 12.2706L10.4777 12.0306C10.5877 12.0306 10.7376 11.9206 10.7876 11.8106L11.5174 10.3106C11.7173 9.89059 12.2871 9.89059 12.467 10.3106L13.1968 11.8106C13.2668 11.9206 13.3767 12.0306 13.5067 12.0306L15.1861 12.2706C15.586 12.3606 15.7859 12.8606 15.466 13.1606Z" fill="#282A32"/>
</svg>
