<svg width="24" height="24" viewBox="0 0 24 24" fill="none" xmlns="http://www.w3.org/2000/svg">
<path d="M21.45 10.9958C21.39 10.3958 20.96 9.89581 20.39 9.73581L19.21 9.37581C19.07 9.32581 18.96 9.22581 18.9 9.08581C18.66 8.52581 18.35 7.99581 17.98 7.51581C17.89 7.39581 17.86 7.24581 17.89 7.10581L18.17 5.91581C18.31 5.32581 18.07 4.70581 17.57 4.34581C17.05 3.97581 16.48 3.65581 15.88 3.38581C15.32 3.13581 14.66 3.23581 14.21 3.64581L13.31 4.48581C13.2 4.58581 13.05 4.62581 12.91 4.61581C12.61 4.57581 12.31 4.54581 12 4.54581C11.69 4.54581 11.39 4.57581 11.09 4.61581C10.94 4.61581 10.79 4.58581 10.69 4.48581L9.78 3.65581C9.34 3.24581 8.7 3.13581 8.15 3.37581C7.53 3.64581 6.94 3.98581 6.4 4.37581C5.92 4.73581 5.69 5.34581 5.83 5.91581L6.11 7.10581C6.14 7.24581 6.1 7.39581 6.01 7.51581C5.65 7.99581 5.34 8.52581 5.1 9.08581C5.04 9.22581 4.93 9.32581 4.79 9.37581L3.61 9.73581C3.03 9.89581 2.61 10.3958 2.55 10.9958C2.52 11.3258 2.5 11.6558 2.5 11.9958C2.5 12.3358 2.52 12.6758 2.55 12.9958C2.61 13.5958 3.03 14.0958 3.61 14.2658L4.79 14.6258C4.93 14.6658 5.04 14.7758 5.1 14.9058C5.34 15.4758 5.65 15.9958 6.02 16.4858C6.1 16.5958 6.14 16.7458 6.11 16.8858L5.83 18.0758C5.69 18.6558 5.92 19.2658 6.4 19.6158C6.94 20.0058 7.53 20.3458 8.15 20.6258C8.7 20.8658 9.34 20.7558 9.78 20.3458L10.69 19.5058C10.79 19.4058 10.94 19.3658 11.09 19.3858C11.39 19.4258 11.69 19.4458 12 19.4458C12.31 19.4458 12.61 19.4258 12.91 19.3858C13.05 19.3658 13.2 19.4158 13.31 19.5158L14.21 20.3458C14.66 20.7658 15.32 20.8658 15.88 20.6158C16.48 20.3458 17.05 20.0158 17.57 19.6458C18.07 19.2858 18.31 18.6658 18.17 18.0858L17.89 16.8958C17.86 16.7458 17.89 16.6058 17.98 16.4858C18.35 15.9958 18.66 15.4758 18.9 14.9058C18.96 14.7758 19.07 14.6658 19.21 14.6258L20.39 14.2658C20.96 14.0958 21.39 13.5958 21.45 12.9958C21.48 12.6758 21.5 12.3358 21.5 11.9958C21.5 11.6558 21.48 11.3258 21.45 10.9958ZM12 15.4958C10.07 15.4958 8.5 13.9358 8.5 11.9958C8.5 10.0558 10.07 8.49581 12 8.49581C13.93 8.49581 15.5 10.0658 15.5 11.9958C15.5 13.9258 13.93 15.4958 12 15.4958Z" fill="#1B1D30"/>
</svg>
