<svg width="24" height="24" viewBox="0 0 24 24" fill="none" xmlns="http://www.w3.org/2000/svg">
<path d="M12 2.5C6.75 2.5 2.5 6.75 2.5 12C2.5 17.25 6.75 21.5 12 21.5C17.25 21.5 21.5 17.25 21.5 12C21.5 6.75 17.24 2.5 12 2.5ZM18 12.25C18 12.66 17.66 13 17.25 13C16.84 13 16.5 12.66 16.5 12.25V10.53L13.67 13.27C13.01 13.91 11.93 13.91 11.27 13.27L10.72 12.73C10.64 12.65 10.5 12.65 10.42 12.73L7.27 15.79C7.13 15.93 6.94 16 6.75 16C6.55 16 6.36 15.92 6.21 15.77C5.92 15.48 5.93 15 6.23 14.71L9.37 11.65C10.03 11.01 11.11 11.01 11.77 11.66L12.32 12.2C12.4 12.27 12.54 12.27 12.63 12.2L15.4 9.5H13.75C13.34 9.5 13 9.16 13 8.75C13 8.34 13.34 8 13.75 8H17.25C17.66 8 18 8.34 18 8.75V12.25Z" fill="#282A32"/>
</svg>
