<svg width="24" height="24" viewBox="0 0 24 24" fill="none" xmlns="http://www.w3.org/2000/svg">
<path d="M18.03 13.82C18.03 14.49 17.49 15.03 16.82 15.03C16.15 15.03 15.61 14.49 15.61 13.82C15.61 13.46 15.78 13.14 16.03 12.92L16.43 14.01C16.52 14.26 16.8 14.39 17.05 14.3C17.3 14.21 17.43 13.93 17.34 13.68L16.96 12.64C17.56 12.71 18.03 13.2 18.03 13.82ZM21 7V17C21 19.21 19.21 21 17 21H7C4.79 21 3 19.21 3 17V7C3 4.79 4.79 3 7 3H17C19.21 3 21 4.79 21 7ZM8.85 15.21C8.43 15.03 8.05 14.75 7.75 14.38C7.12 13.63 6.36 12.81 5.35 12.65C5.13 12.99 5 13.39 5 13.83C5 15.03 5.98 16.01 7.17 16.01C7.85 16.01 8.44 15.7 8.85 15.22V15.21ZM19 13.82C19 12.62 18.03 11.64 16.83 11.64C16.75 11.64 16.68 11.65 16.61 11.66L15.03 7.31C14.94 7.06 14.66 6.93 14.41 7.02C14.16 7.11 14.03 7.39 14.12 7.64L14.63 9.04H12.16C11.9 9.04 11.66 9.14 11.48 9.32L10.89 9.91C10.71 10.09 10.46 10.19 10.21 10.19H6.45C6.13 10.19 5.83 10.35 5.65 10.62L5.25 11.22C5.13 11.4 5.24 11.64 5.45 11.67C6.89 11.88 7.87 12.99 8.5 13.75C8.87 14.2 9.42 14.47 10 14.47H10.4C11.77 14.47 12.08 13.75 12.76 12.53C13.17 11.8 13.85 10.45 15.11 10.32L15.71 11.97C15.09 12.35 14.67 13.03 14.67 13.82C14.67 15.02 15.64 16 16.84 16C18.04 16 19.01 15.03 19.01 13.82H19Z" fill="#282B32"/>
</svg>
