<svg width="24" height="24" viewBox="0 0 24 24" fill="none" xmlns="http://www.w3.org/2000/svg">
<path d="M17 3H7C4.79 3 3 4.79 3 7V17C3 19.21 4.79 21 7 21H17C19.21 21 21 19.21 21 17V7C21 4.79 19.21 3 17 3ZM15.85 9.77C16.55 9.77 17.11 10.33 17.11 11.03C17.11 11.73 16.55 12.29 15.85 12.29C15.15 12.29 14.59 11.73 14.59 11.03C14.59 10.33 15.15 9.77 15.85 9.77ZM13.16 8.24C13.86 8.24 14.42 8.8 14.42 9.5C14.42 10.2 13.86 10.76 13.16 10.76C12.46 10.76 11.9 10.2 11.9 9.5C11.9 8.8 12.46 8.24 13.16 8.24ZM10.47 6.71C11.17 6.71 11.73 7.27 11.73 7.97C11.73 8.67 11.17 9.23 10.47 9.23C9.77 9.23 9.21 8.67 9.21 7.97C9.21 7.27 9.77 6.71 10.47 6.71ZM7.78 5.18C8.48 5.18 9.04 5.74 9.04 6.44C9.04 7.14 8.48 7.7 7.78 7.7C7.08 7.7 6.52 7.14 6.52 6.44C6.52 5.74 7.08 5.18 7.78 5.18ZM6.09 10.9C6.23 10.66 6.53 10.58 6.77 10.71L16.68 16.39C16.63 15.74 16.29 14.72 14.85 13.9L6.39 9.05C6.15 8.91 6.07 8.61 6.2 8.37C6.34 8.13 6.64 8.05 6.88 8.18L15.34 13.03C17.74 14.41 17.85 16.46 17.58 17.36C17.54 17.51 17.43 17.62 17.29 17.68C17.23 17.7 17.17 17.72 17.11 17.72C17.02 17.72 16.94 17.7 16.86 17.65L6.27 11.58C6.03 11.44 5.95 11.14 6.08 10.9H6.09ZM9.91 14.52C9.86 14.6 9.78 14.64 9.69 14.64C9.65 14.64 9.6 14.63 9.57 14.61L5.86 12.47C5.74 12.4 5.7 12.25 5.77 12.13C5.84 12.01 5.99 11.97 6.11 12.04L9.82 14.18C9.94 14.25 9.98 14.4 9.91 14.52ZM18.26 18.25C18.04 18.63 17.64 18.85 17.22 18.85C17.02 18.85 16.81 18.8 16.63 18.69L13.18 16.69C13.06 16.62 13.02 16.47 13.09 16.35C13.16 16.23 13.31 16.19 13.43 16.26L16.88 18.25C17.21 18.44 17.64 18.33 17.83 18C17.9 17.88 18.05 17.84 18.17 17.91C18.29 17.98 18.33 18.13 18.26 18.25Z" fill="#282B32"/>
</svg>
