<svg width="24" height="24" viewBox="0 0 24 24" fill="none" xmlns="http://www.w3.org/2000/svg">
<path d="M14.2262 3.29C14.2262 3.02 14.4863 2.84 14.7464 2.92C15.2667 3.07 15.767 3.27 16.2472 3.51C16.4073 3.59 16.5374 3.73 16.5974 3.9C16.8075 4.48 16.9276 5.11 16.9276 5.76C16.9276 6.08 16.8876 6.38 16.8275 6.68C16.3173 6.73 15.807 6.86 15.3468 7.1C15.1066 7.22 14.8465 7.28 14.5964 7.28C14.3863 7.28 14.1861 7.23 13.996 7.15C14.1661 5.67 14.2062 4.19 14.2262 3.29ZM6.26198 16.83C5.1614 15.53 4.50105 13.84 4.50105 12C4.50105 10.16 5.1614 8.49 6.26198 7.18C6.16193 6.72 6.09189 6.25 6.09189 5.75C6.09189 5.49 6.1119 5.24 6.14192 4.99C6.16193 4.81 5.95182 4.69 5.81174 4.81C3.79068 6.55 2.5 9.12 2.5 12C2.5 14.88 3.78067 17.45 5.81174 19.19C5.95182 19.31 6.16193 19.19 6.14192 19.01C6.1119 18.76 6.09189 18.51 6.09189 18.25C6.09189 17.76 6.16193 17.29 6.27199 16.83H6.26198ZM12.7754 2.54C12.5253 2.52 12.2651 2.5 12.005 2.5C11.7449 2.5 11.4847 2.52 11.2346 2.54C10.9845 2.56 10.7744 2.78 10.7744 3.05C10.7944 4.48 10.8744 5.72 10.9845 6.79C11.3246 6.71 11.6648 6.66 12.005 6.66C12.3452 6.66 12.6854 6.71 13.0155 6.79C13.1356 5.72 13.2156 4.49 13.2356 3.05C13.2356 2.79 13.0355 2.57 12.7754 2.55V2.54ZM7.07241 5.75C7.07241 6.06 7.12243 6.37 7.17246 6.66C7.69273 6.71 8.193 6.84 8.67325 7.08C8.91338 7.2 9.16351 7.26 9.42364 7.26C9.62375 7.26 9.82385 7.21 10.014 7.13C9.85387 5.65 9.79384 4.18 9.77383 3.28C9.77383 3.01 9.51369 2.83 9.25355 2.91C8.73328 3.06 8.23302 3.26 7.75276 3.5C7.59268 3.58 7.46261 3.72 7.40258 3.89C7.19247 4.47 7.07241 5.09 7.07241 5.75ZM16.9176 18.25C16.9176 17.93 16.8776 17.62 16.8175 17.32C16.3073 17.27 15.797 17.16 15.3368 16.92C15.0966 16.8 14.8465 16.75 14.5864 16.75C14.3763 16.75 14.1761 16.8 13.976 16.88C14.1361 18.36 14.1962 19.83 14.2162 20.72C14.2162 20.99 14.4763 21.17 14.7364 21.09C15.2567 20.94 15.757 20.74 16.2372 20.5C16.3973 20.42 16.5274 20.28 16.5874 20.11C16.7975 19.53 16.9176 18.91 16.9176 18.25ZM10.024 16.87C9.82385 16.79 9.62375 16.74 9.42364 16.74C9.17351 16.74 8.92338 16.8 8.68325 16.91C8.203 17.14 7.69273 17.26 7.18246 17.31C7.12243 17.61 7.09242 17.92 7.09242 18.24C7.09242 18.9 7.21248 19.52 7.42259 20.1C7.48262 20.27 7.61269 20.41 7.77277 20.49C8.25303 20.73 8.75329 20.92 9.27357 21.08C9.5237 21.16 9.78383 20.97 9.79384 20.71C9.81385 19.82 9.87388 18.35 10.034 16.87H10.024ZM12.075 14C9.94392 14 7.8128 13.96 5.79173 13.88C6.06187 14.78 6.50211 15.62 7.15245 16.34C7.52264 16.3 7.88283 16.19 8.23302 16.02C8.60321 15.84 9.01343 15.74 9.41364 15.74C9.81385 15.74 10.194 15.83 10.5542 16C11.0045 16.22 11.4947 16.34 11.995 16.34C12.4953 16.34 12.9855 16.22 13.4257 16C13.7859 15.82 14.1861 15.73 14.5864 15.73C14.9866 15.73 15.4068 15.83 15.777 16.01C16.1172 16.18 16.4774 16.29 16.8476 16.33C17.4879 15.62 17.9281 14.78 18.1983 13.88C16.2272 13.95 14.1561 13.99 12.075 13.99V14ZM21.5 12C21.5 9.12 20.2093 6.55 18.1883 4.81C18.0482 4.69 17.8381 4.81 17.8581 4.99C17.8881 5.24 17.9081 5.49 17.9081 5.75C17.9081 6.24 17.8481 6.72 17.738 7.18C18.8386 8.49 19.4889 10.17 19.4889 12C19.4889 13.83 18.8286 15.52 17.728 16.82C17.8281 17.28 17.8981 17.75 17.8981 18.25C17.8981 18.51 17.8781 18.76 17.8481 19.01C17.8281 19.19 18.0382 19.31 18.1783 19.19C20.1993 17.45 21.49 14.88 21.49 12H21.5ZM18.1983 10.11C17.9281 9.21 17.4879 8.38 16.8476 7.66C16.4674 7.7 16.1072 7.81 15.777 7.97C15.3968 8.16 14.9866 8.25 14.5764 8.25C14.1661 8.25 13.7759 8.16 13.4157 7.97C12.9855 7.75 12.4853 7.64 11.995 7.64C11.5047 7.64 11.0045 7.76 10.5642 7.98C10.2141 8.16 9.82385 8.25 9.41364 8.25C9.00342 8.25 8.60321 8.15 8.22301 7.97C7.88283 7.8 7.52264 7.7 7.14244 7.66C6.50211 8.38 6.06187 9.22 5.79173 10.11C9.76382 9.96 14.1962 9.95 18.1883 10.11H18.1983ZM18.4184 12.87C18.4584 12.58 18.4984 12.29 18.4984 11.99C18.4984 11.69 18.4584 11.4 18.4184 11.11C14.2962 10.95 9.67378 10.95 5.57162 11.11C5.5316 11.4 5.49157 11.69 5.49157 11.98C5.49157 12.27 5.5316 12.56 5.57162 12.85C9.63375 13.02 14.3462 13.02 18.4184 12.85V12.87ZM13.2457 20.95C13.2256 19.52 13.1256 18.28 13.0155 17.21C12.6854 17.29 12.3452 17.34 12.005 17.34C11.6648 17.34 11.3246 17.29 10.9945 17.21C10.8744 18.28 10.7944 19.52 10.7844 20.95C10.7844 21.21 10.9845 21.43 11.2446 21.46C11.5047 21.49 11.7549 21.5 12.015 21.5C12.2751 21.5 12.5353 21.49 12.7854 21.46C13.0355 21.43 13.2457 21.22 13.2457 20.95Z" fill="#282B32"/>
</svg>
