<svg width="24" height="24" viewBox="0 0 24 24" fill="none" xmlns="http://www.w3.org/2000/svg">
<path d="M7.96846 18.43C7.12869 18.74 6.3889 19.28 5.73908 20.18C4.6194 21.76 2.17009 22.51 2.53998 19.01C2.70994 17.39 3.29977 16.05 4.16953 14.97C5.02928 15.95 5.93903 15.53 6.16896 15.41C6.45888 16.87 7.4586 17.97 7.96846 18.43ZM16.0362 18.43C16.8759 18.74 17.6157 19.28 18.2656 20.18C19.3852 21.76 21.8345 22.51 21.4647 19.01C21.2947 17.39 20.7049 16.05 19.8351 14.97C18.9754 15.95 18.0656 15.53 17.8357 15.41C17.5458 16.87 16.546 17.97 16.0362 18.43ZM7.0987 15C7.55857 17.28 9.578 19 11.9973 19C14.4166 19 16.4361 17.28 16.8959 15C15.7563 15.66 13.8668 16 11.9973 16C10.1278 16 8.24838 15.66 7.0987 15ZM15.9862 5.71C15.7163 5.61 15.4164 5.76 15.3464 6.04C14.9365 7.59 13.6469 9 11.9973 9C10.3478 9 9.05815 7.59 8.64826 6.04C8.57828 5.76 8.27837 5.61 8.00844 5.71C5.3292 6.72 3.49971 8.71 3.49971 11C3.49971 12.27 4.05956 13.46 5.01929 14.42C5.37918 14.79 5.99901 14.53 5.99901 14.01C5.99901 12.83 6.33891 11.7 6.96874 10.73C7.11869 10.5 7.42861 10.43 7.65854 10.58C7.89848 10.73 7.95846 11.04 7.8085 11.27C7.8085 11.29 7.8085 11.3 7.78851 11.32C7.4686 11.83 7.22866 12.4 7.0987 13.01C7.00873 13.45 7.18867 13.9 7.57857 14.12C8.37834 14.57 9.95789 15 11.9973 15C14.0367 15 15.6163 14.58 16.4161 14.12C16.806 13.9 16.9859 13.45 16.8959 13.01C16.766 12.39 16.526 11.81 16.1961 11.3C16.1961 11.3 16.1928 11.2933 16.1861 11.28C16.0362 11.04 16.1062 10.73 16.3361 10.58C16.566 10.43 16.8759 10.5 17.0259 10.73C17.6657 11.7 17.9956 12.83 17.9956 14C17.9956 14.53 18.6155 14.79 18.9754 14.42C19.9351 13.46 20.4949 12.27 20.4949 11C20.4949 8.71 18.6754 6.72 15.9862 5.71ZM13.197 3.2C13.3869 3.07 13.4969 2.92 13.4969 2.75C13.4969 2.34 12.8271 2 11.9973 2C11.1676 2 10.4977 2.34 10.4977 2.75C10.4977 2.92 10.6077 3.07 10.7977 3.2C10.0279 3.48 9.49802 4.06 9.49802 5C9.49802 6.38 10.6177 8 11.9973 8C13.3769 8 14.4966 6.38 14.4966 5C14.4966 4.06 13.9668 3.48 13.197 3.2Z" fill="#282B32"/>
</svg>
