<svg width="24" height="24" viewBox="0 0 24 24" fill="none" xmlns="http://www.w3.org/2000/svg">
<path d="M17 3H7C4.79 3 3 4.79 3 7V17C3 19.2 4.79 21 7 21H17C19.21 21 21 19.2 21 17V7C21 4.79 19.21 3 17 3ZM16.49 14C16.47 14.28 16.23 14.5 15.94 14.48C15.68 14.46 15.48 14.25 15.46 14C15.41 12.74 15.02 11.72 14.41 10.94C13.94 11.15 13.31 11.43 12.72 11.69C14.09 12.56 15.07 14.02 13.69 15.5C13.35 15.85 12.98 16.1 12.59 16.31C12.56 16.43 12.5 16.55 12.41 16.64C12.14 16.91 11.73 16.92 11.43 16.71L10.75 17.19C10.75 17.19 10.65 17.24 10.6 17.24C10.52 17.24 10.44 17.2 10.39 17.13C10.31 17.01 10.34 16.85 10.45 16.77L11.13 16.29C11.06 16.03 11.11 15.75 11.32 15.54C11.53 15.33 11.83 15.27 12.09 15.36C13.93 14.18 12.92 13.1 11.16 12.6C11.19 13.21 10.99 14.05 10.63 14.45C9.97 15.31 9.12 15.92 8.25 16.48C8.22 16.63 8.17 16.78 8.05 16.9C7.78 17.17 7.37 17.18 7.07 16.97L6.39 17.45C6.39 17.45 6.29 17.5 6.24 17.5C6.16 17.5 6.08 17.46 6.03 17.39C5.95 17.27 5.98 17.11 6.09 17.03L6.77 16.55C6.7 16.29 6.76 16.01 6.96 15.8C7.14 15.62 7.38 15.56 7.61 15.59C8.5 14.87 9.75 13.88 9.62 12.98C9.56 12.55 9.48 11.73 9.89 11.33C10.22 10.95 11.76 10.04 12.57 9.58C11.51 9.16 10.25 9.07 8.9 9.36C8.28 9.47 8.06 8.53 8.66 8.36C11.35 7.41 14.95 8.26 16.05 11.17C16.42 12.08 16.55 13.07 16.49 14ZM16.51 9.5C15.68 9.5 15.01 8.83 15.01 8C15.01 7.17 15.68 6.5 16.51 6.5C17.34 6.5 18.01 7.17 18.01 8C18.01 8.83 17.34 9.5 16.51 9.5Z" fill="#282B32"/>
</svg>
