<svg width="24" height="24" viewBox="0 0 24 24" fill="none" xmlns="http://www.w3.org/2000/svg">
<path d="M9.79 6.00631H7.58V3.98843C7.58 3.75868 7.71 3.5489 7.92 3.449C8.28 3.27918 8.65 3.12934 9.03 2.99947C9.28 2.91956 9.55 3.08938 9.56 3.3591C9.61 4.3081 9.69 5.18717 9.8 6.00631H9.79ZM13.22 6.00631C13.33 5.11724 13.42 4.1183 13.47 2.98948C13.47 2.77971 13.33 2.59989 13.12 2.56993C12.75 2.51998 12.38 2.5 12 2.5C11.62 2.5 11.25 2.51998 10.88 2.56993C10.67 2.59989 10.52 2.77971 10.53 2.98948C10.57 4.10831 10.66 5.10726 10.8 6.00631H13.22ZM16.43 3.98843C16.43 3.75868 16.3 3.5489 16.09 3.449C15.73 3.27918 15.36 3.11935 14.97 2.99947C14.72 2.91956 14.45 3.08938 14.44 3.3591C14.4 4.29811 14.32 5.18717 14.21 6.0163H16.42L16.43 3.98843ZM16.15 7.00526H7.86C6.94 7.76446 6.26 8.73344 5.87 9.83228C7.69 9.6225 9.76 9.50263 12 9.50263C14.24 9.50263 16.32 9.63249 18.13 9.83228C17.75 8.74343 17.07 7.76446 16.15 7.00526ZM17.75 4.46793C17.62 4.36803 17.43 4.46793 17.43 4.62776V6.83544C18.71 8.17403 19.5 9.99211 19.5 12C19.5 14.0079 18.71 15.826 17.42 17.1646V19.3822C17.42 19.5421 17.61 19.642 17.74 19.5421C20.03 17.8239 21.5 15.0768 21.5 12C21.5 8.92324 20.03 6.18612 17.75 4.46793ZM14.45 20.6409C14.46 20.9106 14.73 21.0804 14.98 21.0005C15.36 20.8707 15.73 20.7208 16.09 20.551C16.3 20.4511 16.43 20.2413 16.43 20.0116V17.9937H14.22C14.33 18.8128 14.41 19.7019 14.46 20.6409H14.45ZM10.78 17.9937C10.67 18.8828 10.58 19.8817 10.53 21.0105C10.53 21.2203 10.67 21.4001 10.88 21.4301C11.25 21.48 11.62 21.5 12 21.5C12.38 21.5 12.75 21.48 13.12 21.4301C13.33 21.4001 13.48 21.2203 13.47 21.0105C13.43 19.8917 13.34 18.8927 13.2 17.9937H10.78ZM7.57 20.0116C7.57 20.2413 7.7 20.4511 7.91 20.551C8.27 20.7208 8.64 20.8807 9.03 21.0005C9.28 21.0804 9.55 20.9106 9.56 20.6409C9.6 19.7019 9.68 18.8128 9.79 17.9837H7.58V20.0016L7.57 20.0116ZM7.85 16.9947H16.14C17.06 16.2355 17.74 15.2666 18.13 14.1677C16.31 14.3775 14.24 14.4974 12 14.4974C9.76 14.4974 7.68 14.3675 5.87 14.1677C6.25 15.2566 6.93 16.2355 7.85 16.9947ZM18.39 10.8712C16.67 10.6514 14.56 10.5016 12 10.5016C9.44 10.5016 7.33 10.6514 5.61 10.8612C5.54 11.2308 5.5 11.6104 5.5 12C5.5 12.3896 5.54 12.7592 5.61 13.1288C7.33 13.3486 9.44 13.4984 12 13.4984C14.56 13.4984 16.67 13.3486 18.39 13.1388C18.46 12.7692 18.5 12.3896 18.5 12C18.5 11.6104 18.46 11.2408 18.39 10.8712ZM6.58 6.83544V4.61777C6.58 4.45794 6.39 4.35804 6.26 4.45794C3.97 6.17613 2.5 8.92324 2.5 12C2.5 15.0768 3.97 17.8139 6.25 19.5321C6.38 19.632 6.57 19.5321 6.57 19.3722V17.1646C5.29 15.826 4.5 14.0079 4.5 12C4.5 9.99211 5.29 8.17403 6.58 6.83544Z" fill="#282B32"/>
</svg>
