<svg width="24" height="24" viewBox="0 0 24 24" fill="none" xmlns="http://www.w3.org/2000/svg">
<path d="M16.15 9.2C16.03 12.73 11.49 15.54 10.89 17.32C10.36 16.24 6.53 14.69 6.56 11.29C6.59 8.47 8.06 7.59 8.86 7.59C9.98 7.59 10.44 8.44 10.51 8.82C10.59 9.2 11.01 9.5 11.15 8.88C11.28 8.26 12.59 6.38 14.21 6.38C15.68 6.38 16.19 7.9 16.15 9.2ZM21.5 12C21.5 17.25 17.25 21.5 12 21.5C6.75 21.5 2.5 17.25 2.5 12C2.5 6.75 6.75 2.5 12 2.5C17.25 2.5 21.5 6.76 21.5 12ZM17.69 9.21C17.69 6.71 16.06 5.5 14.73 5.5C13.4 5.5 11.84 6.48 10.89 8.11C10.63 7.52 9.72 6.88 8.63 6.88C7.76 6.88 5.31 7.97 5.31 11.5C5.31 16.06 9.91 16.99 10.84 18.41C10.91 18.51 11.11 18.58 11.19 18.35C11.93 16.15 17.69 13.68 17.69 9.21Z" fill="#282B32"/>
</svg>
