<svg width="24" height="24" viewBox="0 0 24 24" fill="none" xmlns="http://www.w3.org/2000/svg">
<path d="M12 2.5C6.75 2.5 2.5 6.75 2.5 12C2.5 17.25 6.75 21.5 12 21.5C17.25 21.5 21.5 17.25 21.5 12C21.5 6.75 17.25 2.5 12 2.5ZM14.05 9H15.84L15.52 10.4H14.97L13.53 11.69L12.61 10.3L14.05 9ZM7.59 15H5.71L5 14.13L5.33 12.7L6.25 11.97L5.66 11.26L5.98 9.86L7.1 9H8.97L8.65 10.4H8.02L7.83 11.23H8.75L8.39 12.77H7.47L7.28 13.6H7.91L7.59 15ZM9.84 15H8.06L8.38 13.6H8.92L10.36 12.3L11.28 13.69L9.84 14.99V15ZM14.46 15H12.69L9.64 10.4H9.12L9.44 9H11.2L14.25 13.6H14.77L14.45 15H14.46ZM18.7 11.21L17.76 11.96L18.36 12.68L18.02 14.13L16.87 15H14.92L15.24 13.6H15.93L16.14 12.7H15.21L15.55 11.22H16.48L16.67 10.39H15.98L16.3 8.99H18.25L18.98 9.87L18.67 11.19L18.7 11.21Z" fill="#282B32"/>
</svg>
