<svg width="24" height="24" viewBox="0 0 24 24" fill="none" xmlns="http://www.w3.org/2000/svg">
<path d="M18.88 4.91C17.5 3.57 15.65 2.7 13.61 2.55C12.54 2.48 11.46 2.48 10.4 2.55C8.35 2.7 6.5 3.57 5.12 4.91C4.86 5.16 4.85 5.58 5.09 5.84C5.8 6.64 6.68 7.29 7.67 7.74L7.78 7.35C7.85 7.08 8.12 6.92 8.39 6.99C8.62 7.05 8.77 7.26 8.77 7.48C8.77 7.52 8.76 7.57 8.75 7.61L8.62 8.1C9.19 8.29 9.8 8.41 10.43 8.45C10.78 8.47 11.14 8.49 11.5 8.49V8.01C11.5 7.73 11.73 7.51 12 7.51C12.27 7.51 12.5 7.73 12.5 8.01V8.49C12.86 8.49 13.22 8.47 13.57 8.45C14.2 8.41 14.81 8.29 15.39 8.1L15.26 7.61C15.19 7.34 15.35 7.06 15.62 6.99C15.66 6.98 15.7 6.97 15.74 6.97C15.96 6.97 16.17 7.12 16.23 7.35L16.33 7.74C17.32 7.29 18.19 6.64 18.91 5.85C19.15 5.58 19.14 5.16 18.88 4.91ZM18.91 18.16C18.19 17.37 17.32 16.72 16.33 16.27L16.23 16.66C16.16 16.92 15.88 17.08 15.62 17.01C15.39 16.95 15.24 16.75 15.24 16.53C15.24 16.49 15.24 16.44 15.26 16.4L15.39 15.9C14.81 15.71 14.2 15.59 13.57 15.55C13.22 15.53 12.86 15.51 12.5 15.51V16C12.5 16.27 12.28 16.5 12 16.5C11.72 16.5 11.5 16.27 11.5 16V15.51C11.14 15.51 10.78 15.53 10.43 15.55C9.8 15.59 9.19 15.71 8.62 15.9L8.75 16.4C8.82 16.67 8.66 16.94 8.39 17.01C8.35 17.02 8.3 17.03 8.26 17.03C8.04 17.03 7.84 16.88 7.78 16.66L7.67 16.27C6.68 16.71 5.8 17.36 5.09 18.16C4.85 18.42 4.87 18.85 5.13 19.1C6.52 20.44 8.36 21.31 10.4 21.44C11.46 21.52 12.54 21.52 13.61 21.44C15.65 21.31 17.49 20.44 18.87 19.09C19.13 18.85 19.15 18.43 18.91 18.16ZM21.45 10.39C21.36 9.17 21.02 8.02 20.47 6.99C20.24 6.58 19.68 6.48 19.35 6.82C18.57 7.61 17.63 8.26 16.6 8.71L16.75 9.28C16.82 9.54 16.66 9.82 16.39 9.89C16.12 9.96 15.85 9.8 15.78 9.54L15.65 9.06C15.01 9.27 14.34 9.39 13.64 9.44C13.26 9.47 12.88 9.49 12.5 9.49V10.01C12.5 10.28 12.28 10.51 12 10.51C11.72 10.51 11.5 10.28 11.5 10.01V9.49C11.12 9.49 10.74 9.47 10.36 9.44C9.67 9.39 9 9.27 8.36 9.06L8.23 9.54C8.16 9.8 7.88 9.96 7.62 9.89C7.35 9.82 7.19 9.54 7.26 9.28L7.41 8.72C6.37 8.27 5.43 7.62 4.64 6.82C4.32 6.5 3.76 6.58 3.54 6.99C2.99 8.02 2.64 9.17 2.56 10.39C2.48 11.46 2.48 12.54 2.56 13.6C2.64 14.83 2.99 15.98 3.54 17.01C3.76 17.41 4.32 17.5 4.64 17.17C5.43 16.37 6.37 15.72 7.41 15.27L7.26 14.73C7.19 14.46 7.35 14.18 7.62 14.11C7.88 14.04 8.16 14.2 8.23 14.47L8.35 14.93C8.99 14.72 9.66 14.6 10.36 14.55C10.74 14.53 11.12 14.51 11.5 14.51V14C11.5 13.72 11.73 13.5 12 13.5C12.27 13.5 12.5 13.72 12.5 14V14.51C12.88 14.51 13.26 14.53 13.64 14.55C14.34 14.6 15.02 14.73 15.66 14.93L15.78 14.47C15.85 14.2 16.12 14.04 16.39 14.11C16.66 14.18 16.82 14.46 16.75 14.73L16.6 15.28C17.63 15.73 18.57 16.38 19.35 17.17C19.68 17.5 20.23 17.41 20.46 17.01C21.01 15.98 21.36 14.83 21.45 13.6C21.52 12.54 21.52 11.46 21.45 10.39Z" fill="#282B32"/>
</svg>
