<svg width="24" height="24" viewBox="0 0 24 24" fill="none" xmlns="http://www.w3.org/2000/svg">
<path d="M12.31 10.07C12.13 11.09 12.04 11.59 11.86 12.61C12.75 12.88 13.18 13.09 14.03 13.48C14.21 12.47 14.3 11.97 14.48 10.97C13.64 10.56 13.21 10.35 12.31 10.07ZM12.31 10.07C12.13 11.09 12.04 11.59 11.86 12.61C12.75 12.88 13.18 13.09 14.03 13.48C14.21 12.47 14.3 11.97 14.48 10.97C13.64 10.56 13.21 10.35 12.31 10.07ZM12.31 10.07C12.13 11.09 12.04 11.59 11.86 12.61C12.75 12.88 13.18 13.09 14.03 13.48C14.21 12.47 14.3 11.97 14.48 10.97C13.64 10.56 13.21 10.35 12.31 10.07ZM12.31 10.07C12.13 11.09 12.04 11.59 11.86 12.61C12.75 12.88 13.18 13.09 14.03 13.48C14.21 12.47 14.3 11.97 14.48 10.97C13.64 10.56 13.21 10.35 12.31 10.07ZM7.55 10.51L7.12 12.96C8.13 12.42 8.61 12.31 9.56 12.28C9.74 11.27 9.83 10.76 10.01 9.75C9.06 9.8 8.57 9.92 7.55 10.51ZM12.31 10.07C12.13 11.09 12.04 11.59 11.86 12.61C12.75 12.88 13.18 13.09 14.03 13.48C14.21 12.47 14.3 11.97 14.48 10.97C13.64 10.56 13.21 10.35 12.31 10.07ZM12.31 10.07C12.13 11.09 12.04 11.59 11.86 12.61C12.75 12.88 13.18 13.09 14.03 13.48C14.21 12.47 14.3 11.97 14.48 10.97C13.64 10.56 13.21 10.35 12.31 10.07ZM7.12 12.96C8.13 12.42 8.61 12.31 9.56 12.28C9.74 11.27 9.83 10.76 10.01 9.75C9.06 9.8 8.57 9.92 7.55 10.51L7.12 12.96ZM17 3H7C4.79 3 3 4.79 3 7V17C3 19.21 4.79 21 7 21H17C19.21 21 21 19.21 21 17V7C21 4.79 19.21 3 17 3ZM18.68 11.08L18.45 12.44C17.7 12.39 17.31 12.26 16.52 11.93C16.34 12.91 16.25 13.41 16.07 14.39C16.87 14.71 17.26 14.84 18.01 14.88L17.77 16.25C17.66 16.9 17.01 17.31 16.38 17.13C16.16 17.06 15.92 16.97 15.62 16.86L16.07 14.39C15.28 14.08 14.87 13.87 14.03 13.48C13.84 14.48 13.75 14.98 13.57 15.98C12.73 15.61 12.29 15.41 11.4 15.14C11.59 14.13 11.68 13.62 11.86 12.61C10.97 12.34 10.51 12.24 9.57 12.28C9.39 13.29 9.3 13.8 9.11 14.8C8.17 14.82 7.68 14.91 6.69 15.41L6.4 17.05C6.35 17.35 6.06 17.55 5.76 17.49C5.46 17.45 5.25 17.16 5.31 16.85L7.23 5.96C7.29 5.65 7.57 5.45 7.87 5.51C8.17 5.57 8.37 5.85 8.31 6.15L7.98 8.07C9 7.42 9.5 7.29 10.45 7.22C10.27 8.23 10.18 8.74 10.01 9.75C10.96 9.7 11.42 9.79 12.31 10.07C12.5 9.06 12.59 8.55 12.77 7.54C13.67 7.82 14.1 8.04 14.94 8.46C14.76 9.47 14.67 9.97 14.48 10.97C15.32 11.37 15.73 11.6 16.52 11.93C16.7 10.94 16.79 10.45 16.97 9.46C17.37 9.63 17.66 9.75 17.94 9.84C18.47 9.99 18.78 10.54 18.68 11.08ZM12.31 10.07C12.13 11.09 12.04 11.59 11.86 12.61C12.75 12.88 13.18 13.09 14.03 13.48C14.21 12.47 14.3 11.97 14.48 10.97C13.64 10.56 13.21 10.35 12.31 10.07ZM7.12 12.96C8.13 12.42 8.61 12.31 9.56 12.28C9.74 11.27 9.83 10.76 10.01 9.75C9.06 9.8 8.57 9.92 7.55 10.51L7.12 12.96ZM7.55 10.51L7.12 12.96C8.13 12.42 8.61 12.31 9.56 12.28C9.74 11.27 9.83 10.76 10.01 9.75C9.06 9.8 8.57 9.92 7.55 10.51ZM12.31 10.07C12.13 11.09 12.04 11.59 11.86 12.61C12.75 12.88 13.18 13.09 14.03 13.48C14.21 12.47 14.3 11.97 14.48 10.97C13.64 10.56 13.21 10.35 12.31 10.07ZM7.55 10.51L7.12 12.96C8.13 12.42 8.61 12.31 9.56 12.28C9.74 11.27 9.83 10.76 10.01 9.75C9.06 9.8 8.57 9.92 7.55 10.51ZM12.31 10.07C12.13 11.09 12.04 11.59 11.86 12.61C12.75 12.88 13.18 13.09 14.03 13.48C14.21 12.47 14.3 11.97 14.48 10.97C13.64 10.56 13.21 10.35 12.31 10.07ZM12.31 10.07C12.13 11.09 12.04 11.59 11.86 12.61C12.75 12.88 13.18 13.09 14.03 13.48C14.21 12.47 14.3 11.97 14.48 10.97C13.64 10.56 13.21 10.35 12.31 10.07ZM12.31 10.07C12.13 11.09 12.04 11.59 11.86 12.61C12.75 12.88 13.18 13.09 14.03 13.48C14.21 12.47 14.3 11.97 14.48 10.97C13.64 10.56 13.21 10.35 12.31 10.07Z" fill="#282B32"/>
</svg>
