<svg width="24" height="24" viewBox="0 0 24 24" fill="none" xmlns="http://www.w3.org/2000/svg">
<path d="M13.77 3H10.23C6.62 3 3.83 6.18 4.3 9.77L4.98 15.04C5.06 15.67 5.23 16.28 5.47 16.87L8.17 14.16C8.36 13.97 8.68 13.97 8.87 14.16C8.97 14.26 9.02 14.39 9.02 14.51C9.02 14.64 8.97 14.77 8.87 14.87L5.93 17.82C6.48 18.78 7.24 19.63 8.19 20.3C9.32 21.1 10.66 21.5 12 21.5C13.34 21.5 14.68 21.1 15.8 20.3C16.69 19.67 17.43 18.88 17.98 17.98C18.02 17.92 18.05 17.86 18.09 17.8C18.05 17.79 18.02 17.76 17.99 17.73L15.13 14.87C14.94 14.67 14.94 14.36 15.13 14.16C15.23 14.07 15.36 14.02 15.48 14.02C15.61 14.02 15.73 14.07 15.83 14.16L18.53 16.87C18.77 16.28 18.93 15.67 19.01 15.04L19.7 9.78C20.17 6.19 17.38 3 13.77 3ZM10.52 6.07L11.3 5.96C11.36 5.95 11.41 5.91 11.44 5.85L11.78 5.14C11.87 4.96 12.13 4.96 12.22 5.14L12.56 5.85C12.58 5.91 12.64 5.95 12.7 5.96L13.47 6.07C13.67 6.1 13.75 6.34 13.61 6.49L13.04 7.05C13.04 7.05 12.98 7.15 12.99 7.21L13.12 8C13.16 8.2 12.95 8.35 12.77 8.26L12.09 7.89C12.09 7.89 11.97 7.86 11.92 7.89L11.22 8.26C11.05 8.35 10.84 8.2 10.87 8L11.01 7.21C11.01 7.15 11 7.09 10.95 7.05L10.39 6.49C10.25 6.34 10.33 6.1 10.52 6.07ZM13.49 13.5C13.49 14.06 12.82 14.5 12 14.5C11.18 14.5 10.5 14.06 10.5 13.5C10.5 12.94 11.18 12.5 12 12.5C12.82 12.5 13.49 12.95 13.49 13.5ZM8.06 10.96C7.56 10.57 7.5 9.91 7.52 9.48C7.54 9.23 7.73 9.03 7.99 9.01C8.52 8.98 9.44 9 9.97 9.44C10.48 9.84 10.54 10.49 10.51 10.92C10.49 11.17 10.3 11.37 10.05 11.38C9.52 11.41 8.6 11.39 8.06 10.96ZM13.82 18.51H10.18C9.51 18.51 8.99 17.84 9.22 17.21C9.66 16.02 10.74 15.51 12 15.51C13.26 15.51 14.33 16.02 14.78 17.2C15.02 17.83 14.5 18.51 13.82 18.51ZM15.94 10.96C15.4 11.39 14.48 11.41 13.95 11.38C13.7 11.37 13.5 11.17 13.49 10.92C13.46 10.49 13.52 9.84 14.02 9.44C14.56 9 15.49 8.98 16.02 9.01C16.27 9.03 16.47 9.23 16.48 9.48C16.5 9.91 16.44 10.57 15.94 10.96Z" fill="#282B32"/>
</svg>
