<svg width="24" height="24" viewBox="0 0 24 24" fill="none" xmlns="http://www.w3.org/2000/svg">
<path d="M18 15.0933C18 16.0627 17.21 16.8423 16.25 16.8423C15.29 16.8423 14.5 16.0527 14.5 15.0933C14.5 14.1338 15.29 13.3443 16.25 13.3443C17.21 13.3443 18 14.1338 18 15.0933ZM7.75 13.3542C6.79 13.3542 6 14.1338 6 15.1033C6 16.0727 6.78 16.8523 7.75 16.8523C8.72 16.8523 9.5 16.0727 9.5 15.1033C9.5 14.1338 8.72 13.3542 7.75 13.3542ZM21 7.00777V17.0022C21 19.211 19.21 21 17 21H7C4.79 21 3 19.211 3 17.0022V6.99778C3 4.78901 4.79 3 7 3H17C19.21 3 21 4.78901 21 6.99778V7.00777ZM14.75 7.65741C14.75 8.48695 15.42 9.15658 16.25 9.15658C17.08 9.15658 17.75 8.48695 17.75 7.65741C17.75 6.82787 17.08 6.15825 16.25 6.15825C15.42 6.15825 14.75 6.82787 14.75 7.65741ZM10.5 15.1033C10.5 13.5841 9.27 12.3548 7.75 12.3548C6.23 12.3548 5 13.5841 5 15.1033C5 16.6224 6.23 17.8517 7.75 17.8517C9.27 17.8517 10.5 16.6224 10.5 15.1033ZM13.42 12.9745C13.44 11.6652 12.09 11.3654 11.15 10.8456C11.13 10.8456 11.12 10.7857 11.15 10.7757C11.39 10.6058 12.96 9.75625 13.11 9.58634C13.15 9.61632 13.02 9.41644 13.38 9.85619C14.43 11.0355 16.02 11.4853 17.41 11.3454C18 11.2954 18 10.3959 17.41 10.3459C16.23 10.236 15.17 9.70627 14.54 8.88673C14.32 8.48695 13.85 8.05719 13.35 7.99722C12.87 7.87729 12.3 8.13715 11.92 8.35702C11.38 8.65686 10.68 8.98667 10.15 9.31649C9.01 10.0261 9.12 11.8951 10.35 12.4448C10.64 12.5747 11.41 12.9345 11.7 13.0444C11.7 13.0444 11.77 13.0744 11.79 13.0844C11.46 13.9539 11.05 14.9434 10.76 15.8429C10.69 16.0527 10.76 16.2826 10.96 16.4125C11.19 16.5725 11.5 16.5125 11.66 16.2826C12.03 15.7429 12.35 15.1832 12.69 14.6335C12.93 14.1738 13.45 13.5242 13.42 12.9745ZM19.01 15.0933C19.01 13.5741 17.78 12.3448 16.26 12.3448C14.74 12.3448 13.51 13.5741 13.51 15.0933C13.51 16.6124 14.74 17.8418 16.26 17.8418C17.78 17.8418 19.01 16.6124 19.01 15.0933Z" fill="#282B32"/>
</svg>
