<svg width="24" height="24" viewBox="0 0 24 24" fill="none" xmlns="http://www.w3.org/2000/svg">
<path d="M12 2.5C6.75 2.5 2.5 6.76 2.5 12C2.5 17.24 6.75 21.5 12 21.5C17.25 21.5 21.5 17.25 21.5 12C21.5 6.75 17.24 2.5 12 2.5ZM5 14.25L8.59 10.55C9.08 10.03 9.74 9.75 10.43 9.75H16.03L14.97 10.88H10.43C10.02 10.88 9.62 11.05 9.33 11.35L6.51 14.25H5ZM10.86 13.13C10.72 13.13 10.6 13.18 10.49 13.28L9.55 14.25H8.03L9.76 12.47C10.06 12.17 10.45 12 10.86 12H13.91L12.86 13.13H10.86ZM14.77 14.25H13.3L17.52 9.75H19L14.77 14.25Z" fill="#282B32"/>
</svg>
