<svg width="24" height="24" viewBox="0 0 24 24" fill="none" xmlns="http://www.w3.org/2000/svg">
<path d="M21.35 10.3C21.32 10.16 21.23 10.04 21.11 9.97C21 9.91 20.91 9.78 20.86 9.61C20.81 9.44 20.83 9.29 20.89 9.18C20.96 9.06 20.98 8.91 20.94 8.77C20.56 7.73 20 6.74 19.24 5.85C19.15 5.74 19.01 5.69 18.87 5.69C18.75 5.69 18.6 5.62 18.48 5.5C18.36 5.38 18.3 5.24 18.29 5.11C18.29 4.97 18.23 4.83 18.12 4.74C17.23 3.99 16.24 3.42 15.2 3.05C15.06 3 14.92 3.03 14.79 3.1C14.68 3.16 14.52 3.18 14.36 3.14C14.19 3.1 14.06 3 14 2.89C13.93 2.77 13.81 2.67 13.67 2.65C12.55 2.45 11.41 2.45 10.3 2.65C10.16 2.68 10.04 2.77 9.97 2.89C9.91 3 9.78 3.09 9.61 3.14C9.44 3.18 9.29 3.17 9.18 3.11C9.05 3.04 8.91 3.02 8.77 3.06C7.73 3.44 6.74 4 5.85 4.76C5.74 4.85 5.69 4.99 5.69 5.13C5.69 5.25 5.62 5.4 5.5 5.52C5.38 5.64 5.24 5.7 5.11 5.71C4.97 5.71 4.83 5.77 4.74 5.88C3.99 6.77 3.42 7.76 3.05 8.8C3 8.94 3.03 9.08 3.1 9.21C3.16 9.32 3.18 9.48 3.14 9.64C3.1 9.81 3 9.94 2.89 10C2.77 10.07 2.67 10.19 2.65 10.33C2.45 11.45 2.45 12.59 2.65 13.7C2.68 13.84 2.77 13.96 2.89 14.03C3 14.09 3.09 14.22 3.14 14.39C3.18 14.56 3.17 14.71 3.11 14.82C3.04 14.94 3.02 15.09 3.06 15.23C3.44 16.27 4 17.26 4.76 18.15C4.85 18.26 4.99 18.31 5.13 18.31C5.25 18.31 5.4 18.38 5.52 18.5C5.64 18.62 5.7 18.76 5.71 18.89C5.71 19.03 5.77 19.17 5.88 19.26C6.77 20.01 7.76 20.58 8.8 20.95C8.94 21 9.08 20.97 9.21 20.9C9.32 20.84 9.48 20.82 9.64 20.86C9.81 20.9 9.94 21 10 21.11C10.07 21.23 10.19 21.33 10.33 21.35C11.45 21.55 12.59 21.55 13.7 21.35C13.84 21.32 13.96 21.23 14.03 21.11C14.09 21 14.22 20.91 14.39 20.86C14.56 20.82 14.71 20.83 14.82 20.89C14.95 20.96 15.09 20.98 15.23 20.94C16.27 20.56 17.26 20 18.15 19.24C18.26 19.15 18.31 19.01 18.31 18.87C18.31 18.75 18.38 18.6 18.5 18.48C18.62 18.36 18.76 18.3 18.89 18.29C19.03 18.29 19.17 18.23 19.26 18.12C20.01 17.23 20.58 16.24 20.95 15.2C21 15.06 20.97 14.92 20.9 14.79C20.84 14.68 20.82 14.52 20.86 14.36C20.9 14.19 21 14.06 21.11 14C21.23 13.93 21.33 13.81 21.35 13.67C21.55 12.55 21.55 11.41 21.35 10.3ZM18.12 7.6C18.36 7.46 18.72 7.64 18.93 8C19.14 8.36 19.11 8.76 18.87 8.9C18.63 9.04 18.27 8.86 18.06 8.5C17.85 8.14 17.88 7.74 18.12 7.6ZM15.1 5.13C15.24 4.89 15.64 4.87 16 5.07C16.36 5.28 16.54 5.64 16.4 5.88C16.26 6.12 15.86 6.15 15.5 5.94C15.14 5.73 14.96 5.37 15.1 5.13ZM12 4C12.41 4 12.75 4.22 12.75 4.5C12.75 4.78 12.41 5 12 5C11.59 5 11.25 4.78 11.25 4.5C11.25 4.22 11.59 4 12 4ZM8 5.07C8.36 4.86 8.76 4.89 8.9 5.13C9.04 5.37 8.86 5.73 8.5 5.94C8.14 6.15 7.74 6.12 7.6 5.88C7.46 5.64 7.64 5.28 8 5.07ZM6.87 9.04C7.12 8.61 7.58 8.41 7.9 8.6C8.22 8.79 8.28 9.29 8.03 9.72C7.78 10.15 7.32 10.35 7 10.16C6.68 9.97 6.62 9.47 6.87 9.04ZM4.5 12.75C4.22 12.75 4 12.41 4 12C4 11.59 4.22 11.25 4.5 11.25C4.78 11.25 5 11.59 5 12C5 12.41 4.78 12.75 4.5 12.75ZM5.88 16.4C5.64 16.54 5.28 16.36 5.07 16C4.86 15.64 4.89 15.24 5.13 15.1C5.37 14.96 5.73 15.14 5.94 15.5C6.15 15.86 6.12 16.26 5.88 16.4ZM5.94 8.5C5.73 8.86 5.37 9.04 5.13 8.9C4.89 8.76 4.86 8.36 5.07 8C5.28 7.64 5.64 7.46 5.88 7.6C6.12 7.74 6.15 8.14 5.94 8.5ZM7.16 14.23C6.8 14.33 6.4 14.02 6.28 13.54C6.16 13.06 6.34 12.59 6.7 12.5C7.06 12.4 7.46 12.71 7.59 13.19C7.72 13.67 7.53 14.14 7.17 14.23H7.16ZM8.9 18.87C8.76 19.11 8.36 19.14 8 18.93C7.64 18.72 7.46 18.36 7.6 18.12C7.74 17.88 8.14 17.85 8.5 18.06C8.86 18.27 9.04 18.63 8.9 18.87ZM10.15 17C9.96 17.32 9.46 17.38 9.03 17.13C8.6 16.88 8.4 16.42 8.59 16.1C8.78 15.78 9.28 15.72 9.71 15.97C10.14 16.22 10.34 16.68 10.15 17ZM9.77 7.17C9.67 6.81 9.98 6.41 10.46 6.29C10.94 6.16 11.41 6.35 11.5 6.71C11.6 7.07 11.29 7.47 10.81 7.59C10.33 7.72 9.86 7.53 9.77 7.17ZM12 20.01C11.59 20.01 11.25 19.79 11.25 19.51C11.25 19.23 11.59 19.01 12 19.01C12.41 19.01 12.75 19.23 12.75 19.51C12.75 19.79 12.41 20.01 12 20.01ZM13.53 17.73C13.05 17.86 12.58 17.67 12.49 17.31C12.39 16.95 12.7 16.55 13.18 16.43C13.66 16.3 14.13 16.49 14.22 16.85C14.32 17.21 14.01 17.6 13.53 17.73ZM14.28 8.04C13.85 7.79 13.65 7.33 13.84 7.01C14.03 6.69 14.53 6.63 14.96 6.88C15.39 7.13 15.59 7.59 15.4 7.91C15.21 8.23 14.71 8.29 14.28 8.04ZM15.99 18.93C15.63 19.14 15.23 19.11 15.09 18.87C14.95 18.63 15.13 18.27 15.49 18.06C15.85 17.85 16.25 17.88 16.39 18.12C16.53 18.36 16.35 18.72 15.99 18.93ZM17.12 14.96C16.87 15.39 16.41 15.59 16.09 15.4C15.77 15.21 15.71 14.71 15.96 14.28C16.21 13.85 16.67 13.65 16.99 13.84C17.31 14.03 17.37 14.53 17.12 14.96ZM17.29 11.51C16.93 11.61 16.53 11.3 16.41 10.82C16.28 10.34 16.47 9.87 16.83 9.78C17.19 9.68 17.59 9.99 17.72 10.47C17.85 10.95 17.66 11.42 17.3 11.51H17.29ZM18.91 16C18.7 16.36 18.34 16.54 18.1 16.4C17.86 16.26 17.83 15.86 18.04 15.5C18.25 15.14 18.61 14.96 18.85 15.1C19.09 15.24 19.12 15.64 18.91 16ZM19.48 12.75C19.2 12.75 18.98 12.41 18.98 12C18.98 11.59 19.2 11.25 19.48 11.25C19.76 11.25 19.98 11.59 19.98 12C19.98 12.41 19.76 12.75 19.48 12.75Z" fill="#282B32"/>
</svg>
