<svg width="24" height="24" viewBox="0 0 24 24" fill="none" xmlns="http://www.w3.org/2000/svg">
<path d="M11.1138 21.2038C8.44384 21.8638 5.89384 21.4238 4.23384 19.7638C2.57384 18.1038 2.13384 15.5638 2.79384 12.8838C2.84384 12.6938 3.10384 12.6838 3.17384 12.8638C3.83384 14.5238 4.90384 16.1838 6.35384 17.6438C7.80384 19.1038 9.46384 20.1638 11.1338 20.8238C11.3138 20.8938 11.3038 21.1538 11.1138 21.2038ZM20.0838 11.9738C20.3638 12.7838 20.2638 13.6738 19.8338 14.4138C19.2138 15.4838 18.4238 16.5138 17.4638 17.4738C16.5138 18.4238 15.4738 19.2238 14.4038 19.8438C13.6738 20.2638 12.7938 20.3738 12.0038 20.1038C10.2938 19.5238 8.56384 18.4538 7.05384 16.9438C5.54384 15.4338 4.47384 13.7138 3.89384 11.9938C3.62384 11.1938 3.73384 10.3138 4.15384 9.59384C4.77384 8.52384 5.56384 7.48384 6.52384 6.53384C7.48384 5.58384 8.51384 4.78384 9.58384 4.16384C10.3138 3.74384 11.1938 3.63384 11.9838 3.90384C13.6938 4.48384 15.4238 5.55384 16.9338 7.06384C18.4338 8.56384 19.4938 10.2738 20.0838 11.9738ZM15.1738 8.82384C14.9838 8.63384 14.6538 8.63384 14.4638 8.82384L13.7538 9.53384L13.4038 9.18384C13.2138 8.99384 12.8838 8.99384 12.6938 9.18384C12.4938 9.38384 12.5038 9.70384 12.6938 9.89384L13.0438 10.2438L11.9838 11.3038L11.6338 10.9538C11.4438 10.7638 11.1138 10.7638 10.9238 10.9538C10.7338 11.1438 10.7338 11.4738 10.9238 11.6638L11.2738 12.0138L10.2138 13.0738L9.86384 12.7238C9.67384 12.5338 9.34384 12.5338 9.15384 12.7238C8.96384 12.9138 8.96384 13.2438 9.15384 13.4338L9.50384 13.7838L8.79384 14.4938C8.59384 14.6938 8.60384 15.0138 8.79384 15.2038C8.98384 15.3938 9.30384 15.4038 9.50384 15.2038L10.2138 14.4938L10.5638 14.8438C10.7638 15.0438 11.0738 15.0438 11.2738 14.8438C11.4638 14.6538 11.4738 14.3338 11.2738 14.1338L10.9238 13.7838L11.9838 12.7238L12.3338 13.0738C12.5338 13.2738 12.8438 13.2738 13.0438 13.0738C13.2338 12.8838 13.2438 12.5638 13.0438 12.3638L12.6938 12.0138L13.7538 10.9538L14.1038 11.3038C14.3038 11.5038 14.6138 11.5038 14.8138 11.3038C15.0138 11.1038 15.0138 10.7938 14.8138 10.5938L14.4638 10.2438L15.1738 9.53384C15.3638 9.34384 15.3738 9.02384 15.1738 8.82384ZM19.7638 4.23384C18.1038 2.57384 15.5638 2.13384 12.8838 2.79384C12.6938 2.84384 12.6838 3.10384 12.8638 3.17384C14.5238 3.83384 16.1838 4.90384 17.6438 6.35384C19.1038 7.80384 20.1638 9.46384 20.8238 11.1338C20.8938 11.3138 21.1538 11.3038 21.2038 11.1138C21.8638 8.44384 21.4238 5.89384 19.7638 4.23384Z" fill="#282B32"/>
</svg>
