<svg width="24" height="24" viewBox="0 0 24 24" fill="none" xmlns="http://www.w3.org/2000/svg">
<path d="M18.07 9.58999L10.95 19.63C10.68 20.01 10.72 20.53 11.05 20.86C11.48 21.29 12.04 21.5 12.59 21.5C13.43 21.5 14.26 21.02 14.62 20.14L18.71 10.22L18.07 9.58999ZM16.59 8.10999L8.12 16.59C7.75 16.96 7.75 17.56 8.12 17.93L8.98 18.79C9.39 19.2 10.08 19.14 10.42 18.66L17.35 8.86999L16.59 8.10999ZM15.12 6.62999L5.33 13.58C4.86 13.92 4.8 14.61 5.21 15.02L6.08 15.89C6.44 16.25 7.04 16.25 7.41 15.89L15.89 7.40999L15.12 6.62999ZM13.78 5.28999L3.86 9.37999C2.42 9.97999 2.04 11.85 3.14 12.95C3.32 13.13 3.57 13.23 3.81 13.23C4.01 13.23 4.2 13.17 4.37 13.05L14.41 5.91999L13.78 5.28999ZM20.46 3.53999C19.1 2.17999 16.95 2.12999 15.54 3.53999L14.48 4.59999L19.41 9.51999L20.46 8.45999C21.87 7.05999 21.82 4.89999 20.46 3.53999Z" fill="#282B32"/>
</svg>
