<svg width="24" height="24" viewBox="0 0 24 24" fill="none" xmlns="http://www.w3.org/2000/svg">
<path d="M17.0852 21H6.90867C6.35886 21 5.90901 20.55 5.90901 20C5.90901 19.45 6.35886 19 6.90867 19H17.0852C17.635 19 18.0849 19.45 18.0849 20C18.0849 20.55 17.635 21 17.0852 21ZM16.0556 18C16.0556 15 13.5164 16.07 13.5164 14C13.5164 11.93 14.676 11.72 16.0556 9C16.8053 7.52 17.0052 6.04 17.0552 4.56C17.0852 3.71 16.3954 3 15.5357 3H8.46814C7.60843 3 6.91867 3.71 6.94866 4.56C6.99864 6.04 7.19857 7.52 7.94832 9C9.32785 11.72 10.4775 11.91 10.4775 14C10.4775 16.09 7.94832 15 7.94832 18H16.0656H16.0556ZM20.9539 7.42C20.744 8.35 20.2841 9.27 19.3045 10.2C17.735 11.7 15.8556 12.31 14.696 13.03C14.826 12.68 15.0659 12.37 15.4058 11.9C15.5457 11.71 15.6957 11.51 15.8556 11.29C16.7553 10.83 17.745 10.3 18.6047 9.48C19.3344 8.79 19.7643 8.06 19.9642 7.2C20.0442 6.81 19.8743 6.52 19.7643 6.39C19.5744 6.14 19.2745 6 18.9646 6H17.9849C18.0249 5.66 18.0449 5.32 18.0649 5H18.9646C20.2541 5 21.2338 6.18 20.9539 7.42ZM8.5881 11.9C8.92798 12.36 9.15791 12.67 9.28786 13.02C8.12826 12.31 6.26889 11.69 4.68942 10.2C3.71975 9.27 3.25991 8.35 3.04998 7.42C2.77008 6.18 3.74974 5 5.0393 5H5.949C5.95899 5.32 5.98898 5.66 6.02897 6H5.0393C4.72941 6 4.42951 6.14 4.23958 6.39C4.12961 6.52 3.95967 6.81 4.04964 7.2C4.23958 8.06 4.67943 8.79 5.40918 9.48C6.25889 10.3 7.24855 10.83 8.14825 11.29C8.2982 11.51 8.44815 11.71 8.5981 11.9H8.5881Z" fill="#282B32"/>
</svg>
