<svg width="24" height="24" viewBox="0 0 24 24" fill="none" xmlns="http://www.w3.org/2000/svg">
<path d="M17 3H7C4.79 3 3 4.79 3 7V17C3 19.21 4.79 21 7 21H17C19.21 21 21 19.21 21 17V7C21 4.79 19.21 3 17 3ZM14.47 6.28C15 5.65 15.95 5.56 16.58 6.1C17.21 6.63 17.3 7.58 16.77 8.21C16.24 8.84 15.29 8.93 14.66 8.39C14.03 7.85 13.94 6.91 14.47 6.28ZM18.84 9.84C18.72 9.95 18.55 10.07 18.36 10.19V17.75C18.36 17.89 18.25 18 18.11 18C17.97 18 17.86 17.89 17.86 17.75V10.47C17.39 10.7 16.85 10.89 16.35 10.89C15.37 10.89 14.42 10.59 13.72 10.06C13.15 10.39 12.33 10.86 11.89 11.11C11.89 11.11 13.35 11.83 13.59 11.97C14.22 12.36 14.24 13.21 13.2 13.85C12.86 14.06 11.25 14.92 10.45 15.17L11.04 15.51C11.4 15.72 11.48 16.13 11.31 16.53C11.27 16.62 11.2 16.77 11.2 16.77L14.04 18.41C14.34 18.58 14.72 18.48 14.89 18.18C14.96 18.06 15.11 18.02 15.23 18.09C15.35 18.16 15.39 18.31 15.32 18.43C15.11 18.79 14.74 18.99 14.35 18.99C14.16 18.99 13.97 18.94 13.79 18.84L5.1 13.82C4.98 13.75 4.94 13.6 5.01 13.48C5.08 13.36 5.23 13.32 5.35 13.39L8.58 15.25C8.58 15.25 8.67 15.11 8.72 15.02C8.93 14.66 9.55 14.69 12.01 13.02C11.48 12.82 10.76 12.56 10.43 12.42C9.26 12.07 9.13 10.55 10.24 9.8C10.51 9.62 11.72 8.89 12.08 8.67C11.22 8.08 10.35 7.88 9.36 8.28L9.76 8.51C9.88 8.58 9.92 8.73 9.85 8.85C9.8 8.93 9.72 8.97 9.63 8.97C9.59 8.97 9.55 8.96 9.51 8.94L8.83 8.55C8.75 8.6 8.67 8.64 8.59 8.69C8.12 8.98 7.67 8.4 7.9 8.01L5.23 6.47C5.11 6.4 5.07 6.25 5.14 6.13C5.21 6.01 5.36 5.97 5.48 6.04L8.3 7.67C10.35 6.19 12.18 6.91 13.88 8.49C15.39 9.91 16.53 10.31 18.25 9.01C18.76 8.65 19.34 9.47 18.84 9.84Z" fill="#282B32"/>
</svg>
