<svg width="24" height="24" viewBox="0 0 24 24" fill="none" xmlns="http://www.w3.org/2000/svg">
<path d="M17 3H7C4.79 3 3 4.79 3 7V17C3 19.21 4.79 21 7 21H17C19.2 21 21 19.21 21 17V7C21 4.79 19.2 3 17 3ZM10.5 7.25C10.5 6.97 10.72 6.75 11 6.75C11.28 6.75 11.5 6.97 11.5 7.25V8.75C11.5 9.03 11.28 9.25 11 9.25C10.72 9.25 10.5 9.03 10.5 8.75V7.25ZM17.99 17.03C17.61 17.3 17.05 17.51 16.45 17.51C16.12 17.51 15.78 17.44 15.46 17.3C14.85 17.04 14.1 16.4 13.91 14.9C13.86 14.51 13.63 14.35 13.46 14.32C13.28 14.3 13.14 14.41 13.05 14.62C12.78 15.31 12.22 15.76 11.55 15.82C10.98 15.86 10.42 15.59 10.13 15.11C9.82 14.59 9.88 13.92 10.3 13.28C10.58 12.85 10.67 12.46 10.54 12.24C10.45 12.1 10.25 12.02 10.03 12.04C9.7 12.08 9.43 12.31 9.31 12.66C8.79 14.09 7.87 14.6 7.36 14.77C6.77 14.97 6.17 14.94 5.75 14.67C5.26 14.36 4.99 13.88 5.01 13.31C5.03 12.42 5.72 11.56 6.37 11.2C7 10.85 7.01 10.84 7.01 10.03C7.01 8.51 7.92 7.61 9.52 7.51V8.51C8.18 8.61 8.01 9.37 8.01 10.03C8.01 11.3 7.71 11.59 6.91 12.04C6.41 12.33 6.02 12.9 6.01 13.34C6 13.55 6.09 13.7 6.28 13.83C6.41 13.91 6.7 13.94 7.04 13.83C7.37 13.71 7.99 13.36 8.36 12.33C8.62 11.61 9.22 11.12 9.93 11.05C10.54 10.99 11.1 11.24 11.4 11.72C11.6 12.05 11.83 12.76 11.14 13.83C10.93 14.14 10.88 14.41 10.99 14.6C11.08 14.75 11.27 14.84 11.47 14.82C11.64 14.82 11.94 14.71 12.12 14.25C12.35 13.67 12.85 13.32 13.41 13.32C13.47 13.32 13.53 13.32 13.58 13.33C14.27 13.42 14.8 14 14.9 14.77C15 15.6 15.33 16.15 15.86 16.38C16.42 16.63 17.06 16.47 17.41 16.21C17.86 15.9 18.08 15.36 17.98 14.84C17.87 14.3 17.46 13.91 16.84 13.77C15.98 13.57 15.37 12.91 15.34 12.16C15.31 11.35 15.94 10.66 17.04 10.32C17.36 10.22 17.73 10.03 17.68 9.7C17.6 9.21 16.75 8.5 15.41 8.5H12.5V7.5H15.41C17.25 7.5 18.51 8.54 18.66 9.55C18.78 10.33 18.29 10.97 17.34 11.27C16.7 11.47 16.33 11.79 16.34 12.12C16.34 12.42 16.66 12.7 17.06 12.79C18.07 13.03 18.78 13.72 18.96 14.65C19.14 15.55 18.76 16.49 17.99 17.03Z" fill="#282B32"/>
</svg>
