<svg width="24" height="24" viewBox="0 0 24 24" fill="none" xmlns="http://www.w3.org/2000/svg">
<path d="M12.79 8.13L13.89 8.76C13.76 10.18 12.37 11.37 11.55 11.84C11.66 10.66 11.51 9.11 11.39 8.47L11.64 8.62C12 8.83 12.46 8.7 12.66 8.35L12.79 8.13ZM21 7V17C21 19.21 19.21 21 17 21H7C4.79 21 3 19.21 3 17V7C3 4.79 4.79 3 7 3H17C19.21 3 21 4.79 21 7ZM7.87 15.01C7.07 14.81 6.25 15.3 6.05 16.1C5.85 16.9 6.34 17.72 7.14 17.92C7.94 18.12 8.76 17.63 8.96 16.83C9.16 16.03 8.67 15.21 7.87 15.01ZM18.31 8.96L11.47 5.01C11.35 4.94 11.2 4.98 11.13 5.1C11.06 5.22 11.1 5.37 11.22 5.44L14.04 7.07L13.88 7.35C13.76 7.56 13.88 7.85 13.86 8.17L8.79 5.24C8.67 5.17 8.52 5.21 8.45 5.33C8.38 5.45 8.42 5.6 8.54 5.67L10.2 6.63L10.07 6.85C9.98 7 9.97 7.17 9.99 7.33C10.39 9.26 9.64 12.93 9.03 13.42C7.86 12.97 6.52 12.93 5.35 13.36C4.77 13.54 4.99 14.44 5.59 14.33C6.97 14.08 8.4 14.26 9.42 15.06C10.5 15.88 10.96 17.21 11.05 18.56C11.07 18.8 11.25 18.99 11.5 19.02C12.55 19.05 11.96 16.74 11.74 16.1C11.59 15.67 11.36 15.3 11.1 14.96C11.66 14.63 12.21 14.11 12.59 13.82C13.71 12.82 14.63 11.51 14.9 10.01C14.94 9.78 14.96 9.58 14.97 9.39L15.38 9.63C15.58 9.75 15.73 9.93 15.79 10.16C15.85 10.38 15.82 10.62 15.7 10.82C15.63 10.94 15.67 11.09 15.79 11.16C15.83 11.18 15.87 11.19 15.91 11.19C16 11.19 16.08 11.15 16.13 11.07C16.31 10.75 16.36 10.38 16.27 10.03C16.17 9.68 15.95 9.38 15.63 9.2L15.59 9.18C15.92 9.29 16.29 9.18 16.48 8.86L16.64 8.58L18.07 9.41C18.49 9.65 18.63 10.18 18.39 10.6C18.32 10.72 18.36 10.87 18.48 10.94C18.52 10.96 18.56 10.97 18.6 10.97C18.69 10.97 18.77 10.93 18.82 10.85C19.2 10.2 18.96 9.34 18.31 8.96Z" fill="#282B32"/>
</svg>
