<svg width="24" height="24" viewBox="0 0 24 24" fill="none" xmlns="http://www.w3.org/2000/svg">
<path d="M20.39 7.27L14.38 2.79C12.97 1.74 11.03 1.74 9.61001 2.79L3.61001 7.27C2.22001 8.31 1.65001 10.13 2.22001 11.77L4.45001 18.3C5.00001 19.92 6.52001 21 8.23001 21H15.78C17.49 21 19.01 19.91 19.56 18.3L21.79 11.77C22.35 10.13 21.79 8.31 20.4 7.27H20.39ZM12.5 13.41H9.51001C8.96001 13.41 8.51001 12.96 8.51001 12.41V7.41C8.51001 6.86 8.96001 6.41 9.51001 6.41H15C15.28 6.41 15.5 6.63 15.5 6.91C15.5 7.19 15.28 7.41 15 7.41H10.01C9.73001 7.41 9.51001 7.63 9.51001 7.91V11.91C9.51001 12.19 9.73001 12.41 10.01 12.41H12.51C13.61 12.41 14.51 13.3 14.51 14.41C14.51 15.52 13.62 16.41 12.51 16.41H9.02001C8.74001 16.41 8.52001 16.19 8.52001 15.91C8.52001 15.63 8.74001 15.41 9.02001 15.41H12.51C13.06 15.41 13.51 14.96 13.51 14.41C13.51 13.86 13.06 13.41 12.51 13.41H12.5ZM12.5 18.41H9.01001C8.73001 18.41 8.51001 18.19 8.51001 17.91C8.51001 17.63 8.73001 17.41 9.01001 17.41H12.5C14.15 17.41 15.49 16.07 15.49 14.41C15.49 12.75 14.15 11.41 12.5 11.41H11C10.72 11.41 10.5 11.19 10.5 10.91V8.91C10.5 8.63 10.72 8.41 11 8.41H14.99C15.27 8.41 15.49 8.63 15.49 8.91C15.49 9.19 15.27 9.41 14.99 9.41H11.5V10.41H12.5C14.7 10.41 16.49 12.2 16.49 14.41C16.49 16.62 14.7 18.41 12.5 18.41Z" fill="#282B32"/>
</svg>
