<svg width="24" height="24" viewBox="0 0 24 24" fill="none" xmlns="http://www.w3.org/2000/svg">
<path d="M21.29 12.22C20.03 10.52 20.54 10.51 19.24 8.63999C18.26 7.22999 18.78 7.09999 18.31 6.40999C17.82 5.68999 17.25 5.14999 16.64 4.73999C16.46 4.61999 16.41 4.36999 16.53 4.18999C17.05 3.43999 17.08 2.60999 17.05 2.16999C17.05 2.02999 16.88 1.94999 16.77 2.03999C16.55 2.20999 16.15 2.46999 15.43 2.70999C14.66 2.95999 14.37 3.37999 14.19 3.61999C14.09 3.74999 13.93 3.79999 13.77 3.78999C11.61 3.65999 9.63999 4.78999 8.45999 5.74999C4.49999 8.99999 4.49999 13 7.48999 16C9.30999 17.83 13.2 18.7 13.87 20.47C13.93 20.63 14.16 20.65 14.23 20.49C16.95 14.97 11.12 14.35 13.05 11.04C15.56 14.1 18.04 12.1 18.04 13.96C18.04 14.6 18.72 15.25 19.68 14.91C21.67 14.19 21.71 12.79 21.29 12.22ZM17.38 7.99999L16.84 8.53999C16.69 8.68999 16.43 8.60999 16.39 8.38999L16.26 7.66999C16.23 7.51999 16.36 7.38999 16.51 7.41999L17.24 7.54999C17.45 7.58999 17.53 7.84999 17.38 7.99999ZM12.87 20.69C12.27 19.72 8.99999 18.79 6.77999 16.71C4.49999 14.58 4.27999 12.51 4.41999 10.76C4.41999 10.64 4.25999 10.61 4.22999 10.72C3.94999 11.55 3.71999 12.53 3.56999 13.6C3.00999 17.51 6.04999 21 9.98999 21H12.7C12.86 21 12.96 20.83 12.87 20.69Z" fill="#282B32"/>
</svg>
