<svg width="24" height="24" viewBox="0 0 24 24" fill="none" xmlns="http://www.w3.org/2000/svg">
<path d="M12 2.5C6.75 2.5 2.5 6.75 2.5 12C2.5 17.25 6.75 21.5 12 21.5C17.25 21.5 21.5 17.25 21.5 12C21.5 6.75 17.25 2.5 12 2.5ZM5.7 12.24C5.13 12.09 4.85 11.27 5.08 10.42C5.31 9.57 5.96 9 6.52 9.15C7.09 9.3 7.37 10.12 7.14 10.97C6.91 11.82 6.26 12.39 5.7 12.24ZM8.42 18.92C8.23 19.15 7.53 18.87 6.85 18.3C6.17 17.73 5.78 17.09 5.97 16.86C6.16 16.63 6.86 16.91 7.54 17.48C8.22 18.05 8.61 18.69 8.42 18.92ZM12 17.35C11.12 17.35 10.4 16.75 10.4 16.01C10.4 15.27 11.12 14.67 12 14.67C12.88 14.67 13.6 15.27 13.6 16.01C13.6 16.75 12.88 17.35 12 17.35ZM12 11.74C11.12 11.74 10.4 11.02 10.4 10.14C10.4 9.26 11.12 8.54 12 8.54C12.88 8.54 13.6 9.26 13.6 10.14C13.6 11.02 12.88 11.74 12 11.74ZM12 6.13C11.12 6.13 10.4 5.65 10.4 5.06C10.4 4.47 11.12 3.99 12 3.99C12.88 3.99 13.6 4.47 13.6 5.06C13.6 5.65 12.88 6.13 12 6.13ZM17.14 18.29C16.46 18.86 15.76 19.14 15.57 18.91C15.38 18.68 15.78 18.04 16.45 17.47C17.13 16.9 17.83 16.62 18.02 16.85C18.21 17.08 17.81 17.72 17.14 18.29ZM18.3 12.23C17.73 12.38 17.08 11.81 16.86 10.96C16.63 10.11 16.91 9.29 17.48 9.14C18.05 8.99 18.7 9.56 18.92 10.41C19.15 11.26 18.87 12.08 18.3 12.23Z" fill="#282B32"/>
</svg>
