<svg width="24" height="24" viewBox="0 0 24 24" fill="none" xmlns="http://www.w3.org/2000/svg">
<path d="M9.69495 9.69231C8.42584 10.9629 8.42584 13.0238 9.69495 14.2943C10.9641 15.5649 13.0226 15.5649 14.2917 14.2943C15.1012 13.484 15.401 12.3435 15.1611 11.303L17.2896 9.17208C18.4888 11.4431 18.139 14.3344 16.2304 16.2352C13.892 18.5762 10.0947 18.5762 7.75631 16.2352C5.41795 13.9042 5.41795 10.0925 7.75631 7.75146C9.66497 5.84062 12.543 5.49047 14.8114 6.701L12.6929 8.82193C11.6436 8.58182 10.5044 8.88196 9.69495 9.69231ZM18.0191 8.44176C19.608 11.1229 19.2483 14.6445 16.9399 16.9455C14.2118 19.6867 9.78489 19.6867 7.04681 16.9455C4.31872 14.2143 4.31872 9.78235 7.04681 7.04115C9.35519 4.74014 12.8727 4.37998 15.5508 5.97068L17.3596 4.14988C13.6622 1.60876 8.56574 1.97892 5.27805 5.27037C1.57065 8.982 1.57065 15.0046 5.27805 18.7163C8.98545 22.4279 15.0012 22.4279 18.7086 18.7163C21.9863 15.4348 22.3661 10.3326 19.8279 6.63097L18.0191 8.44176ZM21.8265 3.82974L20.7572 3.61965C20.5573 3.57963 20.4074 3.42956 20.3675 3.22947L20.1576 2.159C20.1276 1.99893 19.9378 1.94891 19.8179 2.05896L18.3389 3.53961C18.0991 3.77972 17.9991 4.11986 18.0691 4.44001L18.139 4.80016L12.9727 9.98244C12.6829 9.84238 12.3531 9.76234 12.0133 9.76234C10.7742 9.76234 9.7649 10.7728 9.7649 12.0133C9.7649 13.2539 10.7742 14.2643 12.0133 14.2643C13.2525 14.2643 14.2618 13.2539 14.2618 12.0133C14.2618 11.6632 14.1818 11.343 14.0419 11.0529L19.2083 5.88064L19.568 5.95067C19.8978 6.0207 20.2376 5.91065 20.4674 5.68055L21.9464 4.1999C22.0563 4.08985 21.9763 3.85975 21.8265 3.82974Z" fill="#282B32"/>
</svg>
