<svg width="24" height="24" viewBox="0 0 24 24" fill="none" xmlns="http://www.w3.org/2000/svg">
<path d="M5.42083 17.6972C5.12075 18.0672 4.56058 18.0572 4.2805 17.6772C3.36023 16.4272 2.74005 14.9472 2.50999 13.3272C2.44997 12.8972 2.77006 12.4972 3.21019 12.4972H7.43142C7.32139 14.4572 6.58117 16.2572 5.42083 17.6972ZM4.2805 6.31724C3.36023 7.56724 2.74005 9.04723 2.50999 10.6672C2.44997 11.0972 2.77006 11.4972 3.21019 11.4972H7.43142C7.32139 9.53724 6.58117 7.73724 5.42083 6.29724C5.12075 5.92724 4.56058 5.93724 4.2805 6.31724ZM10.6724 2.50724C8.98187 2.73724 7.44142 3.40724 6.15105 4.40724C5.82095 4.66724 5.77094 5.13724 6.05102 5.45724C7.56146 7.21724 8.47172 9.50724 8.47172 11.9972C8.47172 14.4872 7.56146 16.7772 6.05102 18.5472C5.78094 18.8672 5.82095 19.3372 6.15105 19.5972C7.44142 20.5872 8.98187 21.2572 10.6724 21.4972C11.1025 21.5572 11.5026 21.2372 11.5026 20.7972V3.20724C11.5026 2.76724 11.1125 2.44724 10.6724 2.50724ZM19.725 17.6772C20.6453 16.4272 21.2654 14.9472 21.4955 13.3272C21.5555 12.8972 21.2354 12.4972 20.7953 12.4972H16.5741C16.6841 14.4572 17.4243 16.2572 18.5847 17.6972C18.8847 18.0672 19.4449 18.0572 19.725 17.6772ZM16.5741 11.4872H20.7953C21.2354 11.4872 21.5555 11.0972 21.4955 10.6572C21.2754 9.04724 20.6453 7.55723 19.725 6.30723C19.4449 5.92723 18.8847 5.91724 18.5847 6.28724C17.4243 7.72724 16.6841 9.51724 16.5741 11.4872ZM15.5438 11.9972C15.5438 9.49724 16.454 7.21724 17.9645 5.45724C18.2346 5.13724 18.1945 4.66724 17.8645 4.40724C16.5741 3.41724 15.0336 2.74724 13.3431 2.50724C12.913 2.44724 12.5129 2.76724 12.5129 3.20724V20.7972C12.5129 21.2372 12.903 21.5572 13.3431 21.4972C15.0336 21.2672 16.5741 20.5972 17.8645 19.5972C18.1945 19.3372 18.2446 18.8672 17.9645 18.5472C16.454 16.7872 15.5438 14.4972 15.5438 11.9972Z" fill="#282B32"/>
</svg>
