<svg width="24" height="24" viewBox="0 0 24 24" fill="none" xmlns="http://www.w3.org/2000/svg">
<path d="M17 3H7C4.79 3 3 4.79 3 7V17C3 19.21 4.79 21 7 21H17C19.21 21 21 19.21 21 17V7C21 4.79 19.21 3 17 3ZM17.01 7.36C17.84 7.36 18.51 8.03 18.51 8.86C18.51 9.69 17.84 10.36 17.01 10.36C16.18 10.36 15.51 9.69 15.51 8.86C15.51 8.03 16.18 7.36 17.01 7.36ZM18.82 12.84C18.77 12.92 18.69 12.96 18.6 12.96C18.56 12.96 18.52 12.95 18.48 12.93L17.04 12.1C15.57 12.34 13.8 11.47 13.68 9.78C13.17 9.75 12.32 9.74 11.85 9.75C12.19 9.93 12.88 10.42 12.88 11.17C12.88 12.08 11.06 12.76 10.19 13.17L10.71 13.47C11.07 13.68 11.19 14.14 10.98 14.49L10.84 14.74L15.91 17.67C16.11 17.79 16.35 17.82 16.57 17.76C16.8 17.7 16.98 17.56 17.1 17.35C17.17 17.23 17.32 17.19 17.44 17.26C17.56 17.33 17.6 17.48 17.53 17.6C17.35 17.92 17.05 18.14 16.7 18.24C16.58 18.27 16.46 18.29 16.34 18.29C16.1 18.29 15.87 18.23 15.66 18.11L5.25 12.1C5.13 12.03 5.09 11.88 5.16 11.76C5.23 11.64 5.38 11.6 5.5 11.67L8.24 13.25L8.38 13C8.53 12.73 8.81 12.63 9.21 12.53C9.95 12.35 11.38 11.14 11.38 11.14C10.82 10.86 9.73 10.55 9.2 10.09C8.54 9.5 8.86 8.55 9.8 8.25C9.93 8.21 10.06 8.18 10.2 8.15L6.77 6.17C6.65 6.1 6.61 5.95 6.68 5.83C6.75 5.71 6.9 5.67 7.02 5.74L10.95 8.01C11.7 7.91 12.45 7.93 13.21 8.03C14.11 8.15 14.96 8.71 15.03 9.42C15.18 10.81 16.2 11.46 17.39 11.18C17.94 11.01 18.18 11.66 17.7 11.91L18.73 12.51C18.85 12.58 18.89 12.73 18.82 12.85V12.84Z" fill="#282B32"/>
</svg>
