<svg width="24" height="24" viewBox="0 0 24 24" fill="none" xmlns="http://www.w3.org/2000/svg">
<path d="M10 6H8V4C8 3.45 8.45 3 9 3C9.55 3 10 3.45 10 4V6ZM15 3C14.45 3 14 3.45 14 4V6H16V4C16 3.45 15.55 3 15 3ZM21 7H3C2.45 7 2 7.45 2 8C2 8.66 2.11 9.32 2.32 9.95L2.66 10.98C2.86 11.59 3.44 12.01 4.08 12.01H19.92C20.57 12.01 21.14 11.6 21.34 10.98L21.68 9.95C21.89 9.32 22 8.66 22 8C22 7.45 21.55 7 21 7ZM4.81 21H7.9C8.23 21 8.5 20.73 8.5 20.4V18.5C8.5 16.57 10 15 12 15C14 15 15.5 16.57 15.5 18.5V20.4C15.5 20.73 15.77 21 16.1 21H19.19C19.56 21 19.8 20.61 19.64 20.28L17.96 16.93C17.66 16.34 17.61 15.65 17.82 15.02L18.49 13H5.5L6.17 15.02C6.38 15.65 6.33 16.34 6.03 16.93L4.35 20.28C4.18 20.61 4.43 21 4.8 21H4.81Z" fill="#282B32"/>
</svg>
