<svg width="24" height="24" viewBox="0 0 24 24" fill="none" xmlns="http://www.w3.org/2000/svg">
<path d="M21.98 9.26C21.71 8.53 17.77 6.88 15.88 5.09C13.98 3.3 12.28 3.24 12.28 3.24C12.28 3.24 12.11 2 10.9 2C8.59001 2 7.47001 3.24 7.06001 3.83C6.96001 3.98 7.01 4.19 7.18001 4.27L8.22001 4.76C8.22001 4.76 5.82001 6.64 3.90001 10.23C2.98001 11.95 2.47001 13.35 2.18001 14.7C4.30001 14.84 5.67001 16.05 7.02001 17.25C7.93001 18.05 8.81001 18.83 9.91001 19.29C9.95001 19.12 9.97001 18.95 9.97001 18.77C9.97001 18.18 9.94001 17.56 9.89001 16.98C9.64001 13.81 10.74 10.77 12.8 10.23C14.85 9.69 16.27 10.75 18.12 11.16C20 11.57 22.25 10 21.98 9.26ZM14.2 6.95C13.92 6.95 13.67 6.73 13.65 6.44C13.63 6.15 13.86 5.88 14.16 5.85C14.48 5.83 14.75 6.09 14.75 6.4C14.75 6.71 14.5 6.95 14.2 6.95ZM6.36001 18C5.06001 16.85 3.87001 15.79 2.03001 15.69C1.85001 17.61 2.62001 19.09 4.86001 19.99C5.70001 20.33 6.38001 20.61 6.94001 20.84C7.89001 21.22 8.89001 20.9 9.47001 20.19C8.25001 19.67 7.29001 18.83 6.36001 18Z" fill="#282B32"/>
</svg>
