<svg width="24" height="24" viewBox="0 0 24 24" fill="none" xmlns="http://www.w3.org/2000/svg">
<path d="M11.5 2C6.26 2 2 6.26 2 11.5C2 16.74 6.26 21 11.5 21C16.74 21 21 16.75 21 11.5C21 6.25 16.75 2 11.5 2ZM6.86 8.1C6.62 7.45 7.17 6.66 8.08 6.33C8.98 6 9.91 6.25 10.15 6.9C10.38 7.55 9.84 8.35 8.93 8.68C8.02 9.01 7.1 8.75 6.86 8.1ZM11.5 15.25C10.54 15.25 9.75 14.47 9.75 13.5C9.75 12.53 10.54 11.75 11.5 11.75C12.46 11.75 13.25 12.54 13.25 13.5C13.25 14.46 12.47 15.25 11.5 15.25ZM16.15 8.1C15.91 8.75 14.98 9.01 14.08 8.68C13.17 8.35 12.62 7.55 12.86 6.9C13.1 6.25 14.02 6 14.93 6.33C15.84 6.66 16.38 7.45 16.15 8.1Z" fill="#282B32"/>
</svg>
