<svg width="24" height="24" viewBox="0 0 24 24" fill="none" xmlns="http://www.w3.org/2000/svg">
<path d="M6.49 13.95C6.47 14.24 6.7 14.5 6.99 14.5H8.14C7.94 14.94 7.51 15.25 7 15.25C6.29 15.25 5.72 14.66 5.75 13.94C5.77 13.29 6.33 12.75 6.98 12.75C7.5 12.74 7.94 13.05 8.14 13.5H7.01C6.75 13.5 6.52 13.69 6.49 13.95ZM17 12.75C16.86 12.75 16.73 12.78 16.6 12.83L17.42 13.64C17.62 13.85 17.61 14.19 17.38 14.38C17.18 14.55 16.88 14.52 16.7 14.33L15.85 13.49C15.76 13.7 15.72 13.94 15.76 14.19C15.86 14.79 16.39 15.25 17 15.25C17.69 15.24 18.25 14.68 18.25 14C18.25 13.32 17.68 12.75 17 12.75ZM21 7V17C21 19.21 19.2 21 17 21H7C4.79 21 3 19.21 3 17V7C3 4.79 4.79 3 7 3H17C19.2 3 21 4.79 21 7ZM19.24 13.83C19.16 12.81 18.39 11.96 17.38 11.78C16.81 11.68 16.28 11.81 15.85 12.07L15.12 11.35C15.65 10.97 16.3 10.74 16.99 10.74C17.12 10.74 17.24 10.75 17.36 10.77C17.58 10.79 17.79 10.69 17.9 10.5C17.94 10.42 17.97 10.34 17.97 10.24V10.2C17.89 8.53 16.63 7.96 15.77 7.76C15.49 7.7 15.28 8.03 15.47 8.25C15.71 8.56 15.85 8.94 15.85 9.33C15.85 9.57 15.68 9.77 15.45 9.82L15.11 9.89C14.94 9.92 14.76 9.87 14.65 9.74C13.98 9.02 13.33 9.05 13.33 9.05H12.05C11.32 9.05 10.83 9.72 10.59 10.16C10.48 10.37 10.23 10.47 10 10.39L9.08 10.09C8.86 10.02 8.69 9.85 8.62 9.62L8.49 9.16C8.44 8.99 8.31 8.86 8.14 8.81L6.52 8.38C6.25 8.31 5.97 8.52 5.97 8.8C5.97 9.19 6.15 9.56 6.44 9.8L10.1 12.85C10.3 13.01 10.33 13.29 10.2 13.5H9.19C8.94 12.41 7.92 11.63 6.73 11.76C5.7 11.88 4.88 12.71 4.76 13.73C4.61 15.09 5.67 16.25 7 16.25C8.07 16.25 8.96 15.5 9.19 14.5H9.52L9.73 15.03C9.88 15.41 10.25 15.66 10.65 15.66H14.2C13.91 15.17 13.74 14.6 13.74 13.99C13.74 13.26 14 12.59 14.41 12.05L15.12 12.76C14.87 13.14 14.73 13.6 14.75 14.1C14.8 15.29 15.8 16.25 16.99 16.25C18.29 16.25 19.34 15.15 19.24 13.83Z" fill="#282B32"/>
</svg>
