<svg width="24" height="24" viewBox="0 0 24 24" fill="none" xmlns="http://www.w3.org/2000/svg">
<path d="M21.99 20.4998C21.99 20.7799 21.7701 21 21.4903 21H2.49975C2.21989 21 2 20.7699 2 20.4998V19.9995C2 19.7194 2.22989 19.4993 2.49975 19.4993C2.93953 19.4993 3.35932 19.4093 3.73913 19.2292L5.57821 18.3688C6.61769 17.8885 7.86707 17.8885 8.90655 18.3688L10.7556 19.2292C11.5352 19.5993 12.4648 19.5993 13.2344 19.2292L15.0835 18.3688C16.1229 17.8885 17.3723 17.8885 18.4118 18.3688L20.2609 19.2292C20.6307 19.4093 21.0605 19.4993 21.5002 19.4993C21.7801 19.4993 22 19.7194 22 19.9995V20.5098L21.99 20.4998ZM15.0835 8.55417L16.4928 12.8962L18.4318 13.5265L21.0905 10.415C21.2404 10.245 21.2904 10.0149 21.2404 9.79475C21.1204 9.2645 20.9405 8.74426 20.7306 8.24403C20.6407 8.03393 20.4608 7.88386 20.2509 7.83383L16.2929 6.89339L15.0935 8.54417L15.0835 8.55417ZM19.3913 6.62327C19.5712 6.66329 19.7111 6.46319 19.6012 6.31312C18.4818 4.80241 16.9025 3.62186 15.0335 2.98156C14.8536 2.92153 14.7036 3.11162 14.7936 3.2717L16.4028 5.90293L19.4013 6.62327H19.3913ZM18.3418 17.3383L18.1219 14.4869L16.1829 13.8567L12.4948 16.5379V18.4488C12.7446 18.4188 12.9945 18.3388 13.2344 18.2287L15.0835 17.3583C16.1029 16.8881 17.3123 16.8781 18.3418 17.3383ZM9.71614 7.9739H14.2739L15.4733 6.32313L13.3643 2.87151C13.2544 2.68142 13.0545 2.56136 12.8346 2.54135C12.2649 2.49133 11.7151 2.48133 11.1654 2.54135C10.9455 2.56136 10.7456 2.68142 10.6257 2.87151L8.51674 6.33313L9.71614 7.9839V7.9739ZM15.5032 13.1063L14.1639 8.97437H9.82609L8.48676 13.1063L11.995 15.6575L15.5032 13.1063ZM7.8071 13.8567L5.87806 14.4869L5.63818 17.3383C6.66767 16.8781 7.88706 16.8881 8.90655 17.3583L10.7556 18.2187C10.9855 18.3287 11.2354 18.4088 11.4953 18.4488V16.5379L7.8071 13.8567ZM9.2064 3.2717C9.30635 3.11162 9.14643 2.92153 8.96652 2.98156C7.13743 3.59185 5.51824 4.76239 4.36882 6.31312C4.25887 6.46319 4.38881 6.67329 4.57871 6.63327L7.5972 5.91293L9.2064 3.2817V3.2717ZM7.48726 12.9062L8.89655 8.56418L7.70715 6.9134L3.72914 7.87385C3.51924 7.92388 3.33933 8.07395 3.24938 8.27404C3.03948 8.76427 2.86957 9.28451 2.74963 9.81476C2.69965 10.0349 2.74963 10.255 2.89955 10.425L5.55822 13.5265L7.48726 12.9062ZM2.48976 12.0458C2.48976 14.0567 3.13943 15.9576 4.25887 17.5184C4.36882 17.6684 4.6087 17.6084 4.61869 17.4183L4.86857 14.2668L2.83958 11.9057C2.71964 11.7657 2.48976 11.8557 2.48976 12.0358V12.0458ZM19.7111 17.5084C20.8206 15.9476 21.4703 14.0467 21.4803 12.0258C21.4803 11.8357 21.2504 11.7457 21.1304 11.8957L19.0915 14.2668L19.3513 17.4083C19.3713 17.5984 19.6012 17.6584 19.7111 17.5084Z" fill="#282B32"/>
</svg>
