<svg width="24" height="24" viewBox="0 0 24 24" fill="none" xmlns="http://www.w3.org/2000/svg">
<path d="M18.5 5.5V7.5H12.5V5.5C12.5 3.84 13.84 2.5 15.5 2.5C17.16 2.5 18.5 3.84 18.5 5.5ZM19.5 8.5H12.47C12.49 8.66 12.5 8.83 12.5 9V11C14.16 11 15.5 12.34 15.5 13.99V14.5H19.5C20.61 14.5 21.5 13.6 21.5 12.5V10.5C21.5 9.39 20.61 8.5 19.5 8.5ZM20 20C20 19.45 19.55 19 19 19H12C11.45 19 11 19.45 11 20C11 20.55 11.45 21 12 21H19C19.55 21 20 20.55 20 20ZM8.5 6C6.84 6 5.5 7.34 5.5 9V11H11.5V9C11.5 7.34 10.16 6 8.5 6ZM14.5 16V14C14.5 12.9 13.6 12 12.5 12H4.5C3.4 12 2.5 12.9 2.5 14V16C2.5 17.1 3.4 18 4.5 18H12.5C13.6 18 14.5 17.1 14.5 16Z" fill="#282B32"/>
</svg>
