<svg width="24" height="24" viewBox="0 0 24 24" fill="none" xmlns="http://www.w3.org/2000/svg">
<path d="M12.15 18.8753L9.08002 20.7782C8.89002 20.8883 8.65002 20.9084 8.45002 20.8282C7.94002 20.6279 7.46002 20.3776 6.99002 20.0871C6.80002 19.977 6.68002 19.7667 6.66002 19.5463L6.34002 15.4702L8.16002 14.5388L12.09 16.5318C11.94 17.2929 11.96 18.0841 12.16 18.8753H12.15ZM12.49 19.8368L10.55 21.0386C10.39 21.1287 10.44 21.3791 10.62 21.4091C11.59 21.5493 12.59 21.5393 13.57 21.3791C13.13 20.9384 12.77 20.4276 12.49 19.8368ZM7.70002 13.6375L8.42002 9.12068L6.98002 7.67852L3.15002 9.27091C2.95002 9.35103 2.79002 9.5313 2.74002 9.74161C2.61002 10.2524 2.53002 10.7832 2.50002 11.304C2.49002 11.5243 2.58002 11.7346 2.75002 11.8748L5.89002 14.5588L7.71002 13.6274L7.70002 13.6375ZM13.68 8.71007L9.39002 9.39109L8.71002 13.6875L12.35 15.5403C12.88 14.1082 14.01 12.9164 15.55 12.3455L13.69 8.71007H13.68ZM9.12002 8.41963L13.63 7.70856L14.55 5.89585L11.89 2.75113C11.75 2.58087 11.53 2.49074 11.31 2.50075C10.78 2.5308 10.26 2.62093 9.75002 2.74111C9.53002 2.79119 9.36002 2.95143 9.27002 3.15173L7.68002 6.97747L9.12002 8.41963ZM21.4 10.6229C21.37 10.4327 21.13 10.3826 21.03 10.5428L19.82 12.5158C20.39 12.7862 20.92 13.1467 21.36 13.5974C21.53 12.6159 21.54 11.6144 21.4 10.6229ZM20.81 8.43966C20.61 7.94893 20.37 7.45819 20.07 6.9975C19.95 6.80721 19.75 6.68703 19.53 6.667L15.45 6.35654L14.52 8.15924L16.52 12.0851C17.31 11.9449 18.11 11.975 18.85 12.1753L20.74 9.06059C20.86 8.88032 20.88 8.64998 20.8 8.43966H20.81ZM18.67 5.22484C17.24 3.80271 15.44 2.92138 13.54 2.6009C13.35 2.57086 13.23 2.79119 13.35 2.9314L15.4 5.335L18.51 5.56535C18.7 5.57537 18.8 5.35503 18.66 5.22484H18.67ZM2.59002 13.5573C2.91002 15.4502 3.80002 17.2629 5.23002 18.695C5.36002 18.8252 5.59002 18.7251 5.57002 18.5448L5.33002 15.4101L2.92002 13.3671C2.78002 13.2469 2.56002 13.3671 2.59002 13.5573ZM7.64002 3.52229C5.92002 4.40361 4.45002 5.81573 3.52002 7.62844C3.43002 7.7987 3.60002 7.97897 3.77002 7.90887L6.70002 6.70706L7.91002 3.78268C7.98002 3.61242 7.80002 3.44217 7.63002 3.5323L7.64002 3.52229ZM18.36 15.7006C18.11 15.5603 17.82 15.4902 17.48 15.4902C17.14 15.4902 16.85 15.5603 16.61 15.7006C16.37 15.8408 16.19 16.031 16.06 16.2714C15.93 16.5118 15.87 16.7822 15.87 17.0926V17.1227H19.12V17.0926C19.12 16.7822 19.05 16.5118 18.92 16.2714C18.79 16.031 18.6 15.8408 18.36 15.7006ZM17.49 12.9865C15 12.9865 12.98 15.0095 12.98 17.4932C12.98 19.977 15 22 17.49 22C19.98 22 22 19.977 22 17.4932C22 15.0095 19.98 12.9865 17.49 12.9865ZM20.24 17.5834C20.24 17.6535 20.21 17.7136 20.16 17.7536C20.11 17.7937 20.04 17.8137 19.96 17.8137H15.86V17.9039C15.88 18.1843 15.95 18.4447 16.07 18.685C16.2 18.9254 16.38 19.1257 16.62 19.2759C16.86 19.4261 17.14 19.4962 17.47 19.4962C17.75 19.4962 17.99 19.4562 18.18 19.3861C18.37 19.316 18.52 19.2258 18.64 19.1357C18.76 19.0456 18.84 18.9755 18.88 18.9154C18.95 18.8353 19.01 18.7852 19.05 18.7652C19.09 18.7451 19.15 18.7351 19.24 18.7351H19.82C19.89 18.7351 19.95 18.7551 20 18.7952C20.05 18.8353 20.07 18.8853 20.07 18.9554C20.07 19.0556 20 19.1858 19.88 19.326C19.76 19.4762 19.59 19.6164 19.38 19.7566C19.16 19.8968 18.89 20.017 18.57 20.1072C18.25 20.1973 17.89 20.2474 17.49 20.2474C16.67 20.2474 16.02 20.027 15.54 19.5964C15.06 19.1657 14.79 18.5749 14.75 17.8237C14.75 17.7336 14.74 17.6234 14.74 17.4832C14.74 17.343 14.74 17.2329 14.75 17.1427C14.78 16.662 14.91 16.2313 15.14 15.8708C15.37 15.5103 15.68 15.2298 16.08 15.0295C16.48 14.8292 16.95 14.7291 17.48 14.7291C18.08 14.7291 18.58 14.8393 18.99 15.0596C19.4 15.2799 19.71 15.5904 19.92 15.991C20.13 16.3916 20.24 16.8623 20.24 17.4031V17.5734V17.5834Z" fill="#282B32"/>
</svg>
