<svg width="24" height="24" viewBox="0 0 24 24" fill="none" xmlns="http://www.w3.org/2000/svg">
<path d="M12 2.5C6.76 2.5 2.5 6.76 2.5 12C2.5 17.24 6.76 21.5 12 21.5C17.24 21.5 21.5 17.25 21.5 12C21.5 6.75 17.25 2.5 12 2.5ZM7.92 12.65L7.1 14.29C6.87 14.72 6.43 15 5.93 15H5L7.48 9.75C7.7 9.29 8.16 9 8.66 9H13L12.26 10.49H8.97L8.62 11.16H11.97L11.53 11.97C11.3 12.39 10.86 12.65 10.38 12.65H7.92ZM17.89 11.89C17.68 12.35 17.22 12.64 16.71 12.64H13.48L13.15 13.32H17.2L16.77 14.25C16.56 14.71 16.1 15 15.59 15H10.66L12.2 11.89C12.42 11.44 12.87 11.16 13.37 11.16H16.57L16.89 10.49H12.9L13.28 9.72C13.5 9.28 13.95 9 14.44 9H18.6C18.89 9 19.09 9.30999 18.96 9.57999L17.89 11.89Z" fill="#282B32"/>
</svg>
