<svg width="24" height="24" viewBox="0 0 24 24" fill="none" xmlns="http://www.w3.org/2000/svg">
<path d="M2.5 6V3.95C2.5 3.15 3.15 2.5 3.95 2.5H6C6.28 2.5 6.5 2.72 6.5 3C6.5 3.28 6.28 3.5 6 3.5H3.95C3.71 3.5 3.5 3.71 3.5 3.95V6C3.5 6.28 3.28 6.5 3 6.5C2.72 6.5 2.5 6.28 2.5 6ZM21 17.5C20.72 17.5 20.5 17.72 20.5 18V20.05C20.5 20.3 20.3 20.5 20.05 20.5H18C17.72 20.5 17.5 20.72 17.5 21C17.5 21.28 17.72 21.5 18 21.5H20.05C20.85 21.5 21.5 20.85 21.5 20.05V18C21.5 17.72 21.28 17.5 21 17.5ZM6 20.5H3.95C3.7 20.5 3.5 20.3 3.5 20.05V18C3.5 17.72 3.28 17.5 3 17.5C2.72 17.5 2.5 17.72 2.5 18V20.05C2.5 20.85 3.15 21.5 3.95 21.5H6C6.28 21.5 6.5 21.28 6.5 21C6.5 20.72 6.28 20.5 6 20.5ZM18 3.5H20.05C20.3 3.5 20.5 3.7 20.5 3.95V6C20.5 6.28 20.72 6.5 21 6.5C21.28 6.5 21.5 6.28 21.5 6V3.95C21.5 3.15 20.85 2.5 20.05 2.5H18C17.72 2.5 17.5 2.72 17.5 3C17.5 3.28 17.72 3.5 18 3.5ZM22 12C22 12.28 21.78 12.5 21.5 12.5H19.98C19.86 14.38 19.1 16.22 17.66 17.66C16.22 19.09 14.38 19.86 12.5 19.98V21.5C12.5 21.78 12.28 22 12 22C11.72 22 11.5 21.78 11.5 21.5V19.98C9.62 19.86 7.78 19.1 6.34 17.66C4.91 16.22 4.14 14.38 4.02 12.5H2.5C2.23 12.5 2 12.28 2 12C2 11.72 2.23 11.5 2.5 11.5H4.02C4.14 9.62 4.9 7.78 6.34 6.34C7.78 4.91 9.62 4.14 11.5 4.02V2.5C11.5 2.23 11.73 2 12 2C12.27 2 12.5 2.23 12.5 2.5V4.02C14.38 4.14 16.22 4.9 17.66 6.34C19.09 7.78 19.86 9.62 19.98 11.5H21.5C21.78 11.5 22 11.73 22 12ZM17.75 12C17.75 8.83 15.18 6.25 12 6.25C8.82 6.25 6.25 8.83 6.25 12C6.25 15.17 8.83 17.75 12 17.75C15.17 17.75 17.75 15.18 17.75 12ZM16.75 12C16.75 14.62 14.62 16.75 12 16.75C9.38 16.75 7.25 14.62 7.25 12C7.25 9.38 9.38 7.25 12 7.25C14.62 7.25 16.75 9.38 16.75 12ZM14.57 12C14.57 10.58 13.42 9.44 12 9.44C10.58 9.44 9.44 10.58 9.44 12C9.44 13.42 10.58 14.57 12 14.57C13.42 14.57 14.57 13.42 14.57 12ZM12 10.5C11.17 10.5 10.5 11.17 10.5 12C10.5 12.83 11.17 13.5 12 13.5C12.83 13.5 13.5 12.83 13.5 12C13.5 11.17 12.83 10.5 12 10.5Z" fill="#282B32"/>
</svg>
