<svg width="24" height="24" viewBox="0 0 24 24" fill="none" xmlns="http://www.w3.org/2000/svg">
<path d="M17.4864 12.35C17.4864 15.2 16.887 18.06 15.708 20.02C15.2984 20.71 14.5891 21.18 13.7998 21.33C13.2103 21.44 12.6108 21.5 11.9914 21.5C11.372 21.5 10.7725 21.44 10.183 21.33C9.39376 21.18 8.69439 20.71 8.27477 20.02C7.09584 18.06 6.49638 15.2 6.49638 12.35C6.49638 7.38 10.7026 6.99 11.9914 6.99C13.2802 6.99 17.4864 7.38 17.4864 12.35ZM13.0504 2.56C7.32563 1.94 2.5 6.4 2.5 12C2.5 15.27 4.14851 18.15 6.66623 19.87C6.83607 19.99 7.04588 19.81 6.96596 19.62C6.00682 17.58 5.50728 14.96 5.50728 12.35C5.50728 7.66 8.86424 5.99 12.0014 5.99C15.1386 5.99 18.4955 7.66 18.4955 12.35C18.4955 14.96 17.996 17.57 17.0368 19.61C16.9469 19.79 17.1567 19.98 17.3266 19.87C20.0841 17.98 21.8125 14.69 21.4528 11.03C21.0132 6.63 17.4565 3.03 13.0604 2.56H13.0504Z" fill="#282B32"/>
</svg>
