<svg width="24" height="24" viewBox="0 0 24 24" fill="none" xmlns="http://www.w3.org/2000/svg">
<path d="M17 3H7C4.79 3 3 4.79 3 7V17C3 19.21 4.79 21 7 21H17C19.21 21 21 19.21 21 17V7C21 4.79 19.21 3 17 3ZM10.65 6.8C11.12 6.24 11.96 6.16 12.52 6.64C13.08 7.11 13.16 7.95 12.68 8.51C12.21 9.07 11.37 9.15 10.81 8.67C10.25 8.19 10.17 7.36 10.65 6.8ZM13.34 17.18C12.87 17.74 12.03 17.82 11.47 17.34C10.91 16.86 10.83 16.03 11.31 15.47C11.78 14.91 12.62 14.83 13.18 15.31C13.74 15.79 13.82 16.62 13.34 17.18ZM19.07 6.88C18.66 8.03 17.47 10.03 17.35 11.46C17.4 11.58 17.45 11.71 17.48 11.85C17.62 12.47 17.42 13.14 17.13 13.58C16.52 14.46 14.44 15.98 13.47 14.89C12.72 14.05 10.06 10.31 10.06 10.31L8.41 11.77C9.17 13.25 10.09 15.05 9.56 16.84C9.81 16.91 9.99 17.13 9.99 17.4C9.99 17.73 9.72 17.99 9.4 17.99H9C8.67 17.99 8.41 17.72 8.41 17.4C8.41 17.27 8.52 16.98 8.52 16.94C8.59 16.37 8.46 15.68 8.2 15.06C8.1 14.77 7.96 14.52 7.81 14.3C7.35 15.21 6.72 16.03 6.1 16.87H6.11C6.4 17.02 6.53 17.38 6.38 17.67C6.24 17.96 5.88 18.09 5.58 17.94L5.22 17.76C4.97 17.64 4.82 17.35 4.91 17.09C5.33 15.94 6.51 13.93 6.63 12.5C6.58 12.38 6.53 12.25 6.5 12.11C6.36 11.49 6.56 10.82 6.85 10.38C7.46 9.5 9.59 7.98 10.51 9.07C11.24 9.93 13.92 13.65 13.92 13.65L15.57 12.19C14.81 10.72 13.89 8.92 14.42 7.13C14.17 7.06 13.99 6.84 13.99 6.57C13.99 6.24 14.26 5.98 14.58 5.98H14.98C15.31 5.98 15.57 6.25 15.57 6.57C15.57 6.7 15.47 6.98 15.46 7.02C15.39 7.59 15.52 8.28 15.78 8.9C15.89 9.19 16.02 9.44 16.17 9.66C16.63 8.75 17.26 7.93 17.88 7.1C17.59 6.95 17.46 6.6 17.61 6.3C17.75 6.01 18.11 5.88 18.41 6.03L18.77 6.21C19.02 6.33 19.16 6.63 19.07 6.88Z" fill="#282B32"/>
</svg>
