<svg width="24" height="24" viewBox="0 0 24 24" fill="none" xmlns="http://www.w3.org/2000/svg">
<path d="M21.2527 12.7941C20.4727 11.6236 19.0127 10.303 16.6527 9.42267C16.4827 8.01208 15.1827 6.43143 14.4327 5.61109C14.1027 5.27095 13.7027 5.01084 13.2627 4.84077C10.2427 3.77032 7.55273 3.2401 6.12273 3.02001C5.48273 2.90997 4.84273 3.21009 4.47273 3.76032L2.73273 6.47144C2.41273 6.97165 2.42273 7.63193 2.76273 8.12213L3.46273 9.12254C3.64273 9.39266 4.02273 9.40266 4.24273 9.17256C5.03273 8.31221 6.29273 7.98207 7.45273 8.40224C9.00273 8.96248 9.81273 10.7032 9.24273 12.2739C9.19273 12.4139 9.13273 12.544 9.06273 12.664C8.92273 12.9341 9.05273 13.2643 9.33273 13.3643L13.1627 14.7649C13.4427 14.8649 13.7627 14.7049 13.8227 14.4047C13.8527 14.2647 13.8927 14.1246 13.9427 13.9846C14.5127 12.4139 16.2327 11.6036 17.7827 12.1838C19.3427 12.744 20.1427 14.4948 19.5827 16.0554C19.5527 16.1355 19.5227 16.2355 19.4927 16.3355C19.3627 16.7957 19.8927 17.1759 20.2727 16.8858C20.4227 16.7657 20.5427 16.6056 20.6127 16.4156L21.4027 14.1746C21.5627 13.7144 21.5227 13.1942 21.2527 12.7841V12.7941ZM14.6627 8.80241C13.8027 8.48228 11.9727 7.802 10.1727 7.13172C9.87273 7.02167 9.75273 6.67153 9.91273 6.40141L10.4227 5.58107C10.5827 5.32097 10.8927 5.19091 11.1827 5.27095C11.7627 5.42101 12.3727 5.60108 13.0127 5.82117C13.3027 5.93122 13.5627 6.11129 13.7727 6.35139C14.1627 6.79158 14.7827 7.60191 15.0527 8.41225C15.1327 8.65235 14.8927 8.87244 14.6627 8.79241V8.80241ZM18.0227 13.4743C18.8627 14.1846 18.9727 15.4452 18.2627 16.2955C17.5527 17.1459 16.3027 17.2559 15.4627 16.5456C14.6227 15.8353 14.5127 14.5748 15.2227 13.7245C15.9327 12.8741 17.1827 12.7641 18.0227 13.4743ZM7.71273 9.69278C8.55273 10.4031 8.66273 11.6636 7.95273 12.514C7.24273 13.3643 5.99273 13.4743 5.15273 12.7641C4.31273 12.0538 4.20273 10.7932 4.91273 9.94288C5.62273 9.09253 6.87273 8.98248 7.71273 9.69278ZM3.00273 18.0162C3.00273 17.466 3.00273 16.7257 3.00273 16.1054C3.00273 15.1851 3.61273 14.3747 4.48273 14.1446C5.35273 13.9145 6.22273 13.9545 6.87273 14.1646C9.36273 14.975 8.82273 16.1154 11.1927 16.1154C14.2027 16.1154 16.1127 18.9066 20.4827 18.9366C20.7627 18.9366 20.9927 19.1567 20.9927 19.4368V20.4873C20.9927 20.7674 20.7727 20.9975 20.4927 20.9975H3.49273C3.21273 20.9975 2.99273 20.7674 2.99273 20.4873V18.0062L3.00273 18.0162Z" fill="#282B32"/>
</svg>
