<svg width="24" height="24" viewBox="0 0 24 24" fill="none" xmlns="http://www.w3.org/2000/svg">
<path d="M18.8 3H8.42999C6.98999 3 5.72999 3.96 5.34999 5.34L2.11999 16.94C1.54999 18.98 3.08999 21 5.19999 21H13.25C12.47 20.05 12 18.83 12 17.5C12 17.09 12.04 16.7 12.13 16.32H10.77L13.18 7.68H14.77L12.88 14.52C13.22 13.98 13.66 13.51 14.17 13.13L15.69 7.68H19L17.79 12.02C18.7 12.06 19.55 12.33 20.29 12.77L21.88 7.06C22.45 5.02 20.92 3 18.8 3ZM4.99999 16.32L7.39999 7.68H8.38999L5.99999 16.32H4.99999ZM6.63999 16.32L9.03999 7.68H10.02L7.62999 16.32H6.63999ZM10.14 16.32H8.52999L10.93 7.68H12.52L10.14 16.32ZM18.93 16.27C19.06 16.51 19.12 16.78 19.12 17.08V17.11H15.88V17.08C15.88 16.77 15.94 16.5 16.07 16.27C16.2 16.03 16.38 15.84 16.62 15.7C16.86 15.56 17.15 15.49 17.49 15.49C17.83 15.49 18.12 15.56 18.37 15.7C18.61 15.84 18.8 16.03 18.93 16.27ZM22 17.5C22 19.99 19.99 22 17.5 22C15.01 22 13 19.99 13 17.5C13 15.01 15.02 13 17.5 13C19.98 13 22 15.01 22 17.5ZM20.24 17.42C20.24 16.88 20.14 16.41 19.93 16C19.72 15.59 19.41 15.29 19 15.07C18.59 14.85 18.09 14.74 17.49 14.74C16.95 14.74 16.49 14.84 16.09 15.04C15.69 15.24 15.38 15.52 15.15 15.88C14.92 16.24 14.79 16.67 14.76 17.15C14.76 17.24 14.75 17.35 14.75 17.49C14.75 17.63 14.75 17.74 14.76 17.83C14.81 18.58 15.07 19.17 15.55 19.6C16.03 20.03 16.68 20.25 17.5 20.25C17.9 20.25 18.26 20.2 18.58 20.11C18.9 20.02 19.17 19.9 19.38 19.76C19.6 19.62 19.76 19.47 19.88 19.33C20 19.18 20.06 19.06 20.07 18.96C20.07 18.89 20.06 18.84 20.01 18.8C19.96 18.76 19.9 18.74 19.83 18.74H19.25C19.16 18.74 19.1 18.74 19.06 18.77C19.02 18.79 18.97 18.84 18.89 18.92C18.85 18.97 18.77 19.05 18.65 19.14C18.53 19.23 18.38 19.31 18.19 19.39C18 19.47 17.76 19.5 17.48 19.5C17.16 19.5 16.88 19.43 16.63 19.28C16.39 19.13 16.21 18.94 16.08 18.69C15.95 18.45 15.88 18.19 15.87 17.91V17.82H19.96C20.04 17.82 20.1 17.8 20.16 17.76C20.22 17.72 20.24 17.66 20.24 17.59V17.42Z" fill="#282B32"/>
</svg>
