<svg width="24" height="24" viewBox="0 0 24 24" fill="none" xmlns="http://www.w3.org/2000/svg">
<path d="M17 3H7C4.79 3 3 4.79 3 7V17C3 19.21 4.79 21 7 21H17C19.21 21 21 19.21 21 17V7C21 4.79 19.21 3 17 3ZM16.29 18.31C16.11 18.63 15.81 18.85 15.45 18.95C15.33 18.98 15.21 19 15.09 19C14.85 19 14.62 18.94 14.4 18.82L7.22 14.69C7.1 14.62 7.06 14.47 7.13 14.35C7.2 14.23 7.35 14.19 7.47 14.26L11.21 16.41C11.09 16.03 11.13 15.6 11.4 15.28C11.86 14.82 12.23 14.73 12.68 14.42C12.68 14.42 12.7 14.41 12.71 14.4C10.31 13.23 8.11 11.52 6.88 9.2C6.74 9.56 6.34 9.75 5.97 9.61C5.6 9.48 5.41 9.07 5.54 8.71L6.03 7.39C6.16 7.03 6.57 6.84 6.94 6.97C7.27 7.09 7.32 7.43 7.38 7.76C7.57 8.76 9.3 10.13 10.67 11.02C10.13 9.89 9.74 8.9 9.58 7.66C9.41 7.74 9.21 7.76 9.02 7.69C8.65 7.56 8.46 7.15 8.59 6.79L9.08 5.47C9.21 5.11 9.62 4.92 9.99 5.05C10.27 5.15 10.45 5.41 10.46 5.69C10.48 7.06 11.99 11.5 14.47 13.03C15.26 13.4 15.11 14.34 14.56 14.77C13.99 15.21 12.48 16.04 12.48 16.04L13.8 16.79C14.3 17.07 14.16 17.66 13.8 17.89L14.65 18.38C14.85 18.5 15.09 18.53 15.31 18.47C15.54 18.41 15.72 18.26 15.84 18.06C15.91 17.94 16.06 17.9 16.18 17.97C16.3 18.04 16.36 18.19 16.29 18.31ZM17 16.5C16.17 16.5 15.5 15.83 15.5 15C15.5 14.17 16.17 13.5 17 13.5C17.83 13.5 18.5 14.17 18.5 15C18.5 15.83 17.83 16.5 17 16.5Z" fill="#282B32"/>
</svg>
