<svg width="24" height="24" viewBox="0 0 24 24" fill="none" xmlns="http://www.w3.org/2000/svg">
<path d="M20.3647 8.5L17.4822 3.5C16.9417 2.57 15.9509 2 14.89 2H9.12504C8.05412 2 7.07328 2.57 6.53281 3.5L3.65034 8.5C3.11989 9.43 3.11989 10.57 3.65034 11.5L6.53281 16.5C7.07328 17.43 8.06413 18 9.12504 18H9.75558L10.3761 11.35C10.3861 11.24 10.3561 11.13 10.296 11.04C10.0458 10.63 9.93573 10.12 10.0458 9.6C10.196 8.83 10.8365 8.19 11.6072 8.04C12.8883 7.79 13.9992 8.77 13.9992 10C13.9992 10.38 13.8991 10.74 13.709 11.04C13.6489 11.13 13.6189 11.24 13.6289 11.34L14.2494 17.99H14.88C15.9509 17.99 16.9317 17.42 17.4722 16.49L20.3547 11.49C20.8851 10.56 20.8851 9.42 20.3547 8.49L20.3647 8.5ZM7.50365 13.5C6.68294 13.5 6.00236 12.83 6.00236 12C6.00236 11.17 6.68294 10.5 7.50365 10.5C8.32435 10.5 9.00493 11.17 9.00493 12C9.00493 12.83 8.33436 13.5 7.50365 13.5ZM9.49535 7C8.67465 7 7.99407 6.33 7.99407 5.5C7.99407 4.67 8.67465 4 9.49535 4C10.3161 4 10.9966 4.67 10.9966 5.5C10.9966 6.33 10.3261 7 9.49535 7ZM13.9892 6.5C13.9892 5.67 14.6698 5 15.4905 5C16.3112 5 16.9918 5.67 16.9918 6.5C16.9918 7.33 16.3212 8 15.4905 8C14.6598 8 13.9892 7.33 13.9892 6.5ZM16.4813 12C15.6606 12 14.9801 11.33 14.9801 10.5C14.9801 9.67 15.6606 9 16.4813 9C17.302 9 17.9826 9.67 17.9826 10.5C17.9826 11.33 17.3121 12 16.4813 12ZM19.9843 20C19.9843 20.55 19.534 21 18.9835 21H5.02152C4.47105 21 4.02066 20.55 4.02066 20C4.02066 19.45 4.47105 19 5.02152 19H10.6664L11.407 11.03C11.417 10.89 11.3569 10.75 11.2569 10.65C11.1067 10.48 11.0066 10.26 11.0066 10.01C11.0066 9.46 11.457 9.01 12.0075 9.01C12.558 9.01 13.0084 9.46 13.0084 10.01C13.0084 10.26 12.9083 10.48 12.7581 10.65C12.6581 10.76 12.598 10.89 12.608 11.03L13.3487 19H18.9935C19.544 19 19.9944 19.45 19.9944 20H19.9843Z" fill="#282B32"/>
</svg>
