<svg width="24" height="24" viewBox="0 0 24 24" fill="none" xmlns="http://www.w3.org/2000/svg">
<path d="M17 3H7C4.79 3 3 4.79 3 7V17C3 19.21 4.79 21 7 21H17C19.21 21 21 19.21 21 17V7C21 4.79 19.21 3 17 3ZM14.91 5.52C15.74 5.52 16.41 6.19 16.41 7.02C16.41 7.85 15.74 8.52 14.91 8.52C14.08 8.52 13.41 7.85 13.41 7.02C13.41 6.19 14.08 5.52 14.91 5.52ZM15.02 18.27C15.02 18.41 14.91 18.52 14.77 18.52H12.25C12.11 18.52 12 18.41 12 18.27C12 18.13 12.11 18.02 12.25 18.02H14.77C14.91 18.02 15.02 18.13 15.02 18.27ZM17.87 9C16.95 9.95 15.81 10.41 14.68 10.44C14.08 10.97 13.44 11.38 12.78 11.66C13.84 12.89 14.21 14.67 13.71 16.2H14.26C14.68 16.2 15.01 16.54 15.01 16.95C15.01 17.36 14.67 17.7 14.26 17.7H12.75C12.33 17.7 12 17.36 12 16.95C12 16.81 12.04 16.69 12.1 16.58C12.49 15.93 12.84 15.23 12.72 14.48C12.69 14.33 12.66 14.18 12.61 14.03C12.36 13.19 11.76 12.5 11.01 12.09C9.39 12.2 7.84 11.51 6.8 9.93C6.51 9.52 5.98 8.17 6.08 7.38L5.72 7.02C5.43 6.73 5.43 6.25 5.72 5.96C6.01 5.67 6.49 5.67 6.79 5.96L7.86 7.02C8.15 7.31 8.15 7.79 7.86 8.08C7.77 8.17 7.67 8.23 7.56 8.26C7.45 8.3 7.39 8.43 7.44 8.53C7.55 8.77 7.69 8.99 7.86 9.19C8.59 10.09 9.79 10.61 10.92 10.39C11.39 10.26 11.87 10.03 12.31 9.75C11.84 9.44 11.39 9.04 11.03 8.52C10.53 7.92 10.07 7.31 9.64 6.67C9.5 6.46 9.52 6.18 9.7 6.01C9.91 5.82 10.22 5.84 10.41 6.03C11.41 6.98 12.36 8.37 13.52 9.01C14.6 9.5 16.24 9.07 17.16 8.29C17.61 7.86 18.31 8.55 17.87 9Z" fill="#282B32"/>
</svg>
