<svg width="24" height="24" viewBox="0 0 24 24" fill="none" xmlns="http://www.w3.org/2000/svg">
<path d="M12 17.5C12 18.84 12.47 20.07 13.27 21.02C11.08 21.8 9.02999 21.65 7.78999 20.41L6.33999 18.97C6.08999 18.72 6.26999 18.3 6.61999 18.29C8.32999 18.27 10.26 17.61 12.11 16.38C12.04 16.74 12 17.12 12 17.5ZM20.41 7.79001L18.97 6.35001C18.72 6.09001 18.3 6.27001 18.29 6.62001C18.27 8.33001 17.61 10.26 16.39 12.11C16.75 12.04 17.12 12 17.5 12C18.84 12 20.06 12.48 21.02 13.28C21.8 11.09 21.65 9.03001 20.41 7.79001ZM13.75 13.75C10.26 17.23 5.71999 18.33 3.58999 16.2C1.45999 14.07 2.55999 9.53001 6.03999 6.04001C9.52999 2.56001 14.07 1.46001 16.2 3.59001C18.33 5.72001 17.23 10.27 13.75 13.75ZM18.37 15.7C18.13 15.56 17.83 15.49 17.49 15.49C17.15 15.49 16.86 15.56 16.62 15.7C16.38 15.84 16.2 16.03 16.07 16.27C15.94 16.51 15.88 16.78 15.88 17.08V17.11H19.12V17.08C19.12 16.77 19.06 16.5 18.93 16.27C18.8 16.03 18.61 15.84 18.37 15.7ZM17.5 13C15.02 13 13 15.01 13 17.5C13 19.99 15.02 22 17.5 22C19.98 22 22 19.99 22 17.5C22 15.01 19.99 13 17.5 13ZM20.25 17.58C20.25 17.65 20.22 17.71 20.17 17.75C20.12 17.79 20.05 17.81 19.97 17.81H15.88V17.9C15.9 18.18 15.97 18.44 16.09 18.68C16.22 18.92 16.4 19.12 16.64 19.27C16.88 19.42 17.16 19.49 17.49 19.49C17.77 19.49 18.01 19.45 18.2 19.38C18.39 19.31 18.54 19.22 18.66 19.13C18.78 19.04 18.86 18.97 18.9 18.91C18.97 18.83 19.03 18.78 19.07 18.76C19.11 18.74 19.17 18.73 19.26 18.73H19.84C19.91 18.73 19.97 18.75 20.02 18.79C20.07 18.83 20.09 18.88 20.08 18.95C20.08 19.05 20.01 19.18 19.89 19.32C19.77 19.47 19.6 19.61 19.39 19.75C19.17 19.89 18.91 20.01 18.59 20.1C18.27 20.19 17.91 20.24 17.51 20.24C16.69 20.24 16.04 20.02 15.56 19.59C15.08 19.16 14.81 18.57 14.77 17.82C14.77 17.73 14.76 17.62 14.76 17.48C14.76 17.34 14.76 17.23 14.77 17.14C14.8 16.66 14.93 16.24 15.16 15.87C15.39 15.51 15.7 15.23 16.1 15.03C16.5 14.83 16.97 14.73 17.5 14.73C18.1 14.73 18.6 14.84 19.01 15.06C19.42 15.28 19.73 15.59 19.94 15.99C20.15 16.39 20.26 16.86 20.26 17.4L20.25 17.58Z" fill="#282B32"/>
</svg>
