<svg width="24" height="24" viewBox="0 0 24 24" fill="none" xmlns="http://www.w3.org/2000/svg">
<path d="M20.9899 14.5H12.4853V13.5H19.9994C20.3996 13.5 20.6197 13.04 20.3696 12.73L12.4853 2.99V2.5C12.4853 2.23 12.2651 2 11.985 2C11.7048 2 11.4847 2.23 11.4847 2.5V14.5H2.98009C2.56987 14.5 2.33974 14.97 2.57988 15.3L4.0907 17.31C4.33083 17.28 4.55095 17.2 4.77107 17.09L6.36193 16.23C7.30244 15.73 8.42305 15.73 9.36357 16.23L10.9644 17.09C11.6048 17.44 12.3652 17.44 13.0156 17.09L14.6064 16.23C15.5469 15.73 16.6675 15.73 17.6081 16.23L19.1989 17.09C19.409 17.2 19.6392 17.28 19.8793 17.31L21.3901 15.3C21.6402 14.97 21.4101 14.5 20.9899 14.5ZM3.82055 12.73C3.65046 13.09 3.9206 13.5 4.31082 13.5H10.4842V5C6.94225 6.58 4.641 10.94 3.82055 12.73ZM20.2295 21.5C19.7092 21.5 19.1989 21.37 18.7287 21.12L17.1378 20.26C16.4974 19.91 15.727 19.91 15.0867 20.26L13.4958 21.12C12.5553 21.63 11.4347 21.63 10.4942 21.12L8.90332 20.26C8.26297 19.91 7.49255 19.91 6.8522 20.26L5.26133 21.12C4.32082 21.63 3.20021 21.63 2.2597 21.12C2.01957 20.99 1.92952 20.69 2.05959 20.44C2.18966 20.2 2.48983 20.11 2.73996 20.24C3.38031 20.59 4.15073 20.59 4.79108 20.24L6.38194 19.38C7.32246 18.87 8.44306 18.87 9.38358 19.38L10.9744 20.24C11.6148 20.59 12.3852 20.59 13.0256 20.24L14.6164 19.38C15.5569 18.87 16.6775 18.87 17.6181 19.38L19.2089 20.24C19.8493 20.59 20.6197 20.59 21.26 20.24C21.5002 20.11 21.8103 20.2 21.9404 20.44C22.0705 20.68 21.9804 20.99 21.7403 21.12C21.27 21.37 20.7598 21.5 20.2395 21.5H20.2295ZM20.2295 19.5C19.7092 19.5 19.1989 19.37 18.7287 19.12L17.1378 18.26C16.4974 17.91 15.727 17.91 15.0867 18.26L13.4958 19.12C12.5553 19.63 11.4347 19.63 10.4942 19.12L8.90332 18.26C8.26297 17.91 7.49255 17.91 6.8522 18.26L5.26133 19.12C4.32082 19.63 3.20021 19.63 2.2597 19.12C2.01957 18.99 1.92952 18.69 2.05959 18.44C2.18966 18.2 2.48983 18.11 2.73996 18.24C3.38031 18.59 4.15073 18.59 4.79108 18.24L6.38194 17.38C7.32246 16.87 8.44306 16.87 9.38358 17.38L10.9744 18.24C11.6148 18.59 12.3852 18.59 13.0256 18.24L14.6164 17.38C15.5569 16.87 16.6775 16.87 17.6181 17.38L19.2089 18.24C19.8493 18.59 20.6197 18.59 21.26 18.24C21.5002 18.11 21.8103 18.2 21.9404 18.44C22.0705 18.68 21.9804 18.99 21.7403 19.12C21.27 19.37 20.7598 19.5 20.2395 19.5H20.2295Z" fill="#282B32"/>
</svg>
