<svg width="24" height="24" viewBox="0 0 24 24" fill="none" xmlns="http://www.w3.org/2000/svg">
<path d="M14.4137 10.6347L15.613 11.815L14.3037 13.1053L13.1044 11.925L14.4137 10.6347ZM9.60633 10.6347L8.407 11.815L9.71627 13.1053L10.9156 11.925L9.60633 10.6347ZM10.8057 14.1755L12.005 15.3558L13.2043 14.1755L12.005 12.9952L10.8057 14.1755ZM21 8.67417V15.3258C21 16.3761 20.4603 17.3463 19.5708 17.8865L13.5741 21.5574C12.6147 22.1475 11.4053 22.1475 10.4359 21.5574L4.4392 17.8865C3.54969 17.3363 3 16.3661 3 15.3258V8.67417C3 7.62391 3.5397 6.65366 4.4392 6.11353L10.4359 2.44261C11.3953 1.85246 12.6047 1.85246 13.5741 2.44261L19.5708 6.11353C20.4603 6.66367 21 7.63391 21 8.67417ZM19.0011 8.50413L16.7024 10.7547L14.4137 8.50413L12.015 10.8647L9.60633 8.50413L7.30761 10.7547L5.00888 8.50413V10.6447L12.005 17.5064L19.0011 10.6447V8.50413Z" fill="#282B32"/>
</svg>
