<svg width="24" height="24" viewBox="0 0 24 24" fill="none" xmlns="http://www.w3.org/2000/svg">
<path d="M21.5 19.49C21.05 19.49 20.63 19.4 20.26 19.22L18.41 18.36C17.37 17.88 16.12 17.88 15.08 18.36L13.23 19.22C12.46 19.59 11.53 19.59 10.75 19.22L8.9 18.36C7.86 17.88 6.62 17.88 5.58 18.36L3.74 19.22C3.36 19.4 2.94 19.49 2.5 19.49C2.22 19.49 2 19.72 2 19.99V20.5C2 20.77 2.22 21 2.5 21H21.5C21.77 21 22 20.78 22 20.5V19.99C22 19.72 21.78 19.49 21.5 19.49ZM15.32 3.1C13.21 2.32 10.84 2.29 8.68 3.11C8.44 3.2 8.41 3.52 8.63 3.65L10.31 4.59H13.68L15.37 3.64C15.59 3.52 15.56 3.19 15.32 3.1ZM8.69 8.74L5.88 10.37V13.64L8.69 15.27L11.5 13.64V10.37L8.69 8.74ZM8.3 16.2L5.38 14.5L3.83 15.4C3.51 15.58 3.39 15.99 3.55 16.32C3.83 16.87 4.15 17.38 4.52 17.85L5.58 17.36C6.61 16.89 7.83 16.88 8.86 17.34L8.3 16.2ZM13.5 5.59H10.5L9.34 7.96L12 9.5L14.66 7.96L13.5 5.59ZM7.41 4.1C7.18 3.97 6.9 3.98 6.68 4.13C5.33 5.03 4.26 6.27 3.55 7.68C3.39 8.01 3.51 8.41 3.83 8.6L5.39 9.5L8.3 7.8L9.53 5.29L7.41 4.1ZM15.31 8.74L12.5 10.37V13.64L15.31 15.27L18.12 13.64V10.37L15.31 8.74ZM3.48 9.56C3.19 9.39 2.82 9.54 2.74 9.87C2.43 11.24 2.41 12.69 2.74 14.12C2.82 14.45 3.19 14.61 3.48 14.44L4.88 13.63V10.37L3.48 9.56ZM20.45 7.68C19.71 6.2 18.61 5.01 17.31 4.13C17.09 3.98 16.81 3.97 16.58 4.1L14.47 5.29L15.69 7.8L18.62 9.5L20.18 8.6C20.5 8.41 20.62 8.01 20.45 7.68ZM21.25 9.86C21.18 9.53 20.8 9.38 20.51 9.54L19.12 10.36V13.64L20.52 14.44C20.81 14.61 21.18 14.45 21.25 14.13C21.58 12.76 21.59 11.3 21.25 9.86ZM20.18 15.41L18.62 14.5L15.69 16.2L15.14 17.34C16.17 16.88 17.39 16.89 18.41 17.36L19.47 17.85C19.85 17.37 20.17 16.86 20.45 16.32C20.62 16 20.49 15.59 20.18 15.41ZM12 14.5L9.34 16.05L10.3 18.01C11.44 18.66 12.5 18.65 13.71 18L14.66 16.05L12 14.5Z" fill="#282B32"/>
</svg>
