<svg width="24" height="24" viewBox="0 0 24 24" fill="none" xmlns="http://www.w3.org/2000/svg">
<path d="M17 3H7C4.79 3 3 4.79 3 7V17C3 19.21 4.79 21 7 21H17C19.21 21 21 19.21 21 17V7C21 4.79 19.21 3 17 3ZM6 7.5C6 6.67 6.67 6 7.5 6C8.33 6 9 6.67 9 7.5C9 8.33 8.33 9 7.5 9C6.67 9 6 8.33 6 7.5ZM15.06 16.89C14.89 16.96 14.71 17 14.53 17C14.29 17 14.05 16.94 13.84 16.81L7.33 13.05C7.21 12.98 7.17 12.83 7.24 12.71C7.31 12.59 7.46 12.55 7.58 12.62L14.09 16.38C14.33 16.52 14.61 16.54 14.87 16.43C15 16.37 15.15 16.43 15.2 16.56C15.25 16.69 15.2 16.84 15.06 16.89ZM17.27 16.68L7.46 11.6C6.25 10.94 7.28 9.14 8.47 9.86L17.77 15.81C18.3 16.14 17.82 16.98 17.27 16.68Z" fill="#282B32"/>
</svg>
