<svg width="24" height="24" viewBox="0 0 24 24" fill="none" xmlns="http://www.w3.org/2000/svg">
<path d="M19.8639 12.2997L21.0539 12.4295C21.3239 12.4595 21.5239 12.6993 21.4939 12.969C21.3539 14.2876 20.9439 15.5363 20.3239 16.6451C20.1839 16.8849 19.8839 16.9748 19.6339 16.8449L18.5739 16.2555C18.2339 16.0657 18.0839 15.6661 18.2039 15.3065L19.0039 12.8391C19.1139 12.5095 19.4239 12.2897 19.7639 12.2897C19.7939 12.2897 19.8239 12.2897 19.8539 12.2997H19.8639ZM17.0839 7.13512C17.2239 7.23502 17.3939 7.28496 17.5539 7.28496C17.7539 7.28496 17.9439 7.21504 18.0939 7.07518L18.9739 6.27603C19.1839 6.08622 19.1939 5.76656 19.0039 5.56677C18.1239 4.61777 17.0639 3.85857 15.8639 3.32913C15.6139 3.21924 15.3239 3.32913 15.2039 3.57886L14.7239 4.62776C14.5639 4.97739 14.6639 5.38696 14.9739 5.60673L17.0839 7.13512ZM6.32394 7.33491C6.49394 7.33491 6.65394 7.28496 6.79394 7.17508L8.90394 5.65668C9.21394 5.43691 9.32394 5.02734 9.16394 4.67771L8.67394 3.61882C8.56394 3.36908 8.26394 3.2592 8.01394 3.36909C6.82394 3.90852 5.76394 4.6877 4.90394 5.6367C4.71394 5.83649 4.73394 6.15615 4.93394 6.34595L5.77394 7.11514C5.92394 7.26498 6.12394 7.33491 6.31394 7.33491H6.32394ZM5.78394 15.3864L4.98394 12.919C4.87394 12.5894 4.56394 12.3696 4.22394 12.3696H4.12394L2.94394 12.5095C2.67394 12.5394 2.47394 12.7892 2.50394 13.0589C2.65394 14.3775 3.07394 15.6262 3.70394 16.715C3.84394 16.9548 4.14394 17.0447 4.38394 16.9048L5.40394 16.3354C5.73394 16.1456 5.89394 15.7461 5.77394 15.3864H5.78394ZM13.3239 18.8927H10.7139C10.3339 18.8927 10.0039 19.1525 9.93394 19.5321L9.69394 20.7208C9.64394 20.9905 9.81394 21.2503 10.0839 21.3102C10.7039 21.4401 11.3439 21.5 11.9939 21.5C12.6439 21.5 13.3339 21.4301 13.9639 21.3002C14.2339 21.2403 14.4139 20.9805 14.3539 20.7108L14.1139 19.5421C14.0439 19.1625 13.7139 18.9027 13.3339 18.9027L13.3239 18.8927ZM21.4739 10.8512C21.5139 11.1709 21.2439 11.4506 20.9239 11.4106L19.9939 11.3007C19.9139 11.2907 19.8439 11.2907 19.7639 11.2907C19.0039 11.2907 18.3039 11.7802 18.0739 12.5095L17.2639 14.9968C16.9939 15.816 17.3439 16.705 18.0939 17.1246L18.9439 17.6041C19.2239 17.7639 19.2839 18.1435 19.0639 18.3833C18.2139 19.3123 17.1739 20.0815 15.9939 20.6109C15.7039 20.7508 15.3539 20.571 15.2939 20.2513L15.1139 19.3323C14.9539 18.4932 14.2139 17.8938 13.3539 17.8938H10.7139C9.86394 17.8938 9.12394 18.4932 8.95394 19.3323L8.76394 20.2813C8.70394 20.6009 8.35394 20.7708 8.06394 20.6409C6.88394 20.1115 5.84394 19.3623 4.98394 18.4332C4.76394 18.1935 4.82394 17.8139 5.10394 17.654L5.91394 17.2045C6.65394 16.785 7.01394 15.8959 6.74394 15.0768L5.94394 12.6094C5.70394 11.8701 5.01394 11.3707 4.22394 11.3707C4.15394 11.3707 4.08394 11.3707 4.01394 11.3707L3.05394 11.4805C2.73394 11.5205 2.46394 11.2508 2.50394 10.9311C2.64394 9.64248 3.04394 8.42376 3.66394 7.35489C3.82394 7.07518 4.20394 7.01525 4.44394 7.23502L5.10394 7.84437C5.44394 8.15405 5.87394 8.32387 6.33394 8.32387C6.72394 8.32387 7.08394 8.204 7.40394 7.97424L9.51394 6.45584C10.2039 5.95636 10.4639 5.02734 10.0939 4.24816L9.70394 3.39905C9.57394 3.10936 9.74394 2.76972 10.0539 2.69979C10.6739 2.56993 11.3339 2.5 11.9939 2.5C12.6539 2.5 13.2439 2.55994 13.8339 2.67981C14.1539 2.73975 14.3339 3.08938 14.1939 3.37907L13.8139 4.19821C13.4539 4.97739 13.6939 5.90641 14.3839 6.40589L16.4939 7.93428C16.8039 8.15405 17.1739 8.27392 17.5639 8.27392C18.0239 8.27392 18.4539 8.1041 18.7939 7.79443L19.5039 7.14511C19.7339 6.92534 20.1139 6.98528 20.2739 7.26498C20.8939 8.33386 21.3139 9.55258 21.4739 10.8412V10.8512ZM13.0239 15.1367L12.1139 14.0878C12.0339 13.9879 11.8839 13.9879 11.7839 14.0978L10.8839 15.1367C10.8139 15.2366 10.8739 15.3764 11.0039 15.3864H12.9139C13.0439 15.3864 13.1039 15.2266 13.0239 15.1367ZM14.9639 12.1698C14.9639 10.5216 12.8739 9.10305 12.1739 8.6735C12.0339 8.59359 11.8539 8.59359 11.7139 8.6735C11.0039 9.10305 8.92394 10.5116 8.92394 12.1698C8.92394 14.0778 11.0139 14.0778 11.7139 13.1288C11.8339 12.969 12.0439 12.969 12.1639 13.1288C12.8639 14.0778 14.9639 14.0778 14.9639 12.1698Z" fill="#282B32"/>
</svg>
