<svg width="24" height="24" viewBox="0 0 24 24" fill="none" xmlns="http://www.w3.org/2000/svg">
<path d="M7.10675 9.99663L14 16.9035C14.1998 17.1034 14.04 17.4433 13.7602 17.4233C13.0809 17.3733 12.4215 17.1834 11.7922 16.8935C10.5734 16.3138 9.12478 16.5437 8.20568 17.5432L4.94886 21.0916C4.37942 21.6414 3.4803 21.6414 2.92085 21.0816C2.36139 20.5219 2.36139 19.6323 2.91086 19.0525L6.45739 15.794C7.45641 14.8844 7.67619 13.4351 7.10675 12.2056C6.80704 11.5759 6.61723 10.9162 6.57727 10.2365C6.55729 9.95665 6.89696 9.79672 7.09676 9.99663H7.10675ZM19.5945 4.40916C16.8572 1.67039 12.3716 1.96026 9.31459 4.77899C8.24564 5.76854 7.53633 6.71811 7.10675 7.64769C6.92693 8.03752 7.00685 8.48731 7.30656 8.78718L15.2188 16.7036C15.5185 17.0035 15.9781 17.0834 16.3577 16.9035C17.2868 16.4737 18.2359 15.764 19.2249 14.6945C22.0421 11.6459 22.3319 7.14792 19.5945 4.40916ZM19.0051 17.4732C17.9062 17.4732 17.0071 18.3728 17.0071 19.4723C17.0071 20.5718 17.9062 21.4714 19.0051 21.4714C20.104 21.4714 21.0032 20.5718 21.0032 19.4723C21.0032 18.3728 20.104 17.4732 19.0051 17.4732Z" fill="#282B32"/>
</svg>
