<svg width="24" height="24" viewBox="0 0 24 24" fill="none" xmlns="http://www.w3.org/2000/svg">
<path d="M6.78 9.67282L3.69 8.66243C3.41 8.57239 3.26 8.25226 3.38 7.98216C4.74 5.01099 7.58 2.88015 10.95 2.50001C11.24 2.46999 11.5 2.71009 11.5 3.01021V6.23147L6.78 9.67282ZM17.22 9.67282L20.31 8.66243C20.59 8.57239 20.74 8.25226 20.62 7.98216C19.26 5.01099 16.42 2.88015 13.05 2.50001C12.76 2.46999 12.5 2.71009 12.5 3.01021V6.23147L17.22 9.67282ZM6.47 10.6232L3.36 9.6128C3.08 9.52276 2.78 9.68283 2.72 9.97294C2.58 10.6132 2.5 11.2835 2.5 11.9737C2.5 14.7548 3.69 17.2558 5.57 18.9965C5.79 19.1966 6.13 19.1465 6.31 18.9165L8.27 16.2054L6.47 10.6332V10.6232ZM12 7.10181L7.45 10.4231L9.19 15.7852H14.81L16.55 10.4231L12 7.10181ZM21.5 11.9637C21.5 11.2735 21.42 10.6132 21.28 9.96294C21.22 9.67282 20.91 9.51276 20.64 9.6028L17.53 10.6132L15.73 16.1854L17.69 18.8964C17.86 19.1365 18.21 19.1766 18.43 18.9765C20.32 17.2358 21.5 14.7348 21.5 11.9537V11.9637ZM9.08 16.7856L7.12 19.4967C6.95 19.7368 7.01 20.0769 7.26 20.227C8.65 21.0373 10.27 21.4975 12 21.4975C13.73 21.4975 15.35 21.0273 16.74 20.217C16.99 20.0669 17.06 19.7268 16.88 19.4867L14.92 16.7756H9.08V16.7856Z" fill="#282B32"/>
</svg>
