<svg width="24" height="24" viewBox="0 0 24 24" fill="none" xmlns="http://www.w3.org/2000/svg">
<path d="M3.00987 12.5C2.70995 12.5 2.47001 12.75 2.5 13.05C3.01986 17.81 7.07878 21.5 11.9975 21.5C16.9162 21.5 20.9651 17.81 21.4949 13.05C21.5249 12.76 21.285 12.5 20.9851 12.5H3.00987ZM4.86937 15.67C4.52946 15.67 4.11957 15.28 3.98961 14.86C3.84964 14.45 4.0296 14.11 4.3795 14.1C4.71941 14.07 5.10931 14.42 5.24927 14.86C5.36924 15.31 5.19928 15.69 4.86937 15.67ZM7.67862 19.23C7.34871 19.2 6.93882 18.81 6.78886 18.37C6.6389 17.92 6.80885 17.59 7.16876 17.6C7.52866 17.6 7.93855 17.96 8.06852 18.42C8.19848 18.87 8.02853 19.25 7.67862 19.23ZM8.01853 16.17C7.61864 16.15 7.22874 15.74 7.14876 15.26C7.07878 14.78 7.34871 14.39 7.7686 14.39C8.16849 14.38 8.55839 14.78 8.62837 15.28C8.68835 15.77 8.41842 16.18 8.01853 16.17ZM10.7078 19.75C10.3179 19.73 9.94801 19.32 9.89803 18.84C9.84804 18.36 10.138 18 10.5579 18C10.9577 18.01 11.3276 18.39 11.3576 18.87C11.3876 19.36 11.0977 19.76 10.7078 19.75ZM11.9975 16.39C11.5476 16.39 11.1577 15.97 11.1577 15.45C11.1477 14.93 11.5276 14.51 11.9975 14.51C12.4673 14.51 12.8472 14.93 12.8372 15.45C12.8372 15.97 12.4573 16.4 11.9975 16.39ZM13.2871 19.75C12.8972 19.76 12.6173 19.36 12.6373 18.87C12.6773 18.39 13.0272 18.01 13.4371 18C13.857 18 14.1569 18.36 14.0969 18.84C14.0469 19.32 13.697 19.73 13.2871 19.75ZM15.3666 15.28C15.4365 14.78 15.8164 14.38 16.2363 14.39C16.6462 14.39 16.9262 14.78 16.8462 15.26C16.7662 15.74 16.3863 16.15 15.9764 16.17C15.5765 16.18 15.3066 15.77 15.3666 15.28ZM17.2061 18.37C17.0561 18.81 16.6662 19.2 16.3163 19.23C15.9664 19.25 15.7965 18.87 15.9264 18.42C16.0564 17.96 16.4563 17.6 16.8262 17.6C17.1861 17.6 17.356 17.92 17.2061 18.37ZM19.1256 15.67C18.7957 15.69 18.6257 15.31 18.7457 14.86C18.8856 14.42 19.2555 14.07 19.6154 14.1C19.9753 14.11 20.1453 14.45 20.0053 14.86C19.8754 15.28 19.4755 15.66 19.1256 15.67ZM11.9975 2.5C7.07878 2.5 3.02986 6.2 2.5 10.95C2.47001 11.24 2.70995 11.5 3.00987 11.5H20.9851C21.285 11.5 21.5249 11.25 21.4949 10.95C20.9751 6.2 16.9262 2.5 11.9975 2.5ZM5.24927 9.14C5.10931 9.58 4.73941 9.93 4.3795 9.9C4.0196 9.89 3.84964 9.55 3.98961 9.14C4.11957 8.72 4.52946 8.35 4.86937 8.33C5.19928 8.31 5.36924 8.69 5.24927 9.14ZM6.78886 5.63C6.93882 5.19 7.33871 4.8 7.67862 4.77C8.02853 4.75 8.19848 5.13 8.06852 5.58C7.93855 6.04 7.53866 6.4 7.16876 6.4C6.80885 6.41 6.6389 6.08 6.78886 5.63ZM7.77859 9.61C7.35871 9.61 7.07878 9.22 7.15876 8.74C7.23874 8.26 7.62863 7.85 8.02853 7.83C8.42842 7.82 8.69835 8.23 8.63836 8.72C8.56838 9.22 8.18848 9.62 7.77859 9.61ZM10.5678 6C10.148 6 9.84804 5.64 9.90803 5.16C9.95801 4.68 10.3079 4.27 10.7178 4.25C11.1077 4.24 11.3876 4.63 11.3676 5.13C11.3376 5.61 10.9877 5.99 10.5678 6ZM11.9975 9.49C11.5376 9.49 11.1477 9.07 11.1577 8.55C11.1577 8.03 11.5376 7.61 11.9975 7.61C12.4573 7.61 12.8272 8.03 12.8372 8.55C12.8472 9.07 12.4673 9.49 11.9975 9.49ZM13.4271 6C13.0272 5.99 12.6573 5.61 12.6273 5.13C12.6073 4.63 12.8872 4.24 13.2771 4.25C13.667 4.27 14.0269 4.68 14.0869 5.16C14.1369 5.64 13.847 6 13.4271 6ZM16.2263 9.61C15.8164 9.62 15.4266 9.22 15.3566 8.72C15.2966 8.23 15.5665 7.82 15.9664 7.83C16.3663 7.85 16.7562 8.26 16.8362 8.74C16.9062 9.22 16.6362 9.61 16.2263 9.61ZM16.8262 6.4C16.4663 6.4 16.0564 6.04 15.9264 5.58C15.7965 5.13 15.9664 4.75 16.3163 4.77C16.6462 4.8 17.0561 5.19 17.2061 5.63C17.356 6.08 17.1861 6.41 16.8262 6.4ZM19.6154 9.9C19.2755 9.93 18.8856 9.58 18.7457 9.14C18.6257 8.69 18.7957 8.31 19.1256 8.33C19.4555 8.34 19.8754 8.72 20.0053 9.14C20.1453 9.55 19.9753 9.89 19.6154 9.9Z" fill="#282B32"/>
</svg>
