<svg width="24" height="24" viewBox="0 0 24 24" fill="none" xmlns="http://www.w3.org/2000/svg">
<path d="M11.44 12.64C10.72 13.19 9.79 13.44 8.87 13.52C8.87 13.49 8.88 13.47 8.88 13.44C8.99 12.9 8.55 12.1 8.19 11.86L6.74 10.52C6.74 10.52 6.74 10.53 6.75 10.52C7.06 10.52 9.03 10.5 9.33 10.49C9.78 11.46 10.55 12.21 11.44 12.64ZM21 7V17C21 19.21 19.21 21 17 21H7C4.79 21 3 19.21 3 17V7C3 4.79 4.79 3 7 3H17C19.21 3 21 4.79 21 7ZM10.77 7.92C10.77 8.75 11.44 9.42 12.27 9.42C13.1 9.42 13.77 8.75 13.77 7.92C13.77 7.09 13.1 6.42 12.27 6.42C11.44 6.42 10.77 7.09 10.77 7.92ZM18.91 11.81L16.17 7.67L15.98 7.76C15.9 7.8 14.07 8.65 12.32 11.63C11.84 11.35 11.46 10.91 11.21 10.37C11.06 9.93 10.89 9.49 10.5 9.19C10.09 8.82 9.5 8.74 8.96 8.75L6.85 8.73C5.37 8.62 4.38 10.54 5.4 11.67C5.86 12.14 7.24 13.01 7.32 13.44C7.32 13.47 7.32 13.51 7.32 13.54C6.18 13.46 5.3 13.24 5.28 13.23C5.15 13.2 5.01 13.27 4.97 13.41C4.93 13.54 5.01 13.68 5.15 13.72C5.24 13.74 6.07 13.96 7.17 14.05C6.96 14.42 6.51 14.93 5.62 15.68C5.3 15.95 5.37 16.46 5.68 16.74L6.41 17.4C6.72 17.68 7.19 17.65 7.47 17.35C7.75 17.05 7.72 16.57 7.42 16.29L7.07 15.97C7.87 15.3 8.41 14.6 8.68 14.06C9.85 13.98 11.07 13.67 11.96 12.86C12.67 13.08 13.42 13.1 14.14 12.86C14.68 12.67 14.4 11.79 13.84 11.91C13.46 11.98 13.1 11.94 12.77 11.84C14.11 9.58 15.49 8.61 15.98 8.33L18.48 12.11C18.54 12.2 18.53 12.33 18.46 12.41L18.1 12.83C18.02 12.92 17.89 12.95 17.78 12.88L16.31 12C16.12 11.89 15.89 11.86 15.68 11.93C15.47 12 15.31 12.16 15.23 12.36C14.94 13.09 14.47 14.51 14.62 15.8C14.63 15.93 14.74 16.02 14.87 16.02C14.87 16.02 14.89 16.02 14.9 16.02C15.04 16 15.14 15.88 15.12 15.74C14.98 14.57 15.43 13.24 15.7 12.55C15.73 12.48 15.78 12.43 15.85 12.41C15.92 12.38 16 12.39 16.06 12.43L17.53 13.31C17.84 13.5 18.25 13.43 18.48 13.15L18.84 12.73C19.06 12.48 19.09 12.09 18.91 11.81Z" fill="#282B32"/>
</svg>
