<svg width="24" height="24" viewBox="0 0 24 24" fill="none" xmlns="http://www.w3.org/2000/svg">
<path d="M18.6343 6.49236C18.6843 6.22236 19.0244 6.12236 19.2144 6.32236L20.9249 8.03236C22.2152 9.32236 20.3747 13.2524 16.8238 16.8024C13.2629 20.3624 9.3318 22.1924 8.04146 20.9124L6.331 19.2024C6.13095 19.0024 6.23098 18.6724 6.50105 18.6224C8.72164 18.1924 11.5624 16.2724 13.923 13.9124C16.2737 11.5624 18.1942 8.73236 18.6243 6.50236L18.6343 6.49236ZM10.8522 10.8324C8.04146 13.6424 5.00065 15.3624 3.19017 15.3224C2.91009 15.3224 2.77006 15.6324 2.96011 15.8224L4.4405 17.3024C5.73084 18.5924 9.66189 16.7524 13.2228 13.1924C16.7838 9.63236 18.6143 5.72236 17.3239 4.42236L15.8435 2.94236C15.6535 2.75236 15.3334 2.89236 15.3434 3.17236C15.3834 4.97236 13.653 8.02236 10.8522 10.8224V10.8324ZM14.2131 2.73236C15.1334 3.65236 13.3129 6.96236 10.152 10.1324C6.99118 13.3024 3.6703 15.1224 2.74005 14.2024C1.8098 13.2824 3.64029 9.97236 6.81113 6.80236C9.97197 3.64236 13.2929 1.81236 14.2131 2.74236V2.73236ZM9.7019 6.89236C9.41183 6.60236 8.5516 6.99236 7.77139 7.77236C6.99118 8.55236 6.60108 9.42236 6.89115 9.70236C7.18123 9.98236 8.05146 9.59236 8.82167 8.82236C9.59187 8.05236 9.99198 7.17236 9.7019 6.89236ZM21.7051 19.6724L19.0244 17.0024L18.5243 16.5024C18.2042 16.8624 17.8841 17.2024 17.544 17.5424C17.1939 17.8924 16.8438 18.2224 16.4837 18.5324L19.6746 21.7124C20.0647 22.1024 20.6948 22.1024 21.0849 21.7124L21.7051 21.0924C22.0952 20.7024 22.0952 20.0724 21.7051 19.6724Z" fill="#282B32"/>
</svg>
