<svg width="24" height="24" viewBox="0 0 24 24" fill="none" xmlns="http://www.w3.org/2000/svg">
<path d="M20.9 9.96C20.52 9.7 20.3 9.28 20.3 8.83C20.3 8.68 20.33 8.52 20.39 8.36C21 6.75 19.82 5.05 18.15 5.05H17.94C17.34 5.05 16.82 4.64 16.67 4.06C16.37 2.93 15.38 2.25 14.34 2.25C13.82 2.25 13.29 2.42 12.83 2.8C12.59 2.99 12.29 3.09 12 3.09C11.71 3.09 11.41 2.99 11.17 2.8C10.72 2.42 10.19 2.25 9.66 2.25C8.63 2.25 7.63 2.93 7.33 4.06C7.18 4.64 6.66 5.05 6.07 5.05H5.99C4.55 4.98 3.45 6.14 3.45 7.48C3.45 7.77 3.5 8.06 3.61 8.36C3.67 8.52 3.7 8.68 3.7 8.83C3.7 9.28 3.48 9.7 3.1 9.96C2.37 10.44 2 11.22 2 12C2 12.78 2.37 13.56 3.1 14.05C3.48 14.3 3.7 14.73 3.7 15.17C3.7 15.32 3.67 15.48 3.61 15.65C3.01 17.25 4.17 18.95 5.85 18.95H6.05C6.65 18.95 7.18 19.35 7.33 19.94C7.78 21.65 9.82 22.32 11.17 21.2C11.41 21 11.71 20.9 12 20.9C12.29 20.9 12.59 21 12.83 21.2C13.29 21.58 13.82 21.75 14.34 21.75C15.38 21.75 16.37 21.07 16.67 19.94C16.82 19.35 17.35 18.95 17.96 18.95H18.02C19.45 19.03 20.55 17.85 20.55 16.53C20.55 16.23 20.5 15.94 20.39 15.65C20.33 15.48 20.3 15.32 20.3 15.17C20.3 14.72 20.52 14.3 20.9 14.05C21.63 13.56 22 12.78 22 12C22 11.22 21.63 10.44 20.9 9.96ZM12 17.5C8.96 17.5 6.5 15.04 6.5 12C6.5 8.96 8.96 6.5 12 6.5C15.04 6.5 17.5 8.96 17.5 12C17.5 15.04 15.03 17.5 12 17.5ZM13.74 12.41C13.68 12.49 13.63 12.59 13.64 12.69L13.86 14.01C13.92 14.35 13.58 14.6 13.28 14.45L12.14 13.83C12.05 13.78 11.94 13.78 11.85 13.83L10.7 14.45C10.41 14.6 10.06 14.35 10.12 14.01L10.34 12.69C10.36 12.59 10.32 12.49 10.25 12.41L9.31 11.47C9.07 11.23 9.21 10.83 9.54 10.78L10.82 10.58C10.92 10.56 11.01 10.5 11.06 10.41L11.63 9.22C11.77 8.91 12.21 8.91 12.36 9.22L12.93 10.41C12.97 10.5 13.06 10.57 13.17 10.58L14.45 10.78C14.78 10.83 14.91 11.24 14.68 11.47L13.74 12.41Z" fill="#282B32"/>
</svg>
