<svg width="24" height="24" viewBox="0 0 24 24" fill="none" xmlns="http://www.w3.org/2000/svg">
<path d="M20.8613 13.74L15.7809 4.71C14.9409 3.23 13.4708 2.5 12.0007 2.5C10.5306 2.5 9.05046 3.23 8.2204 4.71L3.13004 13.74C1.30991 16.98 3.64008 21 7.36034 21H16.651C20.3613 21 22.6914 16.98 20.8613 13.74ZM16.391 17.6C15.5109 17.6 14.8009 16.89 14.8009 16C14.8009 15.11 15.5209 14.4 16.391 14.4C17.261 14.4 17.9811 15.12 17.9811 16C17.9811 16.88 17.271 17.6 16.391 17.6ZM6.03025 16C6.03025 15.12 6.7503 14.4 7.62036 14.4C8.49042 14.4 9.21047 15.12 9.21047 16C9.21047 16.88 8.50042 17.6 7.62036 17.6C6.7403 17.6 6.03025 16.89 6.03025 16ZM12.0107 6C12.9007 6 13.6008 6.72 13.6008 7.6C13.6008 8.48 12.8907 9.2 12.0107 9.2C11.1306 9.2 10.4206 8.49 10.4206 7.6C10.4206 6.71 11.1406 6 12.0107 6ZM12.5107 11.82V11.78C12.5107 10.91 13.2308 10.2 14.1008 10.2C14.9709 10.2 15.6909 10.92 15.6909 11.8C15.6909 12.68 14.9709 13.4 14.1008 13.4C13.2308 13.4 12.5207 12.7 12.5107 11.82ZM13.6108 16C13.6108 16.89 12.9007 17.6 12.0207 17.6C11.1406 17.6 10.4306 16.89 10.4306 16C10.4306 15.11 11.1506 14.4 12.0207 14.4C12.8907 14.4 13.6108 15.12 13.6108 16ZM11.5206 11.78V11.82C11.5106 12.7 10.8006 13.4 9.93052 13.4C9.06046 13.4 8.34041 12.69 8.34041 11.8C8.34041 10.91 9.06046 10.2 9.93052 10.2C10.8006 10.2 11.5106 10.91 11.5206 11.78Z" fill="#282B32"/>
</svg>
