<svg width="24" height="24" viewBox="0 0 24 24" fill="none" xmlns="http://www.w3.org/2000/svg">
<path d="M21.434 11.11C20.244 6.86999 17.674 4.99999 16.054 4.99999C14.164 4.99999 14.144 5.99999 12.004 5.99999C9.86404 5.99999 9.83404 4.99999 7.94404 4.99999C6.33404 4.99999 3.75404 6.86999 2.56404 11.11C1.53404 14.78 1.86404 19 3.97404 19C5.25404 19 6.61404 17.96 7.66404 16.35C8.22404 15.51 9.15404 15 10.164 15H13.834C14.844 15 15.784 15.51 16.334 16.35C17.384 17.96 18.744 19 20.024 19C22.134 19 22.464 14.78 21.434 11.11ZM9.50404 11H8.50404V12C8.50404 12.28 8.27404 12.5 8.00404 12.5C7.73404 12.5 7.50404 12.28 7.50404 12V11H6.50404C6.22404 11 6.00404 10.78 6.00404 10.5C6.00404 10.22 6.22404 9.99999 6.50404 9.99999H7.50404V8.99999C7.50404 8.72999 7.72404 8.49999 8.00404 8.49999C8.28404 8.49999 8.50404 8.72999 8.50404 8.99999V9.99999H9.50404C9.77404 9.99999 10.004 10.23 10.004 10.5C10.004 10.77 9.77404 11 9.50404 11ZM14.604 11.1C14.264 11.1 14.004 10.83 14.004 10.5C14.004 10.17 14.264 9.89999 14.604 9.89999C14.944 9.89999 15.204 10.17 15.204 10.5C15.204 10.83 14.934 11.1 14.604 11.1ZM16.194 12.69C15.854 12.69 15.594 12.42 15.594 12.09C15.594 11.76 15.854 11.49 16.194 11.49C16.534 11.49 16.794 11.76 16.794 12.09C16.794 12.42 16.524 12.69 16.194 12.69ZM16.194 9.50999C15.854 9.50999 15.594 9.23999 15.594 8.90999C15.594 8.57999 15.854 8.30999 16.194 8.30999C16.534 8.30999 16.794 8.57999 16.794 8.90999C16.794 9.23999 16.524 9.50999 16.194 9.50999ZM17.784 11.1C17.454 11.1 17.184 10.83 17.184 10.5C17.184 10.17 17.454 9.89999 17.784 9.89999C18.114 9.89999 18.384 10.17 18.384 10.5C18.384 10.83 18.114 11.1 17.784 11.1ZM12.004 4.99999C11.874 4.99999 11.744 4.94999 11.644 4.84999C11.454 4.64999 11.454 4.33999 11.654 4.13999C11.704 4.08999 11.654 3.89999 11.564 3.72999C11.134 2.90999 11.374 2.40999 11.654 2.13999C11.854 1.94999 12.164 1.94999 12.354 2.14999C12.544 2.34999 12.544 2.65999 12.344 2.85999C12.274 2.92999 12.374 3.13999 12.434 3.26999C12.884 4.13999 12.564 4.63999 12.344 4.85999C12.244 4.94999 12.124 4.99999 11.994 4.99999H12.004Z" fill="#282B32"/>
</svg>
