<svg width="24" height="24" viewBox="0 0 24 24" fill="none" xmlns="http://www.w3.org/2000/svg">
<path d="M18.0137 8.193C17.6441 6.47209 16.8349 4.73117 15.7261 3.46051C15.6562 3.38046 15.7461 3.2604 15.846 3.30042C19.1725 4.7712 21.5 8.11295 21.5 11.995C21.5 12.065 21.5 12.1351 21.5 12.1951C21.5 12.3052 21.3502 12.3252 21.3102 12.2251C20.3013 9.59373 18.643 8.51316 18.0237 8.18299L18.0137 8.193ZM20.8007 13.976C20.0415 10.6843 18.1835 9.43365 17.5841 9.09347L12.5095 11.7549V17.3378C14.6272 18.2283 16.735 18.1582 18.1435 17.9381C19.2024 17.768 20.1115 17.0777 20.571 16.1072C20.571 16.1072 20.571 16.0872 20.581 16.0771C20.8906 15.4268 20.9606 14.6764 20.8007 13.976ZM12.01 18.1983C9.66246 19.2288 7.36488 19.1788 5.80652 18.9487C5.70662 18.9387 5.64669 19.0587 5.7266 19.1187C7.39485 20.5995 9.59253 21.5 12.01 21.5C14.4274 21.5 16.6251 20.5995 18.2934 19.1187C18.3633 19.0487 18.3134 18.9286 18.2135 18.9487C16.6551 19.1788 14.3575 19.2188 12.01 18.1983ZM12.01 10.8844L17.0047 8.26303C16.3654 5.43154 14.3475 2.5 12.01 2.5C9.67245 2.5 7.63459 5.43154 7.00526 8.26303L12.01 10.8844ZM5.88644 17.9381C7.29495 18.1582 9.39275 18.2283 11.5105 17.3378V11.7549L6.43586 9.09347C5.8265 9.42364 3.98843 10.6643 3.21924 13.966C3.05941 14.6664 3.12934 15.4068 3.42902 16.0671C3.42902 16.0671 3.42902 16.0872 3.43901 16.0972C3.89853 17.0877 4.81756 17.788 5.88644 17.9581V17.9381ZM2.51998 12.1851C2.51998 12.2952 2.66982 12.3152 2.70978 12.2151C3.71872 9.60374 5.37697 8.51316 5.99632 8.18299C6.35594 6.47209 7.1551 4.74118 8.25394 3.47051C8.32387 3.39047 8.23396 3.27041 8.13407 3.31043C4.81756 4.7812 2.5 8.11295 2.5 11.985C2.5 12.045 2.5 12.1051 2.5 12.1751L2.51998 12.1851Z" fill="#282B32"/>
</svg>
