<svg width="24" height="24" viewBox="0 0 24 24" fill="none" xmlns="http://www.w3.org/2000/svg">
<path d="M20.45 5.0619C20.28 4.8119 19.91 4.7919 19.7 5.0119L16.24 8.4719C16.05 8.6619 15.73 8.6719 15.53 8.4719C15.34 8.2819 15.34 7.9519 15.53 7.7619L18.99 4.3019C19.21 4.0819 19.19 3.7219 18.94 3.5519C15.75 1.4119 10.46 2.6019 6.53001 6.5319C2.61001 10.4519 1.41001 15.7519 3.55001 18.9419C3.72001 19.1919 4.09001 19.2119 4.30001 18.9919L7.76001 15.5319C7.96001 15.3319 8.28001 15.3419 8.47001 15.5319C8.67001 15.7319 8.67001 16.0419 8.47001 16.2419L5.01001 19.7019C4.79001 19.9219 4.81001 20.2919 5.06001 20.4519C8.25001 22.5919 13.55 21.3919 17.47 17.4719C21.4 13.5419 22.59 8.2519 20.45 5.0619ZM14.82 11.2919C14.63 11.4819 14.31 11.4919 14.11 11.2919L13.76 10.9419L12.7 12.0019L13.05 12.3519C13.25 12.5519 13.25 12.8619 13.05 13.0619C12.85 13.2619 12.54 13.2619 12.34 13.0619L11.99 12.7119L10.93 13.7719L11.28 14.1219C11.48 14.3219 11.48 14.6319 11.28 14.8319C11.09 15.0219 10.77 15.0319 10.57 14.8319L9.16001 13.4219C8.97001 13.2319 8.97001 12.9019 9.16001 12.7119C9.36001 12.5119 9.68001 12.5219 9.87001 12.7119L10.22 13.0619L11.28 12.0019L10.93 11.6519C10.74 11.4619 10.74 11.1319 10.93 10.9419C11.13 10.7419 11.45 10.7519 11.64 10.9419L11.99 11.2919L13.05 10.2319L12.7 9.8819C12.51 9.6919 12.51 9.3619 12.7 9.1719C12.9 8.9719 13.22 8.9819 13.41 9.1719L14.82 10.5819C15.02 10.7819 15.02 11.0919 14.82 11.2919Z" fill="#282B32"/>
</svg>
