<svg width="24" height="24" viewBox="0 0 24 24" fill="none" xmlns="http://www.w3.org/2000/svg">
<path d="M17 3H7C4.79 3 3 4.79 3 7V17C3 19.21 4.79 21 7 21H17C19.21 21 21 19.21 21 17V7C21 4.79 19.21 3 17 3ZM6.5 6.97C6.59 6.15 7.34 5.56 8.16 5.65C8.98 5.74 9.57 6.49 9.48 7.31C9.39 8.13 8.64 8.72 7.82 8.63C7 8.54 6.41 7.79 6.5 6.97ZM17.4 9.41L16.9 9.44C16.9 9.44 13.09 11.42 11.92 12.69C11.57 13.35 10.97 15.71 11.19 17.2C11.21 17.34 11.33 17.46 11.33 17.61C11.33 18.02 10.99 18.36 10.58 18.36H10.08C9.67 18.36 9.33 18.02 9.33 17.61C9.33 17.2 9.65 16.89 10.05 16.87C9.84 15.43 9.81 13.87 10.37 12.54C10.12 12.43 9.9 12.31 9.71 12.18C8.89 13.08 6.91 12.79 6.87 11.41C7.22 8.98 11.2 8.29 13.14 8.06C13.77 7.99 13.9 8.95 13.27 9.05C12.24 9.24 11.23 9.47 10.29 9.86C10.5 10.24 10.99 10.68 11.68 10.93C13.02 9.93 16.11 8.75 16.11 8.74C16.08 8.33 16.4 7.97 16.81 7.94L17.31 7.91C17.72 7.88 18.08 8.2 18.11 8.61C18.14 9.02 17.82 9.38 17.41 9.41H17.4ZM8.54 10.88C8.66 11.12 8.83 11.37 9.05 11.61C8.8 11.7 8.39 11.76 8.26 11.63C8.14 11.51 8.17 11.14 8.55 10.88H8.54Z" fill="#282B32"/>
</svg>
