<svg width="24" height="24" viewBox="0 0 24 24" fill="none" xmlns="http://www.w3.org/2000/svg">
<path d="M12 2.5C6.75 2.5 2.5 6.76 2.5 12C2.5 17.24 6.75 21.5 12 21.5C17.25 21.5 21.5 17.25 21.5 12C21.5 6.75 17.25 2.5 12 2.5ZM8.12 5.29C8.72 4.94 9.49 5.15 9.83 5.75C10.18 6.35 9.97 7.11 9.37 7.46C8.78 7.8 8.01 7.6 7.67 7C7.32 6.4 7.53 5.64 8.12 5.29ZM5.5 13.25C4.81 13.25 4.25 12.69 4.25 12C4.25 11.31 4.81 10.75 5.5 10.75C6.19 10.75 6.75 11.31 6.75 12C6.75 12.69 6.19 13.25 5.5 13.25ZM9.83 18.26C9.49 18.85 8.72 19.06 8.12 18.71C7.53 18.37 7.32 17.6 7.67 17.01C8.01 16.41 8.78 16.2 9.37 16.55C9.97 16.89 10.18 17.66 9.83 18.26ZM8.5 12C8.5 10.07 10.07 8.5 12 8.5C13.93 8.5 15.5 10.07 15.5 12C15.5 13.93 13.93 15.5 12 15.5C10.07 15.5 8.5 13.93 8.5 12ZM15.87 18.71C15.28 19.06 14.51 18.85 14.17 18.26C13.82 17.66 14.03 16.89 14.62 16.55C15.22 16.2 15.99 16.41 16.33 17.01C16.68 17.6 16.47 18.37 15.87 18.71ZM16.33 7C15.99 7.6 15.22 7.8 14.62 7.46C14.03 7.11 13.82 6.35 14.17 5.75C14.51 5.15 15.28 4.94 15.87 5.29C16.47 5.64 16.68 6.4 16.33 7ZM18.5 13.25C17.81 13.25 17.25 12.69 17.25 12C17.25 11.31 17.81 10.75 18.5 10.75C19.19 10.75 19.75 11.31 19.75 12C19.75 12.69 19.19 13.25 18.5 13.25ZM12 9.5C10.62 9.5 9.5 10.62 9.5 12C9.5 13.38 10.62 14.5 12 14.5C13.38 14.5 14.5 13.38 14.5 12C14.5 10.62 13.38 9.5 12 9.5Z" fill="#282B32"/>
</svg>
