<svg width="24" height="24" viewBox="0 0 24 24" fill="none" xmlns="http://www.w3.org/2000/svg">
<path d="M14.5011 12.38C14.3313 12.12 14.1117 11.93 13.8321 11.8C14.0418 11.66 14.2015 11.48 14.3213 11.27C14.4312 11.05 14.4911 10.81 14.4911 10.54C14.4911 10.2 14.4012 9.9 14.2215 9.63C14.0418 9.36 13.7722 9.14 13.4028 8.98C13.0334 8.82 12.5641 8.75 11.995 8.75C11.4259 8.75 10.9566 8.83 10.5872 8.99C10.2178 9.15 9.93826 9.37 9.75854 9.64C9.57882 9.91 9.48896 10.21 9.48896 10.55C9.48896 10.83 9.54887 11.07 9.66868 11.28C9.77851 11.48 9.94824 11.66 10.1679 11.8C9.89832 11.93 9.68865 12.13 9.51892 12.38C9.3392 12.64 9.25933 12.93 9.25933 13.26C9.25933 13.53 9.30925 13.79 9.42906 14.03C9.53889 14.27 9.70862 14.48 9.92827 14.66C10.1579 14.84 10.4375 14.98 10.7869 15.09C11.1364 15.19 11.5357 15.25 11.995 15.25C12.614 15.25 13.1232 15.16 13.5326 14.98C13.9419 14.8 14.2415 14.56 14.4411 14.26C14.6508 13.96 14.7507 13.63 14.7507 13.27C14.7507 12.94 14.6708 12.64 14.5011 12.38ZM11.1863 10.24C11.2662 10.14 11.376 10.05 11.5158 9.99C11.6555 9.93 11.8153 9.9 11.995 9.9C12.1747 9.9 12.3445 9.93 12.4842 9.99C12.624 10.05 12.7338 10.14 12.8137 10.24C12.8936 10.35 12.9335 10.48 12.9335 10.62C12.9335 10.77 12.8936 10.89 12.8137 11C12.7338 11.1 12.614 11.19 12.4743 11.25C12.3345 11.31 12.1747 11.34 11.995 11.34C11.8153 11.34 11.6555 11.31 11.5158 11.25C11.376 11.19 11.2662 11.11 11.1863 11C11.1064 10.89 11.0665 10.77 11.0665 10.62C11.0665 10.48 11.1064 10.35 11.1863 10.24ZM12.9136 13.71C12.8237 13.83 12.6939 13.92 12.5342 13.99C12.3744 14.06 12.1947 14.09 11.995 14.09C11.7953 14.09 11.6156 14.06 11.4559 13.99C11.2961 13.92 11.1663 13.83 11.0765 13.71C10.9766 13.58 10.9367 13.43 10.9367 13.26C10.9367 13.08 10.9766 12.94 11.0765 12.82C11.1663 12.7 11.2961 12.6 11.4559 12.54C11.6156 12.47 11.7953 12.44 11.995 12.44C12.1947 12.44 12.3744 12.47 12.5342 12.54C12.6939 12.6 12.8237 12.7 12.9136 12.82C13.0134 12.94 13.0533 13.08 13.0533 13.26C13.0533 13.43 13.0134 13.58 12.9136 13.71ZM14.5011 12.38C14.3313 12.12 14.1117 11.93 13.8321 11.8C14.0418 11.66 14.2015 11.48 14.3213 11.27C14.4312 11.05 14.4911 10.81 14.4911 10.54C14.4911 10.2 14.4012 9.9 14.2215 9.63C14.0418 9.36 13.7722 9.14 13.4028 8.98C13.0334 8.82 12.5641 8.75 11.995 8.75C11.4259 8.75 10.9566 8.83 10.5872 8.99C10.2178 9.15 9.93826 9.37 9.75854 9.64C9.57882 9.91 9.48896 10.21 9.48896 10.55C9.48896 10.83 9.54887 11.07 9.66868 11.28C9.77851 11.48 9.94824 11.66 10.1679 11.8C9.89832 11.93 9.68865 12.13 9.51892 12.38C9.3392 12.64 9.25933 12.93 9.25933 13.26C9.25933 13.53 9.30925 13.79 9.42906 14.03C9.53889 14.27 9.70862 14.48 9.92827 14.66C10.1579 14.84 10.4375 14.98 10.7869 15.09C11.1364 15.19 11.5357 15.25 11.995 15.25C12.614 15.25 13.1232 15.16 13.5326 14.98C13.9419 14.8 14.2415 14.56 14.4411 14.26C14.6508 13.96 14.7507 13.63 14.7507 13.27C14.7507 12.94 14.6708 12.64 14.5011 12.38ZM11.1863 10.24C11.2662 10.14 11.376 10.05 11.5158 9.99C11.6555 9.93 11.8153 9.9 11.995 9.9C12.1747 9.9 12.3445 9.93 12.4842 9.99C12.624 10.05 12.7338 10.14 12.8137 10.24C12.8936 10.35 12.9335 10.48 12.9335 10.62C12.9335 10.77 12.8936 10.89 12.8137 11C12.7338 11.1 12.614 11.19 12.4743 11.25C12.3345 11.31 12.1747 11.34 11.995 11.34C11.8153 11.34 11.6555 11.31 11.5158 11.25C11.376 11.19 11.2662 11.11 11.1863 11C11.1064 10.89 11.0665 10.77 11.0665 10.62C11.0665 10.48 11.1064 10.35 11.1863 10.24ZM12.9136 13.71C12.8237 13.83 12.6939 13.92 12.5342 13.99C12.3744 14.06 12.1947 14.09 11.995 14.09C11.7953 14.09 11.6156 14.06 11.4559 13.99C11.2961 13.92 11.1663 13.83 11.0765 13.71C10.9766 13.58 10.9367 13.43 10.9367 13.26C10.9367 13.08 10.9766 12.94 11.0765 12.82C11.1663 12.7 11.2961 12.6 11.4559 12.54C11.6156 12.47 11.7953 12.44 11.995 12.44C12.1947 12.44 12.3744 12.47 12.5342 12.54C12.6939 12.6 12.8237 12.7 12.9136 12.82C13.0134 12.94 13.0533 13.08 13.0533 13.26C13.0533 13.43 13.0134 13.58 12.9136 13.71ZM20.6314 15C20.851 15 21.0507 14.86 21.1206 14.64C21.3702 13.8 21.5 12.91 21.5 12C21.5 11.09 21.3702 10.19 21.1206 9.36C21.0607 9.15 20.851 9 20.6314 9H17.1868C16.9871 8.64 16.7375 8.3 16.458 8H20.2719C20.4217 8 20.5215 7.84 20.4517 7.7C18.8941 4.61 15.6892 2.5 11.995 2.5C8.30084 2.5 5.10589 4.61 3.53836 7.7C3.46847 7.83 3.56831 8 3.71808 8H7.53205C7.2525 8.3 7.01287 8.64 6.80321 9H3.36863C3.14898 9 2.94929 9.14 2.8794 9.36C2.62979 10.2 2.5 11.09 2.5 12C2.5 12.91 2.62979 13.81 2.8794 14.64C2.93931 14.85 3.14898 15 3.36863 15H6.80321C7.01287 15.36 7.2525 15.7 7.53205 16H3.71808C3.56831 16 3.46847 16.16 3.53836 16.3C5.10589 19.38 8.30084 21.5 12.005 21.5C15.7091 21.5 18.9041 19.38 20.4616 16.3C20.5315 16.17 20.4317 16 20.2819 16H16.4679C16.7475 15.7 16.9971 15.36 17.1968 15H20.6414H20.6314ZM12.005 17C9.24934 17 7.01287 14.76 7.01287 12C7.01287 9.24 9.24934 7 12.005 7C14.7606 7 16.9971 9.23 16.9971 12C16.9971 14.77 14.7606 17 12.005 17ZM13.8321 11.8C14.0418 11.66 14.2015 11.48 14.3213 11.27C14.4312 11.05 14.4911 10.81 14.4911 10.54C14.4911 10.2 14.4012 9.9 14.2215 9.63C14.0418 9.36 13.7722 9.14 13.4028 8.98C13.0334 8.82 12.5641 8.75 11.995 8.75C11.4259 8.75 10.9566 8.83 10.5872 8.99C10.2178 9.15 9.93826 9.37 9.75854 9.64C9.57882 9.91 9.48896 10.21 9.48896 10.55C9.48896 10.83 9.54887 11.07 9.66868 11.28C9.77851 11.48 9.94824 11.66 10.1679 11.8C9.89832 11.93 9.68865 12.13 9.51892 12.38C9.3392 12.64 9.25933 12.93 9.25933 13.26C9.25933 13.53 9.30925 13.79 9.42906 14.03C9.53889 14.27 9.70862 14.48 9.92827 14.66C10.1579 14.84 10.4375 14.98 10.7869 15.09C11.1364 15.19 11.5357 15.25 11.995 15.25C12.614 15.25 13.1232 15.16 13.5326 14.98C13.9419 14.8 14.2415 14.56 14.4411 14.26C14.6508 13.96 14.7507 13.63 14.7507 13.27C14.7507 12.94 14.6708 12.64 14.5011 12.38C14.3313 12.12 14.1117 11.93 13.8321 11.8ZM11.1863 10.24C11.2662 10.14 11.376 10.05 11.5158 9.99C11.6555 9.93 11.8153 9.9 11.995 9.9C12.1747 9.9 12.3445 9.93 12.4842 9.99C12.624 10.05 12.7338 10.14 12.8137 10.24C12.8936 10.35 12.9335 10.48 12.9335 10.62C12.9335 10.77 12.8936 10.89 12.8137 11C12.7338 11.1 12.614 11.19 12.4743 11.25C12.3345 11.31 12.1747 11.34 11.995 11.34C11.8153 11.34 11.6555 11.31 11.5158 11.25C11.376 11.19 11.2662 11.11 11.1863 11C11.1064 10.89 11.0665 10.77 11.0665 10.62C11.0665 10.48 11.1064 10.35 11.1863 10.24ZM12.9136 13.71C12.8237 13.83 12.6939 13.92 12.5342 13.99C12.3744 14.06 12.1947 14.09 11.995 14.09C11.7953 14.09 11.6156 14.06 11.4559 13.99C11.2961 13.92 11.1663 13.83 11.0765 13.71C10.9766 13.58 10.9367 13.43 10.9367 13.26C10.9367 13.08 10.9766 12.94 11.0765 12.82C11.1663 12.7 11.2961 12.6 11.4559 12.54C11.6156 12.47 11.7953 12.44 11.995 12.44C12.1947 12.44 12.3744 12.47 12.5342 12.54C12.6939 12.6 12.8237 12.7 12.9136 12.82C13.0134 12.94 13.0533 13.08 13.0533 13.26C13.0533 13.43 13.0134 13.58 12.9136 13.71Z" fill="#282B32"/>
</svg>
