<svg width="24" height="24" viewBox="0 0 24 24" fill="none" xmlns="http://www.w3.org/2000/svg">
<path d="M18.92 13.5H12.22C14.45 10.03 12.42 5.05 11.38 2.97C11.23 2.68 11.54 2.39 11.82 2.55C18.71 6.67 19.28 11.07 18.92 13.51V13.5ZM10.42 4.2L4.67999 13.5H11V4.38C11 4.06 10.59 3.94 10.42 4.2ZM21.74 19.12C21.27 19.38 20.75 19.5 20.24 19.5C19.73 19.5 19.21 19.38 18.74 19.12L17.15 18.26C16.5 17.92 15.74 17.92 15.1 18.26L13.5 19.12C12.56 19.63 11.44 19.63 10.5 19.12L8.90999 18.26C8.26999 17.92 7.49999 17.92 6.85999 18.26L5.25999 19.12C4.31999 19.63 3.19999 19.63 2.25999 19.12C2.01999 18.99 1.92999 18.69 2.05999 18.45C2.18999 18.2 2.49999 18.11 2.73999 18.24C3.37999 18.59 4.14999 18.59 4.78999 18.24L6.37999 17.38C7.31999 16.88 8.43999 16.88 9.37999 17.38L10.98 18.24C11.62 18.59 12.38 18.59 13.03 18.24L14.62 17.38C15.56 16.88 16.68 16.88 17.62 17.38L19.21 18.24C19.86 18.59 20.62 18.59 21.26 18.24C21.51 18.11 21.81 18.2 21.94 18.45C22.07 18.69 21.98 18.99 21.74 19.12ZM21.74 21.12C21.27 21.38 20.75 21.5 20.24 21.5C19.73 21.5 19.21 21.38 18.74 21.12L17.15 20.26C16.5 19.92 15.74 19.92 15.1 20.26L13.5 21.12C12.56 21.63 11.44 21.63 10.5 21.12L8.90999 20.26C8.26999 19.92 7.49999 19.92 6.85999 20.26L5.25999 21.12C4.31999 21.63 3.19999 21.63 2.25999 21.12C2.01999 20.99 1.92999 20.69 2.05999 20.44C2.18999 20.2 2.49999 20.11 2.73999 20.24C3.37999 20.59 4.14999 20.59 4.78999 20.24L6.37999 19.38C7.31999 18.88 8.43999 18.88 9.37999 19.38L10.98 20.24C11.62 20.59 12.38 20.59 13.03 20.24L14.62 19.38C15.56 18.88 16.68 18.88 17.62 19.38L19.21 20.24C19.86 20.59 20.62 20.59 21.26 20.24C21.51 20.11 21.81 20.2 21.94 20.44C22.07 20.69 21.98 20.99 21.74 21.12ZM21.4 15.3L19.89 17.31C19.65 17.28 19.42 17.2 19.21 17.09L17.62 16.23C16.68 15.73 15.56 15.73 14.62 16.23L13.03 17.09C12.38 17.44 11.62 17.44 10.98 17.09L9.37999 16.23C8.43999 15.73 7.31999 15.73 6.37999 16.23L4.78999 17.09C4.56999 17.2 4.34999 17.28 4.10999 17.31L2.59999 15.3C2.35999 14.97 2.58999 14.5 2.99999 14.5H21C21.42 14.5 21.65 14.97 21.4 15.3Z" fill="#282B32"/>
</svg>
