<svg width="24" height="24" viewBox="0 0 24 24" fill="none" xmlns="http://www.w3.org/2000/svg">
<path d="M20.0093 19.5019C20.0093 20.6009 19.1088 21.5 18.0082 21.5C16.9077 21.5 16.0072 20.6009 16.0072 19.5019C16.0072 18.403 16.9077 17.5038 18.0082 17.5038C19.1088 17.5038 20.0093 18.403 20.0093 19.5019ZM20.1694 13.6276C17.1678 15.6057 14.5064 14.6066 11.965 17.1342C9.80388 19.2921 8.20303 19.5619 7.12246 19.3021C6.62219 19.1722 6.09191 19.3121 5.72171 19.6817L4.2009 21.2003C3.8107 21.5899 3.18036 21.5999 2.79015 21.2003C2.39995 20.8007 2.39995 20.1713 2.79015 19.7916L4.31096 18.2731C4.68116 17.9035 4.83124 17.374 4.69116 16.8744C4.44103 15.8055 4.70117 14.207 6.87232 12.0391C9.40367 9.51152 8.40314 6.84408 10.3842 3.84696C11.865 1.58913 16.2673 2.29844 18.9788 5.01583C21.6902 7.73322 22.4106 12.139 20.1594 13.6076L20.1694 13.6276ZM17.8382 6.72419C17.598 6.99393 17.3679 7.28366 17.1278 7.60335C16.7576 8.12285 16.3874 8.70229 16.0872 9.34168C16.7276 9.04197 17.3079 8.68231 17.8181 8.30268C18.0883 8.10287 18.3384 7.90306 18.5585 7.71324C18.3484 7.36358 18.1083 7.0339 17.8282 6.73418L17.8382 6.72419ZM15.5469 10.6704C15.4569 10.9501 15.3869 11.2299 15.3168 11.5296C15.617 11.4596 15.8971 11.3897 16.1673 11.2898C16.3274 10.9102 16.4774 10.5405 16.6675 10.1909C16.3173 10.3707 15.9472 10.5305 15.5569 10.6804L15.5469 10.6704ZM14.4063 11.0201C14.1862 11.07 13.9561 11.12 13.716 11.1599C13.6759 11.3997 13.6159 11.6395 13.5559 11.8693C13.786 11.8093 14.0261 11.7594 14.2663 11.7094C14.3063 11.4596 14.3563 11.2299 14.4063 11.0101V11.0201ZM14.1362 9.27175C14.0461 9.55148 13.9761 9.83121 13.9061 10.1209C14.1862 10.051 14.4764 9.98107 14.7465 9.89115C14.8966 9.50153 15.0467 9.13188 15.2368 8.79221C14.8866 8.97203 14.5164 9.13188 14.1262 9.28174L14.1362 9.27175ZM16.3073 5.4654C16.1072 5.69518 15.9171 5.93495 15.717 6.20469C15.3468 6.72419 14.9766 7.30364 14.6765 7.94302C15.3168 7.64331 15.8971 7.28366 16.4074 6.90402C16.7276 6.66425 17.0177 6.43447 17.2879 6.1947C16.9877 5.91497 16.6475 5.6752 16.3073 5.4654ZM12.9956 9.62141C12.7755 9.67136 12.5453 9.72131 12.3052 9.76128C12.2652 10.011 12.2152 10.2408 12.1451 10.4706C12.3753 10.4107 12.6154 10.3507 12.8555 10.3107C12.8955 10.071 12.9456 9.8412 12.9956 9.62141ZM13.826 7.37357C13.4758 7.5534 13.1056 7.71324 12.7254 7.87309C12.6254 8.14283 12.5553 8.42256 12.4953 8.71228C12.7855 8.65234 13.0656 8.58241 13.3458 8.4825C13.4958 8.09288 13.6459 7.72323 13.836 7.37357H13.826ZM11.7649 5.34552C12.3452 5.11574 12.9155 4.86598 12.9155 4.86598C12.9756 4.77606 13.0756 4.64619 13.1757 4.51631C13.0956 4.51631 13.0356 4.5263 12.9556 4.53629C12.7454 4.54628 12.2152 4.64619 12.0051 4.95589C11.925 5.08577 11.835 5.20565 11.7649 5.33553V5.34552ZM11.925 7.07386C12.0751 6.68423 12.2252 6.31459 12.4153 5.96492C12.0651 6.14475 11.7049 6.29461 11.3147 6.44446C11.2146 6.72419 11.1346 7.01392 11.0646 7.30364C11.3547 7.24369 11.7049 7.14379 11.935 7.07386H11.925ZM11.4348 8.9021C11.4748 8.66233 11.5248 8.43255 11.5748 8.21276C11.3947 8.25272 11.0646 8.32266 10.8144 8.37261C10.7544 8.60239 10.7044 8.85215 10.6343 9.09192C10.8945 9.03198 11.2547 8.93207 11.4448 8.91209L11.4348 8.9021ZM14.9966 5.48538C15.1867 5.33553 15.3768 5.20565 15.5369 5.0558C15.1767 4.87597 14.7765 4.7361 14.4063 4.64619C14.3663 4.69614 14.3363 4.74609 14.2963 4.79605C13.9261 5.31555 13.5559 5.89499 13.2557 6.53438C13.8961 6.23466 14.4764 5.87501 14.9866 5.48538H14.9966ZM10.9545 10.8702C11.0646 10.5705 11.1546 10.2708 11.2246 9.96108C10.9445 10.021 10.5843 10.1409 10.2841 10.2508C10.1541 10.6504 9.98398 11.06 9.75386 11.4596C10.1341 11.2299 10.5343 11.04 10.9545 10.8702ZM7.50266 16.0153C7.98291 15.5157 8.49319 14.9463 8.97344 14.3169C9.4637 13.6775 9.92395 12.9982 10.3142 12.2789C9.75386 12.5686 9.03347 12.8983 8.40314 13.3079L8.25306 13.4577C7.03241 14.6766 7.22251 15.5657 7.49265 16.0153H7.50266ZM11.1146 12.8983C11.5148 12.6685 11.925 12.4487 12.3552 12.2789C12.4653 11.9791 12.5553 11.6794 12.6354 11.3697C12.3252 11.4397 12.0251 11.5296 11.7349 11.6395C11.5548 12.0791 11.3547 12.4986 11.1146 12.8983ZM10.6944 15.5857C11.1146 14.9563 11.4348 14.237 11.7249 13.6775C10.9945 14.0671 10.3142 14.5367 9.68382 15.0162C9.06349 15.5058 8.48318 16.0153 7.99292 16.4948C8.43315 16.7446 9.31362 16.9544 10.5443 15.7255L10.6944 15.5757V15.5857ZM13.756 13.7175C13.876 13.4278 13.9861 13.0581 14.0461 12.7784C13.736 12.8483 13.4358 12.9382 13.1357 13.0481C12.9656 13.4677 12.7755 13.8673 12.5453 14.247C12.9656 14.0272 13.3658 13.8474 13.756 13.7175ZM15.647 13.198C15.687 12.9482 15.7671 12.5986 15.8071 12.4187C15.587 12.4687 15.3568 12.5186 15.1167 12.5586C15.0867 12.7384 14.9966 13.0981 14.9366 13.3678C15.1867 13.3079 15.4269 13.2479 15.657 13.198H15.647ZM19.379 9.59144C19.2789 9.2118 19.1388 8.83217 18.9588 8.46252C18.8087 8.64235 18.6786 8.81219 18.5385 9.012C18.1683 9.5315 17.7981 10.1109 17.498 10.7503C18.1383 10.4506 18.7186 10.091 19.2289 9.71132C19.2289 9.71132 19.339 9.6314 19.389 9.59144H19.379ZM17.568 12.6985C17.7181 12.3088 17.8682 11.9392 18.0583 11.5895C17.7081 11.7693 17.3379 11.9292 16.9477 12.079C16.8776 12.3088 16.7776 12.6585 16.7076 12.9582C17.0077 12.8883 17.2979 12.8083 17.568 12.7084V12.6985ZM19.0688 12.0091C19.389 11.7993 19.479 11.2698 19.489 11.06C19.489 10.9801 19.499 10.9202 19.509 10.8402C19.379 10.9401 19.2589 11.04 19.1589 11.1C19.1589 11.1 18.9087 11.6694 18.6786 12.2489C18.8087 12.179 18.9287 12.089 19.0588 12.0091H19.0688Z" fill="#282B32"/>
</svg>
