<svg width="24" height="24" viewBox="0 0 24 24" fill="none" xmlns="http://www.w3.org/2000/svg">
<path d="M19.73 8.04455C19.84 6.78591 19.44 5.52727 18.6 4.5683C17.72 3.57937 16.45 3 15.12 3H8.88001C7.55001 3 6.28001 3.57937 5.40001 4.5683C4.56001 5.52727 4.16001 6.78591 4.27001 8.04455C3.73001 8.1844 3.40001 8.70383 3.53001 9.21328C3.53001 9.21328 3.84001 10.5119 4.04001 12.0902C4.23001 13.6685 4.25001 14.987 4.25001 15.007C4.25001 15.5464 4.72001 15.986 5.29001 15.986H5.32001C5.78001 17.6841 6.80001 19.2125 8.23001 20.2613C9.36001 21.0904 10.68 21.5 12 21.5C13.32 21.5 14.64 21.0805 15.77 20.2613C17.2 19.2125 18.22 17.6841 18.68 15.986H18.71C19.28 15.986 19.75 15.5464 19.75 15.007C19.75 14.987 19.77 13.6685 19.97 12.0902C20.16 10.5119 20.47 9.22327 20.47 9.21328C20.6 8.70383 20.26 8.1844 19.73 8.04455ZM14.67 12.9992C12.81 14.2179 13.67 14.9371 14.31 15.5364C15.25 16.4155 15.76 17.9838 12 17.9838C8.24001 17.9838 8.74001 16.4155 9.68001 15.5364C10.32 14.9371 11.19 14.2179 9.32001 12.9992C7.80001 12.0103 6.36001 10.2422 7.30001 9.36312C8.24001 8.48407 9.18001 9.36312 12 9.36312C14.82 9.36312 15.76 8.48407 16.7 9.36312C17.64 10.2422 16.19 12.0103 14.67 12.9992Z" fill="#282B32"/>
</svg>
