<svg width="24" height="24" viewBox="0 0 24 24" fill="none" xmlns="http://www.w3.org/2000/svg">
<path d="M12 2.5C6.75 2.5 2.5 6.75 2.5 12C2.5 17.25 6.75 21.5 12 21.5C17.25 21.5 21.5 17.25 21.5 12C21.5 6.75 17.25 2.5 12 2.5ZM7.44 17.59L8.75 16.12H15.23L16.53 17.59H7.44ZM9.27 15.66V13.72H14.7V15.66H9.27ZM17.38 14.54C17.19 14.97 16.8 15.25 16.43 15.27C16.16 15.29 15.04 15.28 15.04 15.28V14.48C15.04 14.48 15.43 14.47 15.78 14.49C16.53 14.52 16.77 13.48 15.9 13.1C15.07 12.74 10.22 11.25 9.65 11.09C9.09 10.93 7.83 10.74 6.87 11.71C6.82 11.76 6.79 11.77 6.77 11.75C6.74 11.74 6.75 11.72 6.77 11.68L11.06 4.92C11.06 4.92 11.06 4.9 11.1 4.91C11.12 4.92 11.12 4.94 11.12 4.94C11.09 5.35 11.05 6.56 11.6 7.13C12.26 7.83 16.59 12.31 17.02 12.74C17.49 13.21 17.69 13.89 17.39 14.54H17.38Z" fill="#282B32"/>
</svg>
