<svg width="24" height="24" viewBox="0 0 24 24" fill="none" xmlns="http://www.w3.org/2000/svg">
<path d="M18 20C18 20.55 17.55 21 17 21H7C6.45 21 6 20.55 6 20C6 19.45 6.45 19 7 19H17C17.55 19 18 19.45 18 20ZM17 12H7L8 18H16L17 12ZM18 6H17.5V5.12C17.5 4.55 17.19 4.03 16.68 3.78L14.99 2.94C14.96 2.42 14.53 2 14 2C13.47 2 13 2.45 13 3C13 3.55 13.45 4 14 4C14.2 4 14.38 3.93 14.54 3.83L16.23 4.67C16.4 4.76 16.5 4.93 16.5 5.12V6H7.5V5.12C7.5 4.93 7.61 4.76 7.78 4.67L9.47 3.83C9.63 3.93 9.8 4 10 4C10.56 4 11 3.55 11 3C11 2.45 10.56 2 10 2C9.48 2 9.05 2.42 9.02 2.94L7.33 3.78C6.82 4.03 6.5 4.55 6.5 5.12V6H6C5.45 6 5 6.45 5 7V10C5 10.55 5.45 11 6 11H18C18.56 11 19 10.55 19 10V7C19 6.45 18.56 6 18 6Z" fill="#282B32"/>
</svg>
