<svg width="24" height="24" viewBox="0 0 24 24" fill="none" xmlns="http://www.w3.org/2000/svg">
<path d="M10 17.995V19.995C10 20.545 9.55 20.995 9 20.995H4C3.45 20.995 3 20.545 3 19.995V17.995C3 17.445 3.45 16.995 4 16.995H9C9.55 16.995 10 17.445 10 17.995ZM20 16.995H15C14.45 16.995 14 17.445 14 17.995V19.995C14 20.545 14.45 20.995 15 20.995H20C20.55 20.995 21 20.545 21 19.995V17.995C21 17.445 20.55 16.995 20 16.995ZM12 7.995C10.9 7.995 10 8.895 10 9.995C10 11.095 10.9 11.995 12 11.995C13.1 11.995 14 11.095 14 9.995C14 8.895 13.1 7.995 12 7.995ZM20 15.995L18.98 6.225C18.96 5.995 19.04 5.785 19.16 5.595C19.67 4.815 19.59 3.765 18.91 3.085C18.13 2.305 16.86 2.305 16.08 3.085C15.4 3.765 15.31 4.825 15.83 5.595C15.96 5.785 16.04 5.995 16.01 6.225L14.99 15.995H19.99H20ZM9 15.995L7.98 6.225C7.96 5.995 8.04 5.785 8.16 5.595C8.67 4.815 8.59 3.765 7.91 3.085C7.13 2.305 5.86 2.305 5.08 3.085C4.4 3.765 4.31 4.825 4.83 5.595C4.96 5.785 5.04 5.995 5.01 6.225L3.99 15.995H8.99H9Z" fill="#282B32"/>
</svg>
