<svg width="24" height="24" viewBox="0 0 24 24" fill="none" xmlns="http://www.w3.org/2000/svg">
<path d="M15.97 13.7641C15.84 14.4637 15.23 14.9934 14.5 14.9934C13.77 14.9934 13.16 14.4637 13.03 13.7641C13.75 13.4342 14.29 12.7846 14.45 11.995C14.47 11.995 14.48 11.995 14.5 11.995C14.52 11.995 14.53 11.995 14.55 11.995C14.71 12.7846 15.25 13.4342 15.97 13.7641ZM12 9.99605C11.27 9.99605 10.66 10.5258 10.53 11.2254C11.25 11.5552 11.79 12.2049 11.95 12.9945C11.97 12.9945 11.98 12.9945 12 12.9945C12.02 12.9945 12.03 12.9945 12.05 12.9945C12.21 12.2049 12.75 11.5552 13.47 11.2254C13.34 10.5258 12.73 9.99605 12 9.99605ZM7 9.99605C6.17 9.99605 5.5 10.6657 5.5 11.4953C5.5 12.3248 6.17 12.9945 7 12.9945C7.02 12.9945 7.03 12.9945 7.05 12.9945C7.21 12.2049 7.75 11.5552 8.47 11.2254C8.34 10.5258 7.73 9.99605 7 9.99605ZM9.55 12.005C9.55 12.005 9.52 12.005 9.5 12.005C9.48 12.005 9.47 12.005 9.45 12.005C9.29 12.7946 8.75 13.4442 8.03 13.7741C8.16 14.4737 8.77 15.0034 9.5 15.0034C10.23 15.0034 10.84 14.4737 10.97 13.7741C10.25 13.4442 9.71 12.7946 9.55 12.005ZM21.5 12.005C21.5 17.2522 17.25 21.5 12 21.5C6.75 21.5 2.5 17.2422 2.5 11.995C2.5 6.74776 6.75 2.5 12 2.5C17.25 2.5 21.5 6.74776 21.5 11.995V12.005ZM19.5 11.5053C19.5 10.126 18.38 9.00658 17 9.00658C15.79 9.00658 14.78 9.86612 14.55 11.0055C14.53 11.0055 14.52 11.0055 14.5 11.0055C14.48 11.0055 14.47 11.0055 14.45 11.0055C14.22 9.86612 13.21 9.00658 12 9.00658C10.79 9.00658 9.78 9.86612 9.55 11.0055C9.53 11.0055 9.52 11.0055 9.5 11.0055C9.48 11.0055 9.47 11.0055 9.45 11.0055C9.22 9.86612 8.21 9.00658 7 9.00658C5.62 9.00658 4.5 10.126 4.5 11.5053C4.5 12.8845 5.62 14.0039 7 14.0039C7.02 14.0039 7.03 14.0039 7.05 14.0039C7.28 15.1433 8.29 16.0029 9.5 16.0029C10.71 16.0029 11.72 15.1433 11.95 14.0039C11.97 14.0039 11.98 14.0039 12 14.0039C12.02 14.0039 12.03 14.0039 12.05 14.0039C12.28 15.1433 13.29 16.0029 14.5 16.0029C15.71 16.0029 16.72 15.1433 16.95 14.0039C16.97 14.0039 16.98 14.0039 17 14.0039C18.38 14.0039 19.5 12.8845 19.5 11.5053ZM17 10.006C16.27 10.006 15.66 10.5358 15.53 11.2354C16.25 11.5652 16.79 12.2149 16.95 13.0045C16.97 13.0045 16.98 13.0045 17 13.0045C17.83 13.0045 18.5 12.3348 18.5 11.5053C18.5 10.6757 17.83 10.006 17 10.006Z" fill="#282B32"/>
</svg>
