<svg width="24" height="24" viewBox="0 0 24 24" fill="none" xmlns="http://www.w3.org/2000/svg">
<path d="M12 2.5C6.75 2.5 2.5 6.76 2.5 12C2.5 17.24 6.75 21.5 12 21.5C17.25 21.5 21.5 17.25 21.5 12C21.5 6.75 17.24 2.5 12 2.5ZM12 17C9.24 17 7 14.76 7 12C7 9.24 9.24 7 12 7C14.76 7 17 9.24 17 12C17 14.76 14.76 17 12 17ZM12 15.25C11.54 15.25 11.13 15.2 10.79 15.09C10.44 14.98 10.16 14.84 9.93 14.66C9.71 14.48 9.54 14.27 9.42 14.03C9.3 13.79 9.25 13.53 9.25 13.26C9.25 12.93 9.34 12.64 9.51 12.38C9.68 12.13 9.9 11.93 10.16 11.79C9.94 11.65 9.77 11.48 9.66 11.27C9.54 11.06 9.49 10.82 9.49 10.54C9.49 10.2 9.58 9.9 9.76 9.63C9.94 9.36 10.22 9.14 10.58 8.98C10.95 8.82 11.42 8.74 11.99 8.74C12.56 8.74 13.03 8.82 13.4 8.98C13.77 9.14 14.04 9.35 14.22 9.63C14.4 9.9 14.49 10.2 14.49 10.54C14.49 10.81 14.43 11.05 14.32 11.27C14.21 11.48 14.04 11.66 13.83 11.8C14.11 11.93 14.33 12.13 14.5 12.39C14.67 12.65 14.75 12.94 14.75 13.27C14.75 13.63 14.65 13.96 14.45 14.26C14.25 14.56 13.94 14.8 13.54 14.98C13.13 15.16 12.62 15.25 12 15.25ZM12 14.09C12.2 14.09 12.38 14.06 12.54 13.99C12.7 13.92 12.83 13.83 12.92 13.71C13.01 13.59 13.06 13.44 13.06 13.26C13.06 13.08 13.01 12.94 12.92 12.82C12.83 12.7 12.7 12.61 12.54 12.54C12.38 12.47 12.2 12.44 12 12.44C11.8 12.44 11.62 12.47 11.46 12.54C11.3 12.61 11.17 12.7 11.08 12.82C10.99 12.94 10.94 13.09 10.94 13.26C10.94 13.43 10.99 13.58 11.08 13.71C11.17 13.83 11.3 13.93 11.46 13.99C11.62 14.06 11.8 14.09 12 14.09ZM12 11.35C12.17 11.35 12.33 11.32 12.48 11.26C12.62 11.2 12.74 11.11 12.82 11.01C12.9 10.9 12.94 10.78 12.94 10.64C12.94 10.5 12.9 10.37 12.82 10.26C12.74 10.15 12.63 10.07 12.49 10.01C12.35 9.95 12.18 9.92 12 9.92C11.82 9.92 11.66 9.95 11.52 10.01C11.38 10.07 11.27 10.15 11.19 10.26C11.11 10.37 11.07 10.49 11.07 10.64C11.07 10.79 11.11 10.91 11.19 11.02C11.27 11.13 11.38 11.21 11.52 11.27C11.66 11.33 11.82 11.36 12 11.36V11.35Z" fill="#282B32"/>
</svg>
