<svg width="24" height="24" viewBox="0 0 24 24" fill="none" xmlns="http://www.w3.org/2000/svg">
<path d="M21.5 12.02C21.5 15.88 19.2 19.2 15.9 20.7L15.46 19.66H14.23C13.99 19.3 14.02 19.23 13.61 19.19C12.68 19.14 12.56 19.02 12.56 18.34C12.56 17.72 12.83 16.57 12.86 16.12C12.88 15.55 12.81 15.34 12.81 14.94C12.81 14.54 13.08 14.09 13.12 13.15C13.17 12.21 12.95 11.53 12.95 11.53C13.15 11.5 13.39 11.36 13.46 11.19C13.56 10.96 13.87 9.68 13.87 9.17C13.87 8.95 13.85 8.77 13.8 8.63C13.58 8.1 12.93 8.19 12.64 7.86C12.55 7.76 12.49 7.76 12.49 7.38C12.64 7.18 12.68 6.87 12.68 6.42C12.68 6.04 12.39 5.75 12 5.75C11.61 5.75 11.32 6.04 11.32 6.42C11.32 6.87 11.37 7.18 11.52 7.38C11.52 7.76 11.46 7.76 11.37 7.86C11.08 8.19 10.43 8.1 10.21 8.63C10.16 8.77 10.14 8.95 10.14 9.17C10.14 9.68 10.45 10.96 10.55 11.19C10.62 11.36 10.86 11.5 11.06 11.53C11.06 11.53 10.83 12.21 10.88 13.15C10.93 14.09 11.2 14.54 11.2 14.94C11.2 15.34 11.12 15.55 11.15 16.12C11.17 16.57 11.45 17.72 11.45 18.34C11.45 19.02 11.32 19.14 10.4 19.19C9.99 19.23 10.01 19.3 9.77 19.66H8.54L8.1 20.7C4.8 19.2 2.5 15.87 2.5 12.02C2.5 6.76 6.75 2.5 12 2.5C17.25 2.5 21.5 6.76 21.5 12.02Z" fill="#282B32"/>
</svg>
