<svg width="24" height="24" viewBox="0 0 24 24" fill="none" xmlns="http://www.w3.org/2000/svg">
<path d="M11.1746 17.47C11.3547 17.85 11.2446 18.26 10.9445 18.4C10.6443 18.54 10.2541 18.35 10.084 17.97C9.91396 17.59 10.014 17.18 10.3142 17.04C10.6143 16.9 11.0045 17.09 11.1746 17.47ZM13.6958 17.04C13.996 17.18 14.096 17.6 13.926 17.97C13.7559 18.34 13.3657 18.54 13.0655 18.4C12.7654 18.26 12.6653 17.84 12.8354 17.47C13.0055 17.1 13.3957 16.9 13.6958 17.04ZM17.998 2.03C17.7779 1.92 17.5378 2.17001 17.6778 2.36001C18.088 2.91001 18.3182 3.46001 18.3182 3.91001C18.3182 5.64001 14.9265 6 12.005 6C9.08354 6 5.68184 5.64001 5.68184 3.91001C5.68184 3.46001 5.92196 2.91001 6.33217 2.36001C6.47224 2.17001 6.23212 1.92 6.01201 2.03C3.58079 3.2 2 4.98001 2 6.58001C2 8.26001 3.08054 9.47 4.83142 10.28C5.13157 10.41 5.33167 10.68 5.33167 10.99C5.33167 11.99 5.52176 12.99 5.91196 13.92L8.07304 19.15C8.53327 20.27 9.63382 21 10.8444 21H13.1556C14.3662 21 15.4667 20.27 15.927 19.15L18.088 13.92C18.4782 12.99 18.6683 11.99 18.6683 10.99C18.6683 10.68 18.8684 10.41 19.1686 10.27C20.9195 9.47001 22 8.26001 22 6.58001C22 4.90001 20.4292 3.2 17.998 2.03ZM8.48324 11.51C8.01301 11.04 7.85293 10.42 8.14307 10.14C8.42321 9.86 9.04352 10.01 9.51376 10.48C9.98399 10.95 10.1441 11.57 9.85393 11.85C9.57379 12.13 8.95348 11.98 8.48324 11.51ZM12.005 20C10.004 20 9.0035 19 9.0035 17.5C9.0035 16.12 10.3442 16 12.005 16C13.6658 16 15.0065 16.12 15.0065 17.5C15.0065 19 14.006 20 12.005 20ZM15.5168 11.51C15.0465 11.98 14.4262 12.14 14.1461 11.85C13.8659 11.57 14.016 10.95 14.4862 10.48C14.9565 10.01 15.5768 9.85 15.8569 10.14C16.1371 10.42 15.987 11.04 15.5168 11.51Z" fill="#282B32"/>
</svg>
