<svg width="24" height="24" viewBox="0 0 24 24" fill="none" xmlns="http://www.w3.org/2000/svg">
<path d="M18.8 3H8.43001C6.99001 3 5.73 3.96 5.35 5.34L2.12 16.94C1.55 18.98 3.09 21 5.2 21H15.57C17.01 21 18.27 20.04 18.65 18.66L21.88 7.06C22.45 5.02 20.91 3 18.8 3ZM5 16.32L7.4 7.68H8.39001L6 16.32H5ZM6.64 16.32L9.04 7.68H10.03L7.64 16.32H6.64ZM8.53 16.32L10.94 7.68H12.53L10.14 16.32H8.53ZM10.78 16.32L13.19 7.68H14.78L12.39 16.32H10.78ZM16.61 16.32H13.3L15.7 7.69H19.01L16.61 16.32Z" fill="#282B32"/>
</svg>
