<svg width="24" height="24" viewBox="0 0 24 24" fill="none" xmlns="http://www.w3.org/2000/svg">
<path d="M17 3H7C4.79 3 3 4.79 3 7V17C3 19.21 4.79 21 7 21H17C19.21 21 21 19.21 21 17V7C21 4.79 19.21 3 17 3ZM14.56 7.03C15.21 6.51 16.15 6.61 16.67 7.26C17.19 7.91 17.09 8.85 16.44 9.37C15.8 9.89 14.85 9.78 14.33 9.14C13.81 8.49 13.92 7.55 14.56 7.03ZM7.56 7.03C8.21 6.51 9.15 6.61 9.67 7.26C10.19 7.91 10.09 8.85 9.44 9.37C8.8 9.89 7.85 9.78 7.33 9.14C6.82 8.49 6.92 7.55 7.56 7.03ZM7.49 15.79C7.36 16.21 6.98 16.5 6.56 16.5H5.63C5.16 16.5 4.92 16.03 5.02 15.54C5.16 14.86 5.81 11.5 5.81 11.5C5.95 10.83 6.52 10.31 7.2 10.31C7.73 10.3 8.28 10.52 8.68 10.86C9.17 11.27 9.65 11.86 10.16 12.44C10.2 12.49 10.25 12.49 10.28 12.43C10.53 11.98 10.85 11.45 11.16 10.94L11.72 11.97L10.8 13.65C10.58 14.07 10.04 14.14 9.73 13.8L8.53 12.5L7.49 15.79ZM14.5 15.5H14V16C14 16.27 13.78 16.5 13.5 16.5C13.22 16.5 13 16.27 13 16V15.5H11V16C11 16.27 10.78 16.5 10.5 16.5C10.22 16.5 10 16.27 10 16V15.5H9.5C9.23 15.5 9 15.27 9 15C9 14.73 9.23 14.5 9.5 14.5H14.5C14.78 14.5 15 14.72 15 15C15 15.28 14.78 15.5 14.5 15.5ZM18.37 16.5H17.45C17.02 16.5 16.64 16.21 16.51 15.79L15.48 12.5L14.27 13.8C13.96 14.14 13.42 14.07 13.2 13.65L11.58 10.67C11.34 10.15 12.13 9.73 12.41 10.21C12.82 10.89 13.34 11.76 13.72 12.43C13.75 12.48 13.8 12.49 13.84 12.44C14.36 11.85 14.84 11.27 15.33 10.85C15.72 10.52 16.28 10.3 16.81 10.3C17.49 10.31 18.06 10.83 18.19 11.5C18.19 11.5 18.84 14.85 18.98 15.53C19.08 16.03 18.84 16.5 18.37 16.5Z" fill="#282B32"/>
</svg>
