<svg width="24" height="24" viewBox="0 0 24 24" fill="none" xmlns="http://www.w3.org/2000/svg">
<path d="M14.94 13.66C14.94 14.25 14.37 14.93 13.98 15.06C13.69 15.15 13.5 15.44 13.5 15.76V16.01H11.63C12.62 15.17 13.46 14.15 14.03 12.99C14.03 12.99 14.94 13.28 14.94 13.67V13.66ZM21 7V17C21 19.21 19.21 21 17 21H7C4.79 21 3 19.21 3 17V7C3 4.79 4.79 3 7 3H17C19.21 3 21 4.79 21 7ZM13.5 7C13.5 7.83 14.17 8.5 15 8.5C15.83 8.5 16.5 7.83 16.5 7C16.5 6.17 15.83 5.5 15 5.5C14.17 5.5 13.5 6.17 13.5 7ZM19 15.13C19 14.99 18.89 14.88 18.75 14.88C18.61 14.88 18.5 14.99 18.5 15.13C18.5 15.61 18.11 16 17.63 16H16.5V15.75C16.5 15.34 16.16 15 15.75 15H15.47C16.88 13.5 15.93 12.3 14.56 11.66C16.16 6.99 9.44 8.46 8.58 11.67L5.37 9.82C5.25 9.75 5.1 9.79 5.03 9.91C4.96 10.03 5 10.18 5.12 10.25L8.5 12.2C8.5 12.3 8.5 12.4 8.5 12.5C8.55 13 9.18 13.07 9.41 12.73L9.84 12.98C9.84 12.98 9.92 13.01 9.96 13.01C10.05 13.01 10.13 12.97 10.18 12.89C10.25 12.77 10.21 12.62 10.09 12.55L9.6 12.27C10.03 11.38 11.43 10.58 12.54 10.47C12.81 10.44 13.02 10.7 12.96 10.97C12.54 12.88 9.26 16.52 7.96 17.06C7.69 17.17 7.49 17.44 7.49 17.75V18H5.24C5.1 18 4.99 18.11 4.99 18.25C4.99 18.39 5.1 18.5 5.24 18.5H13.62C14.37 18.5 14.99 17.88 14.99 17.13C14.99 16.99 14.88 16.88 14.74 16.88C14.6 16.88 14.49 16.99 14.49 17.13C14.49 17.61 14.1 18 13.62 18H10.49V17.75C10.49 17.46 10.32 17.23 10.09 17.1C10.4 16.92 10.69 16.71 10.99 16.5H17.62C18.38 16.5 19 15.88 19 15.13Z" fill="#282B32"/>
</svg>
