<svg width="24" height="24" viewBox="0 0 24 24" fill="none" xmlns="http://www.w3.org/2000/svg">
<path d="M21.0163 19.4658C21.0163 20.5653 20.1157 21.4649 19.0151 21.4649C17.9144 21.4649 17.0139 20.5653 17.0139 19.4658C17.0139 18.3663 17.9144 17.4667 19.0151 17.4667C20.1157 17.4667 21.0163 18.3663 21.0163 19.4658ZM18.955 14.7279C18.5748 15.0578 18.1646 15.3076 17.7543 15.5076C16.0433 16.4371 13.972 16.657 12.221 16.4371C10.3599 16.1872 8.49876 16.8969 7.21799 18.2663L4.54639 21.125C4.08611 21.6148 3.31565 21.6248 2.84536 21.155C2.37508 20.6852 2.38509 19.9156 2.87538 19.4558L5.7371 16.787C7.11793 15.4976 7.81835 13.6384 7.5682 11.7692C7.34807 10.03 7.5682 7.96096 8.49876 6.25173C8.69888 5.84192 8.93903 5.4421 9.26922 5.05228C12.8914 0.764213 17.0739 2.72333 19.1752 4.82238C21.2764 6.92143 23.2376 11.1095 18.945 14.7179L18.955 14.7279ZM16.9138 7.10135C17.1139 7.30126 17.4241 7.30126 17.6242 7.10135C17.8244 6.90144 17.8244 6.59158 17.6242 6.39167C17.4241 6.19176 17.1139 6.19176 16.9138 6.39167C16.7137 6.59158 16.7137 6.90144 16.9138 7.10135ZM15.503 5.69199C15.7031 5.8919 16.0133 5.8919 16.2134 5.69199C16.4135 5.49208 16.4135 5.18222 16.2134 4.98231C16.0133 4.7824 15.7031 4.7824 15.503 4.98231C15.3028 5.18222 15.3028 5.49208 15.503 5.69199ZM15.1528 7.46119C15.3429 7.6611 15.6631 7.6611 15.8632 7.46119C16.0633 7.26128 16.0633 6.95142 15.8632 6.75151C15.6631 6.5516 15.3529 6.5516 15.1528 6.75151C14.9526 6.95142 14.9526 7.26128 15.1528 7.46119ZM13.7419 6.05182C13.942 6.25173 14.2522 6.25173 14.4523 6.05182C14.6525 5.85191 14.6525 5.54205 14.4523 5.34214C14.2622 5.14223 13.942 5.14223 13.7419 5.34214C13.5418 5.54205 13.5418 5.85191 13.7419 6.05182ZM13.3917 7.82102C13.5918 8.02093 13.902 8.02093 14.1021 7.82102C14.3022 7.62111 14.3022 7.31125 14.1021 7.11135C13.902 6.91144 13.5918 6.91144 13.3917 7.11135C13.1916 7.31125 13.1916 7.62111 13.3917 7.82102ZM11.9809 6.41166C12.181 6.61157 12.4912 6.61157 12.6913 6.41166C12.8914 6.21175 12.8914 5.90189 12.6913 5.70198C12.4912 5.50207 12.181 5.50207 11.9809 5.70198C11.7807 5.90189 11.7807 6.21175 11.9809 6.41166ZM11.6306 8.18086C11.8308 8.38077 12.1409 8.38077 12.3411 8.18086C12.5412 7.98095 12.5412 7.67109 12.3411 7.47118C12.1409 7.27127 11.8308 7.27127 11.6306 7.47118C11.4305 7.67109 11.4305 7.98095 11.6306 8.18086ZM10.9803 14.7079C10.62 14.488 10.2998 14.2381 10.0597 13.9882C9.81955 13.7483 9.5694 13.4285 9.34927 13.0687C9.20919 12.8488 8.85898 12.9687 8.84897 13.2386C8.85898 13.8483 8.84897 14.508 8.70889 14.9578C8.62884 15.1977 8.85898 15.4276 9.09912 15.3476C9.54939 15.2177 10.2098 15.1977 10.8202 15.1977C11.1003 15.1977 11.2104 14.8379 10.9903 14.6979L10.9803 14.7079ZM11.6306 11.0096C11.4305 10.8097 11.1203 10.8097 10.9202 11.0096C10.7201 11.2095 10.7201 11.5194 10.9202 11.7193C11.1103 11.9192 11.4305 11.9192 11.6306 11.7193C11.8308 11.5194 11.8308 11.2095 11.6306 11.0096ZM11.9809 9.24038C11.7807 9.04047 11.4705 9.04047 11.2704 9.24038C11.0703 9.44029 11.0703 9.75015 11.2704 9.95006C11.4605 10.15 11.7807 10.15 11.9809 9.95006C12.181 9.75015 12.181 9.44029 11.9809 9.24038ZM13.0415 12.4189C12.8414 12.219 12.5312 12.219 12.3311 12.4189C12.1309 12.6189 12.1309 12.9287 12.3311 13.1286C12.5312 13.3285 12.8414 13.3285 13.0415 13.1286C13.2416 12.9287 13.2416 12.6189 13.0415 12.4189ZM13.3917 10.6497C13.1916 10.4498 12.8814 10.4498 12.6813 10.6497C12.4812 10.8497 12.4812 11.1595 12.6813 11.3594C12.8814 11.5593 13.1916 11.5593 13.3917 11.3594C13.5918 11.1595 13.5918 10.8497 13.3917 10.6497ZM13.7419 8.88055C13.5418 8.68064 13.2316 8.68064 13.0315 8.88055C12.8314 9.08046 12.8314 9.39032 13.0315 9.59023C13.2316 9.79013 13.5418 9.79013 13.7419 9.59023C13.942 9.39032 13.942 9.08046 13.7419 8.88055ZM14.8025 12.0591C14.6024 11.8592 14.2922 11.8592 14.0921 12.0591C13.892 12.259 13.892 12.5689 14.0921 12.7688C14.2922 12.9687 14.6024 12.9687 14.8025 12.7688C14.9927 12.5689 14.9927 12.259 14.8025 12.0591ZM15.1528 10.2899C14.9526 10.09 14.6425 10.09 14.4423 10.2899C14.2522 10.4898 14.2522 10.7997 14.4423 10.9996C14.6425 11.1995 14.9526 11.1995 15.1528 10.9996C15.3429 10.7997 15.3429 10.4898 15.1528 10.2899ZM15.503 8.52071C15.3028 8.3208 14.9927 8.3208 14.7925 8.52071C14.5924 8.72062 14.5924 9.03048 14.7925 9.23039C14.9827 9.4303 15.3028 9.4303 15.503 9.23039C15.7031 9.03048 15.7031 8.72062 15.503 8.52071ZM16.5636 11.6993C16.3635 11.4994 16.0533 11.4994 15.8532 11.6993C15.6531 11.8992 15.6531 12.209 15.8532 12.409C16.0533 12.6089 16.3635 12.6089 16.5636 12.409C16.7637 12.209 16.7637 11.8992 16.5636 11.6993ZM16.9138 9.93007C16.7137 9.73016 16.4035 9.73016 16.2034 9.93007C16.0033 10.13 16.0033 10.4398 16.2034 10.6398C16.4035 10.8397 16.7137 10.8397 16.9138 10.6398C17.1139 10.4398 17.1139 10.13 16.9138 9.93007ZM17.264 8.16087C17.0639 7.96096 16.7537 7.96096 16.5536 8.16087C16.3535 8.36078 16.3535 8.67064 16.5536 8.87055C16.7537 9.07046 17.0639 9.07046 17.264 8.87055C17.4641 8.67064 17.4641 8.36078 17.264 8.16087ZM18.3247 11.3394C18.1245 11.1395 17.8144 11.1395 17.6142 11.3394C17.4141 11.5393 17.4141 11.8492 17.6142 12.0491C17.8144 12.249 18.1245 12.249 18.3247 12.0491C18.5248 11.8492 18.5248 11.5393 18.3247 11.3394ZM18.6749 9.57023C18.4748 9.37033 18.1646 9.37033 17.9644 9.57023C17.7643 9.77014 17.7643 10.08 17.9644 10.2799C18.1646 10.4798 18.4748 10.4798 18.6749 10.2799C18.875 10.08 18.875 9.77014 18.6749 9.57023ZM19.0251 7.80103C18.825 7.60112 18.5148 7.60112 18.3147 7.80103C18.1145 8.00094 18.1145 8.3108 18.3147 8.51071C18.5148 8.71062 18.825 8.71062 19.0251 8.51071C19.2252 8.3108 19.2252 8.00094 19.0251 7.80103Z" fill="#282B32"/>
</svg>
