<svg width="24" height="24" viewBox="0 0 24 24" fill="none" xmlns="http://www.w3.org/2000/svg">
<path d="M20.39 7.27L14.38 2.79C12.97 1.74 11.03 1.74 9.61001 2.79L3.61001 7.27C2.22001 8.31 1.65001 10.13 2.22001 11.77L4.45001 18.3C5.00001 19.92 6.52001 21 8.23001 21H15.78C17.49 21 19.01 19.91 19.56 18.3L21.79 11.77C22.35 10.13 21.79 8.31 20.4 7.27H20.39ZM13 9.41H9.01001C8.73001 9.41 8.51001 9.19 8.51001 8.91C8.51001 8.63 8.73001 8.41 9.01001 8.41H13.5C14.05 8.41 14.5 8.86 14.5 9.41V10.41C14.5 10.96 14.05 11.41 13.5 11.41H9.01001C8.73001 11.41 8.51001 11.19 8.51001 10.91C8.51001 10.63 8.73001 10.41 9.01001 10.41H13C13.28 10.41 13.5 10.19 13.5 9.91C13.5 9.63 13.28 9.41 13 9.41ZM13 13.41H9.01001C8.73001 13.41 8.51001 13.19 8.51001 12.91C8.51001 12.63 8.73001 12.41 9.01001 12.41H13.5C14.05 12.41 14.5 12.86 14.5 13.41V15.41C14.5 15.96 14.05 16.41 13.5 16.41H9.01001C8.73001 16.41 8.51001 16.19 8.51001 15.91C8.51001 15.63 8.73001 15.41 9.01001 15.41H13C13.28 15.41 13.5 15.19 13.5 14.91V13.91C13.5 13.63 13.28 13.41 13 13.41ZM16.49 11.06C16.49 11.29 16.4 11.5 16.24 11.66L16.13 11.77C16.05 11.85 16.05 11.97 16.13 12.05L16.24 12.16C16.4 12.32 16.49 12.53 16.49 12.75V16.4C16.49 17.5 15.6 18.4 14.49 18.4H9.00001C8.72001 18.4 8.50001 18.18 8.50001 17.9C8.50001 17.62 8.72001 17.4 9.00001 17.4H14.49C15.04 17.4 15.49 16.95 15.49 16.4V12.92C15.49 12.6 15.31 12.31 15.03 12.17C14.81 12.06 14.81 11.75 15.03 11.63C15.32 11.48 15.5 11.19 15.5 10.87V8.4C15.5 7.85 15.05 7.4 14.5 7.4H9.01001C8.73001 7.4 8.51001 7.18 8.51001 6.9C8.51001 6.62 8.73001 6.4 9.01001 6.4H14.5C15.6 6.4 16.5 7.29 16.5 8.4V11.05L16.49 11.06Z" fill="#282B32"/>
</svg>
