<svg width="24" height="24" viewBox="0 0 24 24" fill="none" xmlns="http://www.w3.org/2000/svg">
<path d="M21.5 14.5036V15.0033H2.5V14.5036C2.5 12.025 4.52 10.0061 7 10.0061H17C19.49 10.0061 21.5 12.025 21.5 14.5036ZM2.5 16.5025C2.5 18.9911 4.52 21 7 21H17C19.49 21 21.5 18.9911 21.5 16.5025V16.0028H2.5V16.5025ZM18.26 8.00722C17.89 7.74736 17.38 7.4975 16.77 7.27762C15.97 6.98778 15.34 6.36813 15.03 5.57857L14.5 4.2593C14.2 3.49972 13.46 3 12.64 3H8.03C7.5 3 7.03 3.39978 7 3.92948C6.96 4.50916 7.42 4.99889 8 4.99889H13.22C13.68 4.99889 14.08 5.30872 14.19 5.75847C14.3 6.19822 13.94 6.61799 13.48 6.57801C13.02 6.53803 12.51 6.50805 12 6.50805C9.26 6.50805 6.89 7.20766 5.74 8.00722C5.3 8.31705 5.53 9.00666 6.06 9.00666H17.94C18.47 9.00666 18.7 8.31705 18.26 8.00722Z" fill="#282B32"/>
</svg>
