<svg width="24" height="24" viewBox="0 0 24 24" fill="none" xmlns="http://www.w3.org/2000/svg">
<path d="M3.54 8.16C3.49 8.11 3.44 8.07 3.38 8.04C4.88 4.77 8.17 2.5 12 2.5C15.83 2.5 19.28 4.88 20.72 8.28L20.65 8.36C20.62 8.29 20.59 8.22 20.54 8.16C20.34 7.95 20.02 7.95 19.83 8.16L19.65 8.36C19.62 8.29 19.59 8.22 19.54 8.16C19.34 7.95 19.02 7.95 18.83 8.16L18.65 8.36C18.62 8.29 18.59 8.22 18.54 8.16C18.34 7.95 18.02 7.95 17.83 8.16L17.65 8.36C17.62 8.29 17.59 8.22 17.54 8.16C17.34 7.95 17.02 7.95 16.83 8.16L16.65 8.36C16.62 8.29 16.59 8.22 16.54 8.16C16.34 7.95 16.02 7.95 15.83 8.16L15.65 8.36C15.62 8.29 15.59 8.22 15.54 8.16C15.34 7.95 15.02 7.95 14.83 8.16L14.65 8.36C14.62 8.29 14.59 8.22 14.54 8.16C14.34 7.95 14.02 7.95 13.83 8.16L13.65 8.36C13.62 8.29 13.59 8.22 13.54 8.16C13.34 7.95 13.02 7.95 12.83 8.16L12.65 8.36C12.62 8.29 12.59 8.22 12.54 8.16C12.34 7.95 12.02 7.95 11.83 8.16L11.65 8.36C11.62 8.29 11.59 8.22 11.54 8.16C11.34 7.95 11.02 7.95 10.83 8.16L10.65 8.36C10.62 8.29 10.59 8.22 10.54 8.16C10.34 7.95 10.02 7.95 9.83 8.16L9.65 8.36C9.62 8.29 9.59 8.22 9.54 8.16C9.34 7.95 9.02 7.95 8.83 8.16L8.65 8.36C8.62 8.29 8.59 8.22 8.54 8.16C8.34 7.95 8.02 7.95 7.83 8.16L7.65 8.36C7.62 8.29 7.59 8.22 7.54 8.16C7.34 7.95 7.02 7.95 6.83 8.16L6.65 8.36C6.62 8.29 6.59 8.22 6.54 8.16C6.34 7.95 6.02 7.95 5.83 8.16L5.65 8.36C5.62 8.29 5.59 8.22 5.54 8.16C5.34 7.95 5.02 7.95 4.83 8.16L4.65 8.36C4.62 8.29 4.59 8.22 4.54 8.16C4.34 7.95 4.02 7.95 3.83 8.16L3.65 8.36C3.62 8.29 3.59 8.22 3.54 8.16ZM21.57 10.5H21.37C21.31 10.13 21.23 9.76 21.12 9.4C20.92 9.56 20.65 9.54 20.47 9.34C20.42 9.28 20.38 9.21 20.36 9.14L20.18 9.34C19.98 9.56 19.67 9.56 19.47 9.34C19.42 9.28 19.38 9.21 19.36 9.14L19.18 9.34C18.98 9.56 18.67 9.56 18.47 9.34C18.42 9.28 18.38 9.21 18.36 9.14L18.18 9.34C17.98 9.56 17.67 9.56 17.47 9.34C17.42 9.28 17.38 9.21 17.36 9.14L17.18 9.34C16.98 9.56 16.67 9.56 16.47 9.34C16.42 9.28 16.38 9.21 16.36 9.14L16.18 9.34C15.98 9.56 15.67 9.56 15.47 9.34C15.42 9.28 15.38 9.21 15.36 9.14L15.18 9.34C14.98 9.56 14.67 9.56 14.47 9.34C14.42 9.28 14.38 9.21 14.36 9.14L14.18 9.34C13.98 9.56 13.67 9.56 13.47 9.34C13.42 9.28 13.38 9.21 13.36 9.14L13.18 9.34C12.98 9.56 12.67 9.56 12.47 9.34C12.42 9.28 12.38 9.21 12.36 9.14L12.18 9.34C11.98 9.56 11.67 9.56 11.47 9.34C11.42 9.28 11.38 9.21 11.36 9.14L11.18 9.34C10.98 9.56 10.67 9.56 10.47 9.34C10.42 9.28 10.38 9.21 10.36 9.14L10.18 9.34C9.98 9.56 9.67 9.56 9.47 9.34C9.42 9.28 9.38 9.21 9.36 9.14L9.18 9.34C8.98 9.56 8.67 9.56 8.47 9.34C8.42 9.28 8.38 9.21 8.36 9.14L8.18 9.34C7.98 9.56 7.67 9.56 7.47 9.34C7.42 9.28 7.38 9.21 7.36 9.14L7.18 9.34C6.98 9.56 6.67 9.56 6.47 9.34C6.42 9.28 6.38 9.21 6.36 9.14L6.18 9.34C5.98 9.56 5.67 9.56 5.47 9.34C5.42 9.28 5.38 9.21 5.36 9.14L5.18 9.34C4.98 9.56 4.67 9.56 4.47 9.34C4.42 9.28 4.38 9.21 4.36 9.14L4.18 9.34C3.98 9.56 3.67 9.56 3.47 9.34C3.42 9.28 3.38 9.21 3.36 9.14L3.18 9.34C3.09 9.44 2.97 9.49 2.85 9.5C2.76 9.83 2.68 10.16 2.63 10.5H2.44C2.2 10.5 2 10.7 2 10.93V11.5H22V10.93C22 10.7 21.81 10.5 21.57 10.5ZM20.54 15.84C20.34 16.06 20.02 16.06 19.83 15.84L19.65 15.64C19.62 15.71 19.59 15.78 19.54 15.84C19.34 16.06 19.02 16.06 18.83 15.84L18.65 15.64C18.62 15.71 18.59 15.78 18.54 15.84C18.34 16.06 18.02 16.06 17.83 15.84L17.65 15.64C17.62 15.71 17.59 15.78 17.54 15.84C17.34 16.06 17.02 16.06 16.83 15.84L16.65 15.64C16.62 15.71 16.59 15.78 16.54 15.84C16.34 16.06 16.02 16.06 15.83 15.84L15.65 15.64C15.62 15.71 15.59 15.78 15.54 15.84C15.34 16.06 15.02 16.06 14.83 15.84L14.65 15.64C14.62 15.71 14.59 15.78 14.54 15.84C14.34 16.06 14.02 16.06 13.83 15.84L13.65 15.64C13.62 15.71 13.59 15.78 13.54 15.84C13.34 16.06 13.02 16.06 12.83 15.84L12.65 15.64C12.62 15.71 12.59 15.78 12.54 15.84C12.34 16.06 12.02 16.06 11.83 15.84L11.65 15.64C11.62 15.71 11.59 15.78 11.54 15.84C11.34 16.06 11.02 16.06 10.83 15.84L10.65 15.64C10.62 15.71 10.59 15.78 10.54 15.84C10.34 16.06 10.02 16.06 9.83 15.84L9.65 15.64C9.62 15.71 9.59 15.78 9.54 15.84C9.34 16.06 9.02 16.06 8.83 15.84L8.65 15.64C8.62 15.71 8.59 15.78 8.54 15.84C8.34 16.06 8.02 16.06 7.83 15.84L7.65 15.64C7.62 15.71 7.59 15.78 7.54 15.84C7.34 16.06 7.02 16.06 6.83 15.84L6.65 15.64C6.62 15.71 6.59 15.78 6.54 15.84C6.34 16.06 6.02 16.06 5.83 15.84L5.65 15.64C5.62 15.71 5.59 15.78 5.54 15.84C5.34 16.06 5.02 16.06 4.83 15.84L4.65 15.64C4.62 15.71 4.59 15.78 4.54 15.84C4.34 16.06 4.02 16.06 3.83 15.84L3.65 15.64C3.62 15.71 3.59 15.78 3.54 15.84C3.49 15.89 3.44 15.93 3.38 15.96C4.88 19.23 8.17 21.5 12 21.5C15.83 21.5 19.28 19.12 20.72 15.72L20.65 15.64C20.62 15.71 20.59 15.78 20.54 15.84ZM2 12.5V13.07C2 13.31 2.2 13.5 2.44 13.5H2.63C2.68 13.84 2.76 14.17 2.85 14.5C2.97 14.51 3.09 14.57 3.18 14.66L3.36 14.86C3.38 14.79 3.42 14.72 3.47 14.66C3.67 14.45 3.98 14.45 4.18 14.66L4.36 14.86C4.38 14.79 4.42 14.72 4.47 14.66C4.67 14.45 4.98 14.45 5.18 14.66L5.36 14.86C5.38 14.79 5.42 14.72 5.47 14.66C5.67 14.45 5.98 14.45 6.18 14.66L6.36 14.86C6.38 14.79 6.42 14.72 6.47 14.66C6.67 14.45 6.98 14.45 7.18 14.66L7.36 14.86C7.38 14.79 7.42 14.72 7.47 14.66C7.67 14.45 7.98 14.45 8.18 14.66L8.36 14.86C8.38 14.79 8.42 14.72 8.47 14.66C8.67 14.45 8.98 14.45 9.18 14.66L9.36 14.86C9.38 14.79 9.42 14.72 9.47 14.66C9.67 14.45 9.98 14.45 10.18 14.66L10.36 14.86C10.38 14.79 10.42 14.72 10.47 14.66C10.67 14.45 10.98 14.45 11.18 14.66L11.36 14.86C11.38 14.79 11.42 14.72 11.47 14.66C11.67 14.45 11.98 14.45 12.18 14.66L12.36 14.86C12.38 14.79 12.42 14.72 12.47 14.66C12.67 14.45 12.98 14.45 13.18 14.66L13.36 14.86C13.38 14.79 13.42 14.72 13.47 14.66C13.67 14.45 13.98 14.45 14.18 14.66L14.36 14.86C14.38 14.79 14.42 14.72 14.47 14.66C14.67 14.45 14.98 14.45 15.18 14.66L15.36 14.86C15.38 14.79 15.42 14.72 15.47 14.66C15.67 14.45 15.98 14.45 16.18 14.66L16.36 14.86C16.38 14.79 16.42 14.72 16.47 14.66C16.67 14.45 16.98 14.45 17.18 14.66L17.36 14.86C17.38 14.79 17.42 14.72 17.47 14.66C17.67 14.45 17.98 14.45 18.18 14.66L18.36 14.86C18.38 14.79 18.42 14.72 18.47 14.66C18.67 14.45 18.98 14.45 19.18 14.66L19.36 14.86C19.38 14.79 19.42 14.72 19.47 14.66C19.67 14.45 19.98 14.45 20.18 14.66L20.36 14.86C20.38 14.79 20.42 14.72 20.47 14.66C20.65 14.47 20.92 14.45 21.12 14.6C21.23 14.24 21.31 13.87 21.37 13.5H21.57C21.81 13.5 22 13.31 22 13.07V12.5H2Z" fill="#282B32"/>
</svg>
