<svg width="24" height="24" viewBox="0 0 24 24" fill="none" xmlns="http://www.w3.org/2000/svg">
<path d="M6.66767 7.19C5.50825 7.44 4.45877 7.84 3.55922 8.38C3.23938 8.57 2.9995 8.88 2.88956 9.23C2.68966 9.89 2.55972 10.59 2.49975 11.3C2.47976 11.61 2.7996 11.82 3.07946 11.68C4.52874 10.96 6.13793 10.57 7.77711 10.57C9.16642 10.57 10.5657 10.87 11.915 11.45C13.1444 10.53 14.1139 9.36 14.7736 8.01C12.075 6.95 9.24638 6.64 6.66767 7.19ZM6.07796 11.74C4.96852 11.93 3.90905 12.33 2.93953 12.9C2.69965 13.05 2.56972 13.33 2.6097 13.61C2.87956 15.2 3.53923 16.66 4.49875 17.87L5.57821 17.36C6.29785 17.03 7.11744 16.93 7.89705 17.06C7.03748 15.5 6.3978 13.69 6.07796 11.74ZM15.3133 3.1C14.2839 2.71 13.1544 2.5 11.985 2.5C8.77661 2.5 5.94803 4.09 4.21889 6.52C4.09895 6.69 4.26887 6.9 4.45877 6.82C5.08846 6.56 5.75812 6.36 6.46777 6.21C7.37731 6.01 8.32684 5.92 9.29635 5.92C11.2354 5.92 13.2244 6.35 15.1634 7.11C15.3533 6.58 15.5132 6.03 15.6132 5.47C15.7231 4.89 15.7631 4.31 15.7631 3.74C15.7631 3.45 15.5832 3.2 15.3133 3.1ZM11.5352 12.37C10.086 11.74 8.54673 11.5 7.06747 11.61C7.44728 13.87 8.26687 15.91 9.38631 17.58L10.7556 18.22C11.5252 18.59 12.4548 18.59 13.2344 18.22L13.934 17.89C12.6447 16.37 11.7851 14.47 11.5352 12.36V12.37ZM18.8916 5.49C18.4418 5 17.922 4.55 17.3623 4.16C17.1024 3.99 16.7526 4.16 16.7326 4.47C16.7126 4.86 16.6627 5.25 16.5927 5.64C16.1229 8.3 14.6837 10.62 12.5247 12.24C12.7046 13.82 13.2644 15.27 14.1139 16.5C16.3928 14.64 18.062 12.29 18.8416 9.75C19.1914 8.62 19.3413 7.51 19.3013 6.46C19.2814 6.1 19.1414 5.76 18.8916 5.49ZM20.6107 7.99C20.5207 7.81 20.2509 7.85 20.2309 8.05C20.1409 8.71 20.001 9.38 19.8011 10.04C18.9615 12.78 17.1724 15.31 14.7236 17.3C14.7736 17.36 14.8236 17.41 14.8736 17.46L15.0835 17.36C16.1229 16.88 17.3623 16.88 18.4018 17.36L19.4813 17.86C20.7406 16.24 21.4903 14.21 21.4903 12.02C21.4903 10.58 21.1704 9.21 20.6107 7.99ZM21.99 20.5C21.99 20.77 21.7701 21 21.4903 21H2.49975C2.21989 21 2 20.77 2 20.5V20C2 19.72 2.22989 19.5 2.49975 19.5C2.93953 19.5 3.35932 19.41 3.73913 19.23L5.57821 18.37C6.61769 17.89 7.86707 17.89 8.90655 18.37L10.7556 19.23C11.5352 19.6 12.4648 19.6 13.2344 19.23L15.0835 18.37C16.1229 17.89 17.3723 17.89 18.4118 18.37L20.2609 19.23C20.6307 19.41 21.0605 19.5 21.5002 19.5C21.7801 19.5 22 19.72 22 20V20.51L21.99 20.5Z" fill="#282B32"/>
</svg>
