<svg width="24" height="24" viewBox="0 0 24 24" fill="none" xmlns="http://www.w3.org/2000/svg">
<path d="M9.44524 7.6728L8.29556 11.1347C8.1256 11.6549 7.63573 12.0051 7.09588 12.0051H4.92647C4.37661 12.0051 3.88675 11.6549 3.71679 11.1347L2.5671 7.6728C2.32717 6.95241 2.75705 6.23202 3.43687 6.05192C3.96672 6.92239 4.92646 7.5027 6.00617 7.5027C7.08588 7.5027 8.04562 6.92239 8.57548 6.05192C9.26529 6.23202 9.68518 6.95241 9.44524 7.6728ZM20.5622 6.05192C20.0324 6.92239 19.0826 7.5027 17.9929 7.5027C16.9032 7.5027 15.9535 6.92239 15.4236 6.05192C14.7438 6.23202 14.3139 6.95241 14.5539 7.6728L15.9935 12.0051H19.9924L21.432 7.6728C21.6719 6.95241 21.2521 6.23202 20.5622 6.05192ZM6.01617 2.5C4.91647 2.5 4.01671 3.40049 4.01671 4.50108C4.01671 5.60168 4.90647 6.50216 6.01617 6.50216C7.12587 6.50216 8.01563 5.60168 8.01563 4.50108C8.01563 3.40049 7.12587 2.5 6.01617 2.5ZM8.37553 19.0089C8.01563 19.0089 7.72571 18.7088 7.7457 18.3386L8.01563 13.0057H4.01671L4.28664 18.3386C4.30663 18.6988 4.01671 19.0089 3.65681 19.0089C3.3069 19.0089 3.02698 19.2891 3.02698 19.6393V20.3697C3.02698 20.7198 3.3069 21 3.65681 21H8.38553C8.73544 21 9.01536 20.7198 9.01536 20.3697V19.6393C9.01536 19.2891 8.73544 19.0089 8.38553 19.0089H8.37553ZM20.3623 19.0089C20.0024 19.0089 19.7125 18.7088 19.7325 18.3386L20.0024 13.0057H16.0035L16.2734 18.3386C16.2934 18.6988 16.0035 19.0089 15.6436 19.0089C15.2937 19.0089 15.0137 19.2891 15.0137 19.6393V20.3697C15.0137 20.7198 15.2937 21 15.6436 21H20.3723C20.7222 21 21.0021 20.7198 21.0021 20.3697V19.6393C21.0021 19.2891 20.7222 19.0089 20.3723 19.0089H20.3623ZM18.0029 2.5C16.9032 2.5 16.0035 3.40049 16.0035 4.50108C16.0035 5.60168 16.8932 6.50216 18.0029 6.50216C19.1126 6.50216 20.0024 5.60168 20.0024 4.50108C20.0024 3.40049 19.1126 2.5 18.0029 2.5ZM13.3342 7.00243H10.6749L10.0051 9.00352H14.004L13.3342 7.00243ZM12.0046 15.0068C10.9049 15.0068 10.0151 15.8972 10.0151 17.0078C10.0151 18.1184 10.9049 19.0089 12.0046 19.0089C13.1043 19.0089 13.994 18.1184 13.994 17.0078C13.994 15.8972 13.1043 15.0068 12.0046 15.0068Z" fill="#282B32"/>
</svg>
