<svg width="24" height="24" viewBox="0 0 24 24" fill="none" xmlns="http://www.w3.org/2000/svg">
<path d="M12 2.5C6.75 2.5 2.5 6.76 2.5 12C2.5 17.24 6.75 21.5 12 21.5C17.25 21.5 21.5 17.25 21.5 12C21.5 6.75 17.25 2.5 12 2.5ZM9 12.88C9 13.36 8.61 13.75 8.13 13.75H6.38C5.89 13.75 5.5 13.36 5.5 12.88V11.13C5.5 10.64 5.89 10.25 6.38 10.25H8.13C8.61 10.25 9 10.64 9 11.13V12.88ZM12 14C10.9 14 10 13.11 10 12C10 10.89 10.9 10 12 10C13.1 10 14 10.9 14 12C14 13.1 13.11 14 12 14ZM18.76 13.75H15.24C14.91 13.75 14.71 13.43 14.87 13.17L16.63 10.44C16.8 10.19 17.21 10.19 17.37 10.44L19.13 13.17C19.3 13.43 19.09 13.75 18.76 13.75Z" fill="#282B32"/>
</svg>
