<svg width="24" height="24" viewBox="0 0 24 24" fill="none" xmlns="http://www.w3.org/2000/svg">
<path d="M14.99 12.86C15.05 12.9 15.17 12.97 15.28 13.05L13.94 15.38L13.63 15.2C13.34 15.03 13 15.09 12.76 15.3C12.46 14.2 11.99 13 11.27 12.15C12.4 11.73 13.99 12.2 14.99 12.86ZM21 7V17C21 19.21 19.21 21 17 21H7C4.79 21 3 19.21 3 17V7C3 4.79 4.79 3 7 3H17C19.21 3 21 4.79 21 7ZM11.08 6.5C11.08 7.33 11.75 8 12.58 8C13.41 8 14.08 7.33 14.08 6.5C14.08 5.67 13.41 5 12.58 5C11.75 5 11.08 5.67 11.08 6.5ZM16.89 8.77C16.77 8.7 16.62 8.74 16.56 8.86C16.49 8.98 16.53 9.13 16.65 9.2C16.82 9.3 16.94 9.45 16.99 9.64C17.04 9.83 17.01 10.03 16.92 10.19L16.53 10.86L16.24 10.69C15.88 10.48 15.42 10.61 15.22 10.96L14.93 11.46C13.73 10.49 12.1 10.28 10.61 10.67C10.75 10.51 11.16 10.11 11.5 9.79C13.04 10.36 14.93 10.07 16.09 8.88C16.53 8.47 15.92 7.75 15.44 8.12C13.09 9.75 9.97 8.44 9.9 5.48C9.89 5.22 9.68 5.01 9.42 5C8.39 5.03 9.06 7.33 9.38 7.94C9.5 8.2 9.66 8.42 9.83 8.63C9.22 9.19 8.59 9.86 8.23 10.81C8.05 11.36 7.84 12.02 8.18 12.55C8.49 13.09 9.26 13.27 9.79 12.98C10.48 13.64 11.55 14.65 12.01 16.6C12.08 16.89 12.09 17.21 12.37 17.37L12.69 17.56L12.35 18.16C12.15 18.51 11.71 18.63 11.36 18.43C11.24 18.36 11.09 18.4 11.03 18.52C10.96 18.64 11 18.79 11.12 18.86C11.31 18.97 11.52 19.02 11.72 19.02C12.14 19.02 12.55 18.8 12.77 18.41L17.33 10.45C17.66 9.87 17.47 9.11 16.89 8.77Z" fill="#282B32"/>
</svg>
