<svg width="24" height="24" viewBox="0 0 24 24" fill="none" xmlns="http://www.w3.org/2000/svg">
<path d="M16.81 6.66998C16.57 5.50998 16.16 4.45998 15.62 3.55998C15.43 3.23998 15.13 2.99998 14.77 2.88998C14.11 2.68998 13.42 2.55998 12.71 2.49998C12.4 2.47998 12.18 2.79998 12.32 3.07998C13.04 4.52998 13.43 6.13998 13.43 7.77998C13.43 9.16998 13.14 10.57 12.56 11.92C12.96 12.45 13.4 12.94 13.89 13.36C14.68 12.67 15.68 12.2 16.79 12.05C17.16 10.22 17.18 8.38998 16.81 6.66998ZM11.1 2.93998C10.96 2.69998 10.67 2.56998 10.39 2.60998C6.15 3.31998 2.86 6.84998 2.5 11.2C2.5 11.4 2.74 11.49 2.86 11.34C4.89 8.71998 8.26 6.73998 12.27 6.07998C12.07 4.96998 11.68 3.90998 11.1 2.93998ZM17.48 4.21998C17.32 4.09998 17.11 4.26998 17.18 4.45998C17.44 5.08998 17.65 5.75998 17.8 6.46998C18 7.37998 18.09 8.32998 18.09 9.29998C18.09 10.19 18 11.1 17.82 12.01C19.18 12.08 20.43 12.66 21.36 13.59C21.45 13.07 21.5 12.54 21.5 11.99C21.5 8.77998 19.91 5.94998 17.48 4.21998ZM12.4 7.06998C8.1 7.78998 4.58 10.12 2.88 13.07C2.69 13.4 2.63 13.79 2.72 14.16C2.88 14.85 3.11 15.5 3.41 16.12C3.55 16.4 3.93 16.42 4.1 16.17C5.76 13.68 8.46 11.91 11.64 11.54C12.27 10.09 12.51 8.54998 12.4 7.06998ZM11.77 12.53C10.18 12.71 8.73 13.27 7.5 14.12C8.8 15.72 10.34 17.01 12.02 17.91C11.91 16.48 12.36 15.14 13.19 14.09C12.67 13.62 12.19 13.1 11.77 12.53ZM12.25 19.15C10.17 18.18 8.27 16.66 6.71 14.73C5.86 15.45 5.14 16.32 4.59 17.29C4.45 17.54 4.48 17.85 4.67 18.07C6.42 20.17 9.05 21.5 11.99 21.5C12.54 21.5 13.07 21.45 13.6 21.37C12.99 20.77 12.52 20.01 12.25 19.15ZM18.93 16.27C19.06 16.51 19.12 16.78 19.12 17.08V17.11H15.88V17.08C15.88 16.77 15.94 16.5 16.07 16.27C16.2 16.03 16.38 15.84 16.62 15.7C16.86 15.56 17.15 15.49 17.49 15.49C17.83 15.49 18.12 15.56 18.37 15.7C18.61 15.84 18.8 16.03 18.93 16.27ZM22 17.5C22 19.98 19.99 22 17.5 22C15.01 22 13 19.99 13 17.5C13 15.01 15.01 13 17.5 13C19.99 13 22 15.01 22 17.5ZM20.24 17.42C20.24 16.88 20.14 16.41 19.93 16C19.72 15.59 19.41 15.29 19 15.07C18.59 14.85 18.09 14.74 17.49 14.74C16.95 14.74 16.49 14.84 16.09 15.04C15.69 15.24 15.38 15.52 15.15 15.88C14.92 16.24 14.79 16.67 14.76 17.15C14.76 17.24 14.75 17.35 14.75 17.49C14.75 17.63 14.75 17.74 14.76 17.83C14.81 18.58 15.07 19.17 15.55 19.6C16.03 20.03 16.68 20.25 17.5 20.25C17.9 20.25 18.26 20.2 18.58 20.11C18.9 20.02 19.17 19.9 19.38 19.76C19.6 19.62 19.76 19.47 19.88 19.33C20 19.18 20.06 19.06 20.07 18.96C20.07 18.89 20.06 18.84 20.01 18.8C19.96 18.76 19.9 18.74 19.83 18.74H19.25C19.16 18.74 19.1 18.74 19.06 18.77C19.02 18.79 18.97 18.84 18.89 18.92C18.85 18.97 18.77 19.05 18.65 19.14C18.53 19.23 18.38 19.31 18.19 19.39C18 19.47 17.76 19.5 17.48 19.5C17.16 19.5 16.88 19.43 16.63 19.28C16.39 19.13 16.21 18.94 16.08 18.69C15.95 18.45 15.88 18.19 15.87 17.91V17.82H19.96C20.04 17.82 20.1 17.8 20.16 17.76C20.22 17.72 20.24 17.66 20.24 17.59V17.42Z" fill="#282B32"/>
</svg>
