<svg width="24" height="24" viewBox="0 0 24 24" fill="none" xmlns="http://www.w3.org/2000/svg">
<path d="M17 3H7C4.79 3 3 4.79 3 7V17C3 19.21 4.79 21 7 21H17C19.21 21 21 19.21 21 17V7C21 4.79 19.21 3 17 3ZM15.35 6.6C15.88 5.97 16.83 5.88 17.46 6.42C18.09 6.96 18.18 7.9 17.65 8.53C17.12 9.16 16.17 9.25 15.54 8.71C14.91 8.18 14.82 7.23 15.35 6.6ZM16.91 11.42C16 11.93 15.15 11.31 14.55 10.64C13.85 11.08 13.13 11.6 12.5 12.15C13.34 12.65 14.3 13.22 15.08 13.86C15.77 14.42 15.51 15.25 14.64 15.45C13.91 15.61 13.14 15.65 12.22 15.59L11.86 16.39C11.69 16.77 11.24 16.93 10.87 16.76C10.49 16.59 10.33 16.14 10.5 15.77L10.92 14.86C11.09 14.48 11.55 14.3 11.91 14.49C12.3 14.69 13.44 14.51 13.44 14.51C12.82 14.22 12.07 13.98 11.4 13.55C10.37 14.51 8.94 15.52 7.5 16.32L7.33 17.31C7.26 17.72 6.87 17.99 6.47 17.93C6.06 17.86 5.79 17.47 5.85 17.07L6.02 16.07C6.09 15.66 6.48 15.36 6.88 15.45C7.34 15.56 9.64 13.35 10.45 12.2C10.41 11.09 11.89 10.04 12.97 9.31C11.8 8.99 10.37 9.73 9.27 10.41C8.75 10.74 8.21 9.94 8.71 9.58C11.59 7.38 13.68 7.19 15.89 10.24C16.13 10.42 16.16 10.46 16.44 10.37C16.9 10.29 17.52 9.24 18.05 9.83C18.49 10.45 17.44 11.09 16.91 11.43V11.42Z" fill="#282B32"/>
</svg>
