<svg width="24" height="24" viewBox="0 0 24 24" fill="none" xmlns="http://www.w3.org/2000/svg">
<path d="M17 3H7C4.79 3 3 4.79 3 7V17C3 19.21 4.79 21 7 21H17C19.21 21 21 19.21 21 17V7C21 4.79 19.21 3 17 3ZM10.52 6C11.35 6 12.02 6.67 12.02 7.5C12.02 8.33 11.35 9 10.52 9C9.69 9 9.02 8.33 9.02 7.5C9.02 6.67 9.69 6 10.52 6ZM17.76 17.83H16.28C15.87 17.83 15.54 17.5 15.54 17.1C15.54 17.02 15.54 16.87 15.44 16.83C13.76 16.16 12.12 15.62 10.73 14.41C9.83 14.32 8.82 14.23 8.02 14.48C7.61 14.64 7.51 14.74 7.51 15.11C7.54 15.49 7.6 16.06 7.99 16.42C8.21 16.62 8.46 16.79 8.46 17.1C8.46 17.5 8.13 17.83 7.72 17.83H6.24C5.83 17.83 5.5 17.5 5.5 17.1C5.5 16.7 5.83 16.37 6.24 16.37H6.82C6.45 15.68 6.15 14.81 6.64 14.07C7.38 13.17 8.46 13 9.55 12.97C9.21 12.25 9.07 11.41 9.18 10.66C9.18 10.66 9.18 10.66 9.18 10.65C7.56 9.77 6.47 8.23 6.61 5.81C6.61 5.16 7.59 5.16 7.6 5.81C7.63 10.55 13.02 10.7 16.59 10.09C17.19 9.97 17.42 10.86 16.83 11.04C15.06 11.59 12.94 11.74 11.09 11.34C10.95 13.95 14.95 15.19 16.91 16.37H17.76C18.17 16.37 18.5 16.7 18.5 17.1C18.5 17.5 18.17 17.83 17.76 17.83Z" fill="#282B32"/>
</svg>
