<svg width="24" height="24" viewBox="0 0 24 24" fill="none" xmlns="http://www.w3.org/2000/svg">
<path d="M5.78827 14.85C4.7888 14.58 3.84929 14.24 2.98974 13.84C2.76986 13.74 2.61994 13.54 2.58995 13.3C2.52998 12.87 2.5 12.44 2.5 11.99C2.5 11.54 2.52998 11.13 2.57996 10.72C2.60994 10.51 2.83982 10.4 3.02972 10.5C4.04918 11.1 5.3485 11.59 6.8677 11.93C6.43793 12.9 6.07812 13.88 5.78827 14.84V14.85ZM7.29747 6.83C6.26802 7.77 5.51841 9.02 5.19858 10.42C5.82825 10.65 6.51789 10.85 7.29747 11.01C7.76723 10.05 8.28695 9.14 8.84666 8.28C8.32693 7.7 7.80721 7.23 7.29747 6.83ZM9.51631 9.07C8.3869 10.98 7.19753 13.5 6.45792 16.23C7.14755 17.14 8.05708 17.87 9.09653 18.35C9.54629 16.09 10.6457 13.4 11.4253 11.99C10.8356 10.92 10.186 9.93 9.51631 9.07ZM12.3348 4.02C12.6746 3.7 13.0345 3.39 13.3843 3.11C13.5942 2.95 13.5042 2.61 13.2443 2.58C12.8346 2.53 12.4248 2.5 11.995 2.5C7.90715 2.5 4.41899 5.09 3.08969 8.72C2.96975 9.04 3.08969 9.39 3.38953 9.57C3.6494 9.73 3.93924 9.88 4.25907 10.03C5.13861 6.56 8.43688 4.02 12.3448 4.02H12.3348ZM13.954 18.7C13.824 18.04 13.6541 17.34 13.4243 16.61C12.5947 16.69 11.5752 16.7 10.5757 16.61C10.3459 17.35 10.176 18.04 10.046 18.71C10.6657 18.89 11.3154 19 11.995 19C12.6746 19 13.3343 18.89 13.954 18.7ZM11.995 20C8.88664 20 6.22804 18.2 4.90873 15.6C4.44897 15.46 3.99921 15.3 3.56944 15.13C3.32956 15.04 3.08969 15.28 3.17964 15.52C4.57891 19.02 7.99711 21.5 11.995 21.5C12.5647 21.5 13.1144 21.45 13.6441 21.36C13.9939 21.3 14.2438 20.98 14.2238 20.63C14.2038 20.33 14.1739 20.02 14.1239 19.7C13.4442 19.89 12.7346 20 11.995 20ZM15.6831 11.2C15.1733 10.1 13.1444 6.79 11.3054 5.03C10.126 5.15 9.03656 5.56 8.09705 6.19C9.5363 7.34 11.3653 9.55 12.2948 11.47C13.5142 11.47 14.6536 11.36 15.6831 11.2ZM18.8114 10.41C18.4816 9 17.712 7.76 16.6725 6.82C16.1728 7.21 15.6731 7.69 15.1733 8.25C15.733 9.12 16.2428 10.04 16.7125 11.01C17.4821 10.85 18.1718 10.64 18.8114 10.41ZM14.4337 16.53C14.8635 17.96 15.1234 19.31 15.2133 20.52C15.2233 20.72 15.4332 20.86 15.6231 20.78C16.4027 20.46 17.1323 20.03 17.8019 19.52C17.9918 19.37 18.0918 19.13 18.0618 18.88C17.9519 17.96 17.772 17 17.5121 16.04C16.5326 16.26 15.5032 16.43 14.4337 16.53ZM14.5936 7.41C15.5931 6.32 16.4926 5.57 17.772 5.02C17.9819 4.93 18.0218 4.65 17.8419 4.51C17.1423 3.96 16.3627 3.51 15.5331 3.18C15.3233 3.09 15.0734 3.12 14.8835 3.25C14.1339 3.75 13.4043 4.35 12.7046 5.04C13.3743 5.76 14.0039 6.55 14.6036 7.41H14.5936ZM18.9613 11.41C18.2217 11.67 15.2533 12.55 12.3248 12.47C11.7651 13.39 11.1654 14.71 10.9156 15.61C12.9945 15.8 16.2228 15.44 18.3816 14.79C18.7614 13.93 18.9913 12.99 18.9913 12C18.9913 11.8 18.9713 11.61 18.9613 11.41ZM19.3611 6.01C19.1912 5.81 18.9314 5.72 18.6715 5.77C18.5416 5.8 18.4016 5.83 18.2717 5.89C18.0218 5.98 17.772 6.1 17.5221 6.25C19.0313 7.7 19.9908 9.74 19.9908 12.01C19.9908 13.61 19.4611 15.21 18.6115 16.47C18.7115 16.93 18.8014 17.38 18.8814 17.82C18.9214 18.07 19.2512 18.16 19.4111 17.96C20.7204 16.33 21.5 14.26 21.5 12.01C21.5 9.76 20.7004 7.65 19.3711 6.02L19.3611 6.01Z" fill="#282B32"/>
</svg>
