<svg width="24" height="24" viewBox="0 0 24 24" fill="none" xmlns="http://www.w3.org/2000/svg">
<path d="M18.9619 5.43159C19.1122 5.59143 19.0421 5.85116 18.8316 5.92109C16.9977 6.5005 15.6147 6.54046 16.6169 4.57247C16.7472 4.32273 16.4966 4.053 16.2361 4.16289C13.871 5.15188 7.68772 8.18877 9.56174 4.5425C9.682 4.30275 9.44148 4.03302 9.18092 4.13292C8.35916 4.46258 7.07641 5.04199 5.85378 5.51151C5.54312 5.63139 5.29258 5.24179 5.5331 5.01202C7.26682 3.39368 9.5417 2.42467 12.3377 2.50459C14.9834 2.58451 17.2783 3.67339 18.9519 5.4216L18.9619 5.43159ZM21.0965 13.1537C18.531 14.1926 15.9855 14.9119 17.5188 12.2946C17.6591 12.0448 17.4086 11.7651 17.148 11.875C14.6226 12.9339 8.28901 16.0507 10.5038 12.2446C10.6441 12.0049 10.3935 11.7152 10.133 11.825C8.39924 12.5343 4.58105 14.2126 3.09787 14.1227C2.88742 14.1127 2.7371 14.3025 2.78721 14.5023V14.5223C2.96759 15.1616 3.67912 15.5013 4.29043 15.2416C4.75142 15.0517 5.1623 14.8719 5.50303 14.7421C5.75357 14.6422 6.00411 14.9119 5.87383 15.1516C4.00983 18.7779 10.1731 15.761 12.5381 14.822C12.7887 14.7221 13.0392 14.9918 12.9089 15.2316C11.0449 18.8578 17.1981 15.781 19.5732 14.822C19.8338 14.7221 20.0743 14.9918 19.954 15.2316C19.4329 16.2405 19.5632 16.6701 20.0743 16.8099C20.2046 16.8499 20.3449 16.79 20.405 16.6701C20.9762 15.6811 21.327 14.6522 21.4973 13.4834C21.5274 13.2536 21.3069 13.0638 21.0965 13.1537ZM5.64333 19.0676C7.26682 20.5162 9.39137 21.4152 11.7264 21.4951C13.9912 21.5651 16.0757 20.8758 17.7493 19.6371C18.0199 19.4373 17.7994 19.0077 17.4787 19.1076C15.6949 19.657 14.4823 19.5971 15.6548 17.5792C15.7951 17.3294 15.5446 17.0397 15.284 17.1496C12.6784 18.2185 6.33482 21.4252 8.53955 17.6391C8.67985 17.3894 8.42931 17.1096 8.15873 17.2195C7.5374 17.4793 6.69559 17.8589 5.78363 18.2385C5.4429 18.3783 5.36273 18.8179 5.63331 19.0676H5.64333ZM3.13796 11.1158C4.56101 10.6263 6.20454 9.85706 7.19666 9.45747C7.45722 9.35757 7.69774 9.6273 7.57748 9.86705C5.66338 13.5733 11.9068 10.5264 14.2718 9.50742C14.5324 9.39753 14.7829 9.66726 14.6627 9.90701C12.959 13.2736 18.1902 10.7961 20.7558 9.71721C21.0263 9.60732 21.1566 9.30762 21.0764 9.0379C20.9862 8.75819 20.6956 8.58836 20.405 8.65829C19.002 8.99794 18.2303 8.78816 19.2425 7.05993C19.3928 6.81018 19.1323 6.52048 18.8717 6.63037C16.3563 7.68928 10.1229 10.7561 12.3076 6.99C12.4479 6.74025 12.1974 6.46054 11.9268 6.57043C9.37133 7.64932 2.95757 10.8061 5.21241 6.95004C5.35271 6.70029 5.11219 6.42058 4.84161 6.52048C4.84161 6.52048 4.83159 6.52048 4.82157 6.52048C4.24032 6.74025 3.75929 7.16981 3.46867 7.71925C3.00768 8.59835 2.66695 9.53739 2.5066 10.5563C2.44648 10.926 2.80725 11.2357 3.16802 11.1058L3.13796 11.1158Z" fill="#282B32"/>
</svg>
