<svg width="24" height="24" viewBox="0 0 24 24" fill="none" xmlns="http://www.w3.org/2000/svg">
<path d="M17 3H7C4.79 3 3 4.79 3 7V17C3 19.21 4.79 21 7 21H17C19.21 21 21 19.21 21 17V7C21 4.79 19.21 3 17 3ZM16.87 5.5C17.7 5.5 18.37 6.17 18.37 7C18.37 7.83 17.7 8.5 16.87 8.5C16.04 8.5 15.37 7.83 15.37 7C15.37 6.17 16.04 5.5 16.87 5.5ZM18.21 10.58L5.48 17.93C5.48 17.93 5.4 17.96 5.36 17.96C5.27 17.96 5.19 17.92 5.14 17.84C5.07 17.72 5.11 17.57 5.23 17.5L7.22 16.35C7.06 16.31 6.88 16 7.01 15.56C7.91 13 8.85 11.31 10.81 9.56C9.61 9.64 8.41 9.69 7.19 9.68C6.62 9.69 6.52 8.82 7.07 8.69C9.3 8.11 11.55 7.76 13.82 7.46C15.24 7.27 15.37 8.84 14.47 9.21C13 9.98 11.65 10.95 10.52 12.17C9.94 12.78 9.44 13.46 8.99 14.17C9.35 13.97 9.8 14.09 10 14.45L10.15 14.66L17.97 10.15C18.21 10.01 18.37 9.76 18.4 9.48C18.41 9.34 18.54 9.24 18.67 9.26C18.81 9.27 18.91 9.4 18.89 9.53C18.85 9.97 18.59 10.36 18.21 10.58Z" fill="#282B32"/>
</svg>
