<svg width="24" height="24" viewBox="0 0 24 24" fill="none" xmlns="http://www.w3.org/2000/svg">
<path d="M15.62 19.49C12.86 19.43 10.64 21.52 9.74 19.86C9.29 19.04 10.27 17.52 10.55 17.14C10.55 17.12 10.58 17.11 10.59 17.09C11.08 17.91 11.97 18.47 12.95 18.47C13.98 18.47 14.86 17.92 15.35 17.09C15.85 17.75 16.63 18.16 17.54 18.16C19.13 18.16 20.33 16.91 20.33 15.26V9.04C20.7 10.08 21.2 11.65 21.51 12.87C23.51 20.79 18.99 19.54 15.62 19.49ZM16.73 4.14C16.14 4.14 15.6 4.34 15.16 4.66C15.11 4.7 15.05 4.69 15.02 4.64C14.52 3.95 13.72 3.5 12.83 3.5C11.84 3.5 10.99 4.05 10.51 4.86C10.47 4.92 10.4 4.93 10.35 4.89C9.86 4.42 9.21 4.14 8.5 4.14C7.6 4.14 6.81 4.59 6.31 5.28C6.27 5.33 6.21 5.34 6.16 5.3C5.73 4.97 5.19 4.77 4.6 4.77C3.16 4.77 2 5.91 2 7.31V14.22C2 15.34 2.88 16.2 3.79 16.2C4.7 16.2 5.58 15.33 5.58 14.22V10.91C5.58 10.64 5.81 10.41 6.08 10.41C6.35 10.41 6.58 10.64 6.58 10.91V15.26C6.58 16.36 7.47 17.16 8.37 17.16C9.42 17.16 10.16 16.38 10.16 15.26V10.36C10.16 10.08 10.39 9.86 10.66 9.86C10.93 9.86 11.16 10.08 11.16 10.36V15.57C11.16 16.64 12.05 17.47 12.95 17.47C13.92 17.47 14.75 16.69 14.75 15.57V9.73C14.75 9.46 14.97 9.23 15.25 9.23C15.53 9.23 15.75 9.46 15.75 9.73V15.26C15.75 16.4 16.56 17.16 17.54 17.16C18.59 17.16 19.33 16.37 19.33 15.26V6.68C19.33 5.28 18.16 4.14 16.73 4.14Z" fill="#282B32"/>
</svg>
