<svg width="24" height="24" viewBox="0 0 24 24" fill="none" xmlns="http://www.w3.org/2000/svg">
<path d="M13.36 15.54C13.36 15.65 13.38 15.77 13.42 15.88L11 16.76L10.89 16.46C10.8 16.22 10.6 16.06 10.36 16C10.86 15.02 11.23 13.94 11.08 12.96C12.76 12.55 13.46 13.44 13.36 15.53V15.54ZM21 7V17C21 19.21 19.21 21 17 21H7C4.79 21 3 19.21 3 17V7C3 4.79 4.79 3 7 3H17C19.21 3 21 4.79 21 7ZM11.98 7.65C12.61 8.18 13.56 8.1 14.09 7.47C14.62 6.84 14.54 5.89 13.9 5.36C13.27 4.83 12.32 4.91 11.79 5.54C11.26 6.17 11.34 7.12 11.98 7.65ZM10.55 18.79C10.6 18.52 10.42 18.26 10.14 18.21C9.87 18.16 9.61 18.34 9.56 18.62C9.51 18.89 9.69 19.15 9.97 19.2C10.24 19.25 10.5 19.07 10.55 18.79ZM16.33 16.69C16.38 16.42 16.2 16.16 15.92 16.11C15.64 16.06 15.39 16.24 15.34 16.52C15.29 16.79 15.47 17.05 15.75 17.1C16.02 17.15 16.28 16.97 16.33 16.69ZM17.36 13.67C17.24 13.61 17.09 13.69 17.03 13.81C16.78 14.35 16.35 14.75 15.82 14.99L15.71 14.68C15.57 14.29 15.14 14.09 14.75 14.23L14.33 14.38C14.32 11.44 12.41 10.8 10.55 11.4C10.91 11.09 12 10.37 12.65 9.94C14.08 10.24 15.8 10.1 16.71 8.86C17.09 8.41 16.44 7.77 16 8.16C13.48 10.28 9.95 6.45 7.41 8.87C6.96 9.28 7.57 10.01 8.05 9.64C8.6 9.24 9.26 9.19 9.98 9.29C9.47 9.72 9 10.21 8.7 10.53C7.77 11.49 7.67 13.38 9.48 13.2C9.67 14.16 9.47 15.45 8.88 16.42C8.7 16.72 8.42 16.97 8.54 17.31L8.62 17.52C8.19 17.56 7.76 17.5 7.35 17.31C7.22 17.25 7.08 17.31 7.02 17.43C6.96 17.55 7.02 17.7 7.14 17.76C7.54 17.94 7.96 18.04 8.38 18.04C8.72 18.04 9.06 17.98 9.39 17.86L15.82 15.52C16.56 15.25 17.15 14.71 17.48 14C17.54 13.88 17.48 13.73 17.36 13.67Z" fill="#282B32"/>
</svg>
