<svg width="24" height="24" viewBox="0 0 24 24" fill="none" xmlns="http://www.w3.org/2000/svg">
<path d="M17.7733 4.35507C16.4744 3.37535 14.9756 2.77552 13.4368 2.53559C12.9672 2.46561 12.5675 2.8555 12.6174 3.33536C12.8173 5.17483 13.5667 6.96432 14.8756 8.4239L17.8633 5.43476C18.173 5.12485 18.1231 4.61499 17.7733 4.35507ZM19.6519 6.23453C19.3921 5.88463 18.8925 5.83464 18.5827 6.14455L15.5851 9.1337C17.0439 10.4433 18.8325 11.2031 20.681 11.393C21.1507 11.443 21.5404 11.0431 21.4704 10.5733C21.2406 9.03372 20.6311 7.53415 19.6519 6.23453ZM11.5882 3.16541C11.5583 2.74553 11.2085 2.45561 10.7989 2.5056C9.18016 2.70554 7.60141 3.32536 6.24248 4.35507C5.89276 4.61499 5.8428 5.12485 6.15255 5.43476L12.0079 11.2931L14.1662 9.1337C12.6074 7.43418 11.7581 5.31479 11.5882 3.16541ZM14.8756 9.85349L12.7273 12.0029L13.9963 13.2725C14.9556 12.4827 16.1746 12.0029 17.5036 12.0029C18.273 12.0029 18.8525 12.0629 19.3121 12.1828C17.7034 11.8029 16.1746 11.0332 14.8756 9.85349ZM13.2769 13.9823L12.0079 12.7127L9.84963 14.882C11.0087 16.1617 11.7881 17.6712 12.1678 19.2508C12.0579 18.8109 12.0079 18.2511 12.0079 17.5013C12.0079 16.1617 12.4775 14.932 13.2769 13.9823ZM5.44312 6.14455C5.13336 5.83464 4.62377 5.88463 4.36397 6.23453C3.33479 7.60414 2.71528 9.17368 2.50544 10.7932C2.45548 11.2031 2.75525 11.563 3.16492 11.593C5.31322 11.7529 7.43154 12.6127 9.14019 14.1623L11.2985 12.0029L5.44312 6.14455ZM3.33479 12.6227C2.86516 12.5727 2.47547 12.9726 2.54541 13.4425C2.77523 14.982 3.38475 16.4716 4.36397 17.7712C4.64375 18.1411 5.11338 18.1911 5.44312 17.8612L8.42076 14.882C6.97191 13.5724 5.17333 12.8226 3.33479 12.6227ZM9.22012 15.6818C9.22012 15.6818 9.10022 15.6318 9.05026 15.6818L6.24248 18.481C5.87278 18.8609 5.92274 19.4207 6.3524 19.7307C7.62139 20.6604 9.07024 21.2502 10.5691 21.4702C11.0387 21.5401 11.4484 21.1502 11.3884 20.6804C11.1986 18.8809 10.4791 17.1214 9.22012 15.6818ZM18.9324 16.2716C19.0623 16.5116 19.1223 16.7815 19.1223 17.0814V17.1114H15.8848V17.0814C15.8848 16.7715 15.9448 16.5016 16.0747 16.2716C16.2046 16.0317 16.3844 15.8418 16.6243 15.7018C16.8641 15.5618 17.1538 15.4919 17.4936 15.4919C17.8333 15.4919 18.1231 15.5618 18.3729 15.7018C18.6127 15.8418 18.8025 16.0317 18.9324 16.2716ZM22 17.5013C22 19.9906 19.9916 22 17.5036 22C15.0155 22 13.0071 19.9906 13.0071 17.5013C13.0071 15.012 15.0255 13.0026 17.5036 13.0026C19.9816 13.0026 22 15.012 22 17.5013ZM20.2414 17.4213C20.2414 16.8815 20.1415 16.4016 19.9316 16.0017C19.7218 15.6018 19.4121 15.2919 19.0024 15.072C18.5927 14.8521 18.0931 14.7421 17.4936 14.7421C16.954 14.7421 16.4944 14.8421 16.0947 15.042C15.695 15.2419 15.3852 15.5219 15.1554 15.8818C14.9256 16.2417 14.7957 16.6715 14.7657 17.1514C14.7657 17.2414 14.7557 17.3513 14.7557 17.4913C14.7557 17.6313 14.7557 17.7412 14.7657 17.8312C14.8157 18.581 15.0755 19.1708 15.5551 19.6007C16.0347 20.0306 16.6842 20.2505 17.5036 20.2505C17.9032 20.2505 18.263 20.2005 18.5827 20.1105C18.9025 20.0206 19.1722 19.9006 19.3821 19.7606C19.6019 19.6207 19.7618 19.4707 19.8817 19.3308C20.0016 19.1808 20.0615 19.0608 20.0715 18.9609C20.0715 18.8909 20.0615 18.8409 20.0116 18.8009C19.9616 18.7609 19.9017 18.7409 19.8317 18.7409H19.2522C19.1622 18.7409 19.1023 18.7409 19.0623 18.7709C19.0224 18.7909 18.9724 18.8409 18.8925 18.9209C18.8525 18.9709 18.7726 19.0508 18.6527 19.1408C18.5327 19.2308 18.3829 19.3108 18.193 19.3907C18.0032 19.4707 17.7634 19.5007 17.4836 19.5007C17.1638 19.5007 16.8841 19.4307 16.6342 19.2808C16.3944 19.1308 16.2146 18.9409 16.0847 18.691C15.9548 18.451 15.8848 18.1911 15.8749 17.9112V17.8212H19.9616C20.0416 17.8212 20.1015 17.8012 20.1615 17.7612C20.2214 17.7212 20.2414 17.6612 20.2414 17.5913V17.4213Z" fill="#282B32"/>
</svg>
