<svg width="24" height="24" viewBox="0 0 24 24" fill="none" xmlns="http://www.w3.org/2000/svg">
<path d="M17.62 16.1025C14.57 16.1025 12.78 13.8125 11.82 12.5725L11.4 12.0525C10.54 10.9425 8.93 8.8925 6.38 8.8925C3.83 8.8925 2.58 9.9425 2.5 12.0025C2.5 12.5425 2.5 13.0625 2.55 13.6025C2.84 17.7925 6.2 21.1625 10.39 21.4425C11.46 21.5125 12.54 21.5125 13.6 21.4425C17.01 21.2125 19.88 18.9325 20.97 15.8325C21.06 15.5725 20.79 15.3225 20.55 15.4625C19.85 15.8525 18.9 16.1025 17.62 16.1025ZM21.44 10.3925C21.16 6.2025 17.79 2.8325 13.6 2.5525C12.54 2.4825 11.46 2.4825 10.39 2.5525C6.97 2.7825 4.1 5.0625 3.01 8.1725C2.92 8.4325 3.19 8.6825 3.43 8.5425C4.14 8.1425 5.09 7.8925 6.38 7.8925C9.42 7.8925 11.29 10.2825 12.19 11.4325L12.6 11.9625C13.52 13.1325 15.06 15.1025 17.62 15.1025C20.18 15.1025 21.41 14.0625 21.5 12.0025V11.9725C21.5 11.4425 21.48 10.9125 21.44 10.3925Z" fill="#282B32"/>
</svg>
