<svg width="24" height="24" viewBox="0 0 24 24" fill="none" xmlns="http://www.w3.org/2000/svg">
<path d="M16.5013 16.7212C17.3113 17.1912 18.0413 17.7812 18.6713 18.4712C18.8913 18.7212 18.8813 19.1012 18.6313 19.3212C17.2812 20.5312 15.5213 21.3112 13.6013 21.4412C12.5413 21.5212 11.4613 21.5212 10.4013 21.4412C8.48125 21.3112 6.72125 20.5312 5.37125 19.3212C5.12125 19.1012 5.11125 18.7212 5.33125 18.4712C5.96125 17.7812 6.69125 17.1912 7.50125 16.7212C7.50125 16.9912 7.72125 17.2212 8.00125 17.2212C8.28125 17.2212 8.50125 16.9912 8.50125 16.7212L8.50125 16.2012C9.43125 15.8012 10.4413 15.5712 11.5013 15.5112L11.5013 15.9912C11.5013 16.2612 11.7213 16.4912 12.0013 16.4912C12.2813 16.4912 12.5013 16.2612 12.5013 15.9912L12.5013 15.5112C13.5613 15.5712 14.5713 15.8012 15.5013 16.2012L15.5013 16.7212C15.5013 16.9912 15.7213 17.2212 16.0013 17.2212C16.2813 17.2212 16.5013 16.9912 16.5013 16.7212ZM16.5013 8.42122L16.5013 9.27122C16.5013 9.54122 16.2913 9.76122 16.0213 9.77122C15.7513 9.78122 15.5013 9.53122 15.5013 9.25122L15.5013 8.85122C14.5613 9.21122 13.5513 9.42122 12.5013 9.47122L12.5013 10.0012C12.5013 10.2712 12.2813 10.5012 12.0013 10.5012C11.7213 10.5012 11.5013 10.2712 11.5013 10.0012L11.5013 9.47122C10.4513 9.42122 9.44125 9.21122 8.50125 8.85122L8.50125 9.27122C8.50125 9.54122 8.29125 9.76122 8.02125 9.77122C7.75125 9.78122 7.50125 9.53122 7.50125 9.25122L7.50125 8.42122C6.48125 7.90122 5.56125 7.22122 4.78125 6.40122C4.51125 6.12122 4.05125 6.16122 3.84125 6.49122C3.11125 7.64122 2.65125 8.96122 2.55125 10.3912C2.52125 10.9312 2.50125 11.4612 2.50125 12.0012C2.50125 12.5412 2.52125 13.0712 2.55125 13.6012C2.65125 15.0312 3.10125 16.3612 3.84125 17.5112C4.05125 17.8412 4.51125 17.8812 4.78125 17.6012C5.56125 16.7812 6.48125 16.1012 7.50125 15.5812L7.50125 14.7312C7.50125 14.4512 7.71125 14.2412 7.98125 14.2312C8.25125 14.2212 8.50125 14.4712 8.50125 14.7512L8.50125 15.1412C9.44125 14.7912 10.4513 14.5812 11.5013 14.5212L11.5013 14.0012C11.5013 13.7312 11.7112 13.5112 11.9813 13.5012C12.2513 13.4912 12.5013 13.7412 12.5013 14.0212L12.5013 14.5212C13.5513 14.5812 14.5613 14.7912 15.5013 15.1412L15.5013 14.7312C15.5013 14.4512 15.7112 14.2412 15.9813 14.2312C16.2513 14.2212 16.5013 14.4712 16.5013 14.7512L16.5013 15.5812C17.5213 16.1012 18.4413 16.7812 19.2213 17.6012C19.4913 17.8812 19.9513 17.8412 20.1613 17.5112C20.8913 16.3612 21.3513 15.0412 21.4513 13.6012C21.4813 13.0712 21.5013 12.5312 21.5013 12.0012C21.5013 11.4712 21.4813 10.9312 21.4513 10.3912C21.3513 8.96122 20.9013 7.64122 20.1613 6.49122C19.9513 6.16122 19.4913 6.12122 19.2212 6.40122C18.4413 7.22122 17.5213 7.90122 16.5013 8.42122ZM10.4013 2.55122C8.48125 2.69122 6.72125 3.47122 5.37125 4.68122C5.12125 4.90122 5.11125 5.28122 5.33125 5.53122C5.96125 6.22122 6.69125 6.81122 7.50125 7.28122C7.50125 7.01122 7.72125 6.78122 8.00125 6.78122C8.28125 6.78122 8.50125 7.01122 8.50125 7.28122L8.50125 7.80122C9.43125 8.19122 10.4413 8.42122 11.5013 8.48122L11.5013 8.01122C11.5013 7.74122 11.7112 7.52122 11.9813 7.51122C12.2513 7.50122 12.5013 7.75122 12.5013 8.03122L12.5013 8.48122C13.5613 8.42122 14.5713 8.19122 15.5013 7.80122L15.5013 7.28122C15.5013 7.01122 15.7213 6.78122 16.0013 6.78122C16.2813 6.78122 16.5013 7.01122 16.5013 7.28122C17.3113 6.81122 18.0413 6.22122 18.6713 5.53122C18.8912 5.28122 18.8812 4.90122 18.6312 4.68122C17.2812 3.47122 15.5213 2.69122 13.6013 2.55122C12.5413 2.48122 11.4612 2.48122 10.4013 2.55122Z" fill="#282B32"/>
</svg>
