<svg width="24" height="24" viewBox="0 0 24 24" fill="none" xmlns="http://www.w3.org/2000/svg">
<path d="M17 3H7C4.79 3 3 4.79 3 7V17C3 19.21 4.79 21 7 21H17C19.21 21 21 19.21 21 17V7C21 4.79 19.21 3 17 3ZM12.2 17.5H9.7C9.56 17.5 9.45 17.39 9.45 17.25C9.45 17.11 9.56 17 9.7 17H12.2C12.34 17 12.45 17.11 12.45 17.25C12.45 17.39 12.34 17.5 12.2 17.5ZM14.59 11.85L13.5 11.78C13.97 12.95 13.31 14.15 11.87 15.03C12.24 15.09 12.53 15.41 12.5 15.81C12.47 16.21 12.12 16.5 11.72 16.5H10.27C9.84 16.5 9.48 16.15 9.49 15.72C9.49 15.49 9.6 15.27 9.83 15.12C10.7 14.55 11.67 13.84 12.14 13.17C12.36 12.82 12.33 12.49 12 12.06C11.06 13.56 9.25 13.99 7.56 13.26L6.11 14.1C5.75 14.31 5.29 14.18 5.09 13.83C4.89 13.48 5.01 13.01 5.36 12.81C5.36 12.81 6.33 12.25 6.66 12.06C6.93 11.9 7.25 11.96 7.5 12.12C8.54 12.79 10.11 12.43 10.64 11.33C11.09 10.4 11.6 9.97 12.89 9.97L10.39 8.2C10.17 8.04 10.11 7.73 10.27 7.5C10.42 7.28 10.72 7.21 10.95 7.35C11.92 7.94 14.34 9.41 15.14 9.97C15.99 10.57 15.71 11.89 14.59 11.85ZM17.5 11C16.67 11 16 10.33 16 9.5C16 8.67 16.67 8 17.5 8C18.33 8 19 8.67 19 9.5C19 10.33 18.33 11 17.5 11Z" fill="#282B32"/>
</svg>
