<svg width="24" height="24" viewBox="0 0 24 24" fill="none" xmlns="http://www.w3.org/2000/svg">
<path d="M17 3H7C4.79 3 3 4.79 3 7V17C3 19.21 4.79 21 7 21H17C19.21 21 21 19.21 21 17V7C21 4.79 19.21 3 17 3ZM9.99 14.66C9.9 15.49 9.16 16.08 8.34 15.99C7.51 15.9 6.92 15.16 7.01 14.33C7.1 13.51 7.84 12.92 8.66 13.01C9.49 13.1 10.08 13.84 9.99 14.66ZM17.73 6.32001L17.19 6.78C17.45 7.77 17.67 8.74999 17.32 9.82999C16.95 11.12 15.35 11.49 14.22 11.48C13.94 12.52 13.3 13.41 12.21 13.84C12.58 15.39 12.53 17.08 12.5 18.52C12.5 18.8 12.25 19.01 11.98 19C11.72 18.99 11.51 18.78 11.5 18.53C11.29 16.85 11.53 14.78 10.59 13.38C9.61 11.98 7.93 11.07 6.33 10.48C5.75 10.28 5.99 9.38001 6.6 9.51001C8.37 9.92001 10.18 10.6 11.29 11.95C12.85 11.26 13.03 8.10999 11.86 7.29999C11.52 7.06999 10.99 7.18001 10.46 7.45001C10.41 7.48001 10.37 7.54001 10.36 7.60001C10.32 7.83001 10.19 8.05 9.95 8.16C9.59 8.32 9.16 8.15999 8.97 7.82999L8.23 6.54999C8.01 6.16999 8.17 5.65999 8.6 5.48999C8.95 5.33999 9.35 5.48999 9.54 5.82999L9.94 6.51999C10.22 6.35999 10.52 6.23999 10.72 6.14999C11.74 5.68999 13.11 6.34999 13.6 7.29999C14.08 8.06999 14.35 9.04001 14.38 10.01C16.28 10.15 16.48 9.06 16.28 7.62C16.28 7.52 16.19 7.45001 16.09 7.45001C15.88 7.45001 15.67 7.36 15.53 7.19C15.26 6.87 15.3 6.4 15.62 6.13L16.74 5.19C17.06 4.93 17.53 4.93999 17.81 5.23999C18.09 5.55999 18.05 6.05001 17.73 6.32001Z" fill="#282B32"/>
</svg>
