<svg width="24" height="24" viewBox="0 0 24 24" fill="none" xmlns="http://www.w3.org/2000/svg">
<path d="M12.6295 14.7639L14.0985 16.2344C9.53182 20.4257 4.7953 22.4763 3.1665 20.8558C1.53769 19.2253 3.59618 14.4838 7.7831 9.91236L9.25202 11.3828C8.04291 13.0434 7.67318 14.7539 8.4626 15.5541C9.25202 16.3444 10.9608 15.9743 12.6295 14.7739V14.7639ZM21.1932 20.2356L20.224 21.2059C19.8742 21.5561 19.3146 21.6061 18.9149 21.306C18.6151 21.0859 18.3253 20.8258 18.0356 20.5357C16.7565 19.2553 16.047 17.7949 16.2169 16.9246L7.07362 7.78168C6.20426 7.94173 4.75533 7.24151 3.46628 5.9611C3.17649 5.67101 2.92667 5.38092 2.69684 5.08082C2.39706 4.6807 2.44702 4.12052 2.79677 3.77041L3.76605 2.8001C4.1158 2.44999 4.67539 2.39997 5.07509 2.70007C5.36488 2.92014 5.66466 3.18022 5.95445 3.47031C7.2335 4.75072 7.94298 6.21118 7.77311 7.08146L9.17208 8.4819C13.9686 3.82042 19.1148 1.44967 20.8335 3.17022C22.5422 4.88076 20.174 10.0424 15.5274 14.8339L16.9264 16.2344C17.7957 16.0743 19.2447 16.7745 20.5337 18.0549C20.8235 18.345 21.0733 18.6351 21.3032 18.9352C21.6029 19.3354 21.553 19.8855 21.2032 20.2456L21.1932 20.2356ZM14.1084 13.4035C15.8072 11.5229 16.4467 9.39219 15.5374 8.4719C14.6281 7.55161 12.4896 8.20181 10.611 9.90235L14.1084 13.4035Z" fill="#282B32"/>
</svg>
