<svg width="24" height="24" viewBox="0 0 24 24" fill="none" xmlns="http://www.w3.org/2000/svg">
<path d="M17.8825 15C17.2912 12.46 18.133 10.5 18.6741 9.58C18.8345 9.31 18.6741 9 18.3835 8.88C16.6098 8.2 16.3292 4.76 16.2891 3.48C16.2891 3.21 16.0586 3 15.788 3H14.5153C14.2448 3 14.0243 3.22 14.0143 3.49C13.8639 7.3 12.01 6.98 12.01 6.98C12.01 6.98 10.1461 7.3 10.0058 3.49C9.99576 3.22 9.77529 3 9.50471 3H8.222C7.95142 3 7.73096 3.21 7.72094 3.48C7.68085 4.76 7.41028 8.2 5.63652 8.88C5.3459 8.99 5.18556 9.3 5.3459 9.58C5.87703 10.5 6.71881 12.46 6.13758 15C5.4862 17.82 5.12544 18.68 5.00518 19.9C4.94505 20.49 5.41605 21 6.00731 21H9.85546C10.3866 21 10.8275 20.59 10.8576 20.07C10.9277 18.8 11.1783 16.69 12 16.69C12.8217 16.69 13.0723 18.8 13.1424 20.07C13.1725 20.6 13.6134 21 14.1445 21H17.9927C18.5839 21 19.0549 20.49 18.9948 19.9C18.8746 18.68 18.5138 17.82 17.8624 15H17.8825ZM13.9341 11.14L13.2627 11.8C13.2126 11.85 13.1825 11.92 13.2025 11.99L13.3629 12.91C13.403 13.14 13.1524 13.32 12.942 13.21L12.1203 12.78C12.0501 12.75 11.98 12.75 11.9098 12.78L11.0881 13.21C10.8776 13.32 10.6271 13.14 10.6672 12.91L10.8275 11.99C10.8375 11.92 10.8175 11.85 10.7674 11.8L10.096 11.14C9.92561 10.97 10.0158 10.69 10.2563 10.66L11.1883 10.53C11.2584 10.52 11.3286 10.47 11.3586 10.41L11.7695 9.58C11.8797 9.37 12.1904 9.37 12.2906 9.58L12.7015 10.41C12.7316 10.48 12.8017 10.52 12.8718 10.53L13.7938 10.66C14.0343 10.69 14.1245 10.98 13.9541 11.14H13.9341Z" fill="#282B32"/>
</svg>
